<mxfile host="app.diagrams.net" modified="2023-06-21T20:20:28.300Z" agent="Mozilla/5.0 (Windows NT 10.0; Win64; x64) AppleWebKit/537.36 (KHTML, like Gecko) Chrome/114.0.0.0 Safari/537.36" etag="BQBhlwIYdTT13H5knw3-" version="21.3.2" type="device">
  <diagram name="Page-1" id="Hs69qHnBOCfZ6VnU7Fkl">
    <mxGraphModel dx="1185" dy="605" grid="1" gridSize="10" guides="1" tooltips="1" connect="1" arrows="1" fold="1" page="1" pageScale="1" pageWidth="850" pageHeight="1100" math="0" shadow="0">
      <root>
        <mxCell id="0" />
        <mxCell id="1" parent="0" />
        <mxCell id="WavSGEP2uycEWBqPC76q-1" value="" style="rounded=1;whiteSpace=wrap;html=1;fillColor=#A8A8A8;fontColor=#333333;strokeColor=#666666;" vertex="1" parent="1">
          <mxGeometry x="100" y="220" width="240" height="390" as="geometry" />
        </mxCell>
        <mxCell id="WavSGEP2uycEWBqPC76q-2" value="" style="editableCssRules=.*;html=1;shape=image;verticalLabelPosition=bottom;labelBackgroundColor=#ffffff;verticalAlign=top;aspect=fixed;imageAspect=0;image=data:image/svg+xml,PHN2ZyB4bWxucz0iaHR0cDovL3d3dy53My5vcmcvMjAwMC9zdmciIHhtbG5zOnY9Imh0dHBzOi8vdmVjdGEuaW8vbmFubyIgd2lkdGg9IjcwMi44NDYzMTM0NzY1NjI1IiBoZWlnaHQ9IjY4MS45NjcxMDIwNTA3ODEyIiB2aWV3Qm94PSIxMC4wMDEwMjYxNTM1NjQ0NTMgMTAuMDAwOTMzNjQ3MTU1NzYyIDcwMi44NDYzMTM0NzY1NjI1IDY4MS45NjcxMDIwNTA3ODEyIj4mI3hhOwk8c3R5bGUgdHlwZT0idGV4dC9jc3MiPiYjeGE7CS5zdDB7ZmlsbDojMzI2Y2U1O30mI3hhOwkuc3Qxe2ZpbGw6I2ZmZjt9JiN4YTsJPC9zdHlsZT4mI3hhOwk8cGF0aCBjbGFzcz0ic3QwIiBkPSJNMzU4Ljk4NyAxMC4wNmMtNi4yMTMuMzEzLTEyLjMwMSAxLjg1NC0xNy45MDYgNC41MzFMOTYuNzM3IDEzMS4zNDJjLTEyLjgxMSA2LjExOC0yMi4xMTYgMTcuNjg5LTI1LjI4MSAzMS40MzhsLTYwLjI4MSAyNjIuMjVjLTIuODEyIDEyLjIwNy0uNTI0IDI1LjAyNCA2LjM0NCAzNS41MzFhNDYuMzUgNDYuMzUgMCAwIDAgMi42NTYgMy42ODhsMTY5LjEyNSAyMTAuMjgxYzguODY4IDExLjAyMiAyMi4zMTMgMTcuNDQgMzYuNTMxIDE3LjQzOGwyNzEuMjE5LS4wNjJjMTQuMjEyLjAxIDI3LjY1Ny02LjM5NiAzNi41MzEtMTcuNDA2bDE2OS4wNjMtMjEwLjMxM2M4Ljg3My0xMS4wMjggMTIuMTk3LTI1LjQ2NCA5LjAzMS0zOS4yMTlsLTYwLjM3NS0yNjIuMjVjLTMuMTY1LTEzLjc0OC0xMi40Ny0yNS4zMTktMjUuMjgxLTMxLjQzN0wzODEuNjQzIDE0LjU5MmMtNy4wNS0zLjM2OC0xNC44NDEtNC45MjYtMjIuNjU2LTQuNTMxeiIvPiYjeGE7CTxwYXRoIGNsYXNzPSJzdDEgc3QyIiBkPSJNMzYxLjQwOCA5OS4zMDhjLTguMDc3LjAwMS0xNC42MjYgNy4yNzYtMTQuNjI1IDE2LjI1IDAgLjEzOC4wMjguMjY5LjAzMS40MDYtLjAxMiAxLjIxOS0uMDcxIDIuNjg4LS4wMzEgMy43NS4xOTMgNS4xNzYgMS4zMjEgOS4xMzcgMiAxMy45MDYgMS4yMyAxMC4yMDcgMi4yNjEgMTguNjY3IDEuNjI1IDI2LjUzMS0uNjE5IDIuOTY1LTIuODAzIDUuNjc3LTQuNzUgNy41NjNsLS4zNDQgNi4xODhjLTguNzc3LjcyNy0xNy42MTIgMi4wNTktMjYuNDM3IDQuMDYzLTM3Ljk3NSA4LjYyMi03MC42NyAyOC4xODMtOTUuNTYyIDU0LjU5NC0xLjYxNS0xLjEwMi00LjQ0MS0zLjEyOS01LjI4MS0zLjc1LTIuNjExLjM1My01LjI1IDEuMTU4LTguNjg3LS44NDQtNi41NDUtNC40MDYtMTIuNTA2LTEwLjQ4Ny0xOS43MTktMTcuODEyLTMuMzA1LTMuNTA0LTUuNjk4LTYuODQxLTkuNjI1LTEwLjIxOS0uODkyLS43NjctMi4yNTMtMS44MDUtMy4yNS0yLjU5NC0zLjA3LTIuNDQ4LTYuNjkxLTMuNzI0LTEwLjE4Ny0zLjg0NC00LjQ5Ni0uMTU0LTguODI0IDEuNjA0LTExLjY1NiA1LjE1Ni01LjAzNSA2LjMxNS0zLjQyMyAxNS45NjggMy41OTQgMjEuNTYzLjA3MS4wNTcuMTQ3LjEwMS4yMTkuMTU2Ljk2NC43ODIgMi4xNDUgMS43ODMgMy4wMzEgMi40MzggNC4xNjcgMy4wNzcgNy45NzMgNC42NTEgMTIuMTI1IDcuMDk0IDguNzQ3IDUuNDAyIDE1Ljk5OCA5Ljg4MSAyMS43NSAxNS4yODEgMi4yNDYgMi4zOTQgMi42MzkgNi42MTMgMi45MzggOC40MzhsNC42ODggNC4xODhjLTI1LjA5MyAzNy43NjQtMzYuNzA3IDg0LjQwOS0yOS44NDQgMTMxLjkzOGwtNi4xMjUgMS43ODFjLTEuNjE0IDIuMDg1LTMuODk1IDUuMzY1LTYuMjgxIDYuMzQ0LTcuNTI1IDIuMzctMTUuOTk0IDMuMjQxLTI2LjIxOSA0LjMxMy00LjguMzk5LTguOTQyLjE2MS0xNC4wMzEgMS4xMjUtMS4xMi4yMTItMi42ODEuNjE5LTMuOTA2LjkwNi0uMDQzLjAwOS0uMDgyLjAyMi0uMTI1LjAzMS0uMDY3LjAxNS0uMTU1LjA0OC0uMjE5LjA2My04LjYyIDIuMDgzLTE0LjE1OCAxMC4wMDYtMTIuMzc1IDE3LjgxM3MxMC4yMDMgMTIuNTU3IDE4Ljg3NSAxMC42ODhjLjA2My0uMDE0LjE1NC0uMDE3LjIxOS0uMDMxLjA5OC0uMDIyLjE4NC0uMDcuMjgxLS4wOTQgMS4yMDktLjI2NSAyLjcyNC0uNTYxIDMuNzgxLS44NDQgNS4wMDMtMS4zNCA4LjYyNy0zLjMwOCAxMy4xMjUtNS4wMzEgOS42NzctMy40NzEgMTcuNjkyLTYuMzcgMjUuNS03LjUgMy4yNjEtLjI1NSA2LjY5NyAyLjAxMiA4LjQwNiAyLjk2OWw2LjM3NS0xLjA5NGMxNC42NyA0NS40ODMgNDUuNDE0IDgyLjI0NSA4NC4zNDQgMTA1LjMxMmwtMi42NTYgNi4zNzVjLjk1NyAyLjQ3NSAyLjAxMyA1LjgyNSAxLjMgOC4yNjktMi44MzkgNy4zNjEtNy43MDEgMTUuMTMxLTEzLjIzOCAyMy43OTMtMi42ODEgNC4wMDItNS40MjUgNy4xMDgtNy44NDQgMTEuNjg4LS41NzkgMS4wOTYtMS4zMTYgMi43NzktMS44NzUgMy45MzgtMy43NTkgOC4wNDItMS4wMDIgMTcuMzA1IDYuMjE5IDIwLjc4MSA3LjI2NiAzLjQ5OCAxNi4yODQtLjE5MSAyMC4xODctOC4yNS4wMDYtLjAxMS4wMjYtLjAyLjAzMS0uMDMxcy0uMDA0LS4wMjMgMC0uMDMxYy41NTYtMS4xNDMgMS4zNDQtMi42NDQgMS44MTMtMy43MTkgMi4wNzItNC43NDcgMi43NjItOC44MTUgNC4yMTktMTMuNDA2IDMuODctOS43MiA1Ljk5Ni0xOS45MTkgMTEuMzIzLTI2LjI3NCAxLjQ1OS0xLjc0IDMuODM3LTIuNDA5IDYuMzAyLTMuMDdsMy4zMTMtNmMzMy45MzggMTMuMDI3IDcxLjkyNyAxNi41MjIgMTA5Ljg3NSA3LjkwNmExODkuNzcgMTg5Ljc3IDAgMCAwIDI1LjA5NC03LjU2MmwzLjEyNSA1LjYyNWMyLjUwNi44MTUgNS4yNCAxLjIzNiA3LjQ2OSA0LjUzMSAzLjk4NSA2LjgwOSA2LjcxMSAxNC44NjQgMTAuMDMxIDI0LjU5NCAxLjQ1NyA0LjU5MSAyLjE3OCA4LjY1OSA0LjI1IDEzLjQwNi40NzIgMS4wODIgMS4yNTYgMi42MDUgMS44MTMgMy43NSAzLjg5NSA4LjA4NSAxMi45NDIgMTEuNzg3IDIwLjIxOSA4LjI4MSA3LjIxOS0zLjQ3OCA5Ljk4LTEyLjc0IDYuMjE5LTIwLjc4MWwtMS45MDYtMy45MzdjLTIuNDE5LTQuNTgtNS4xNjMtNy42NTQtNy44NDQtMTEuNjU2LTUuNTM3LTguNjYyLTEwLjEzLTE1Ljg1OC0xMi45NjktMjMuMjE5LTEuMTg3LTMuNzk3LjItNi4xNTggMS4xMjUtOC42MjUtLjU1NC0uNjM1LTEuNzM5LTQuMjItMi40MzctNS45MDYgNDAuNDU3LTIzLjg4OCA3MC4yOTktNjIuMDIxIDg0LjMxMy0xMDYuMDYyIDEuODkyLjI5NyA1LjE4Mi44NzkgNi4yNSAxLjA5NCAyLjItMS40NTEgNC4yMjItMy4zNDQgOC4xODgtMy4wMzEgNy44MDggMS4xMjkgMTUuODIzIDQuMDMgMjUuNSA3LjUgNC40OTggMS43MjMgOC4xMjIgMy43MjMgMTMuMTI1IDUuMDYzIDEuMDU3LjI4MyAyLjU3Mi41NDcgMy43ODEuODEzLjA5Ny4wMjQuMTgzLjA3MS4yODEuMDk0LjA2NS4wMTUuMTU2LjAxNy4yMTkuMDMxIDguNjcyIDEuODY3IDE3LjA5NC0yLjg3OSAxOC44NzUtMTAuNjg3cy0zLjc1NC0xNS43MzItMTIuMzc1LTE3LjgxMmMtMS4yNTQtLjI4NS0zLjAzMi0uNzY5LTQuMjUtMS01LjA4OS0uOTY0LTkuMjMxLS43MjYtMTQuMDMxLTEuMTI1LTEwLjIyNS0xLjA3MS0xOC42OTMtMS45NDMtMjYuMjE5LTQuMzEyLTMuMDY4LTEuMTktNS4yNTEtNC44NDEtNi4zMTMtNi4zNDRsLTUuOTA2LTEuNzE5YzMuMDYyLTIyLjE1NCAyLjIzNy00NS4yMTEtMy4wNjItNjguMjgxLTUuMzQ4LTIzLjI4NS0xNC44LTQ0LjU4MS0yNy40MDYtNjMuMzQ0bDUuMTg4LTQuNjU2Yy4yMzctMi42MjQuMDMzLTUuMzc2IDIuNzUtOC4yODEgNS43NTEtNS40MDEgMTMuMDAzLTkuODc5IDIxLjc1LTE1LjI4MSA0LjE1Mi0yLjQ0MyA3Ljk5LTQuMDE3IDEyLjE1Ni03LjA5NC45NDItLjY5NiAyLjIyOS0xLjc5OCAzLjIxOS0yLjU5NCA3LjAxNS01LjU5NiA4LjYzMS0xNS4yNDggMy41OTQtMjEuNTYycy0xNC43OTctNi45MDktMjEuODEyLTEuMzEyYy0uOTk5Ljc5MS0yLjM1NCAxLjgyMy0zLjI1IDIuNTk0LTMuOTI3IDMuMzc4LTYuMzUxIDYuNzE0LTkuNjU2IDEwLjIxOS03LjIxMiA3LjMyNi0xMy4xNzQgMTMuNDM4LTE5LjcxOSAxNy44NDQtMi44MzYgMS42NTEtNi45OSAxLjA4LTguODc1Ljk2OWwtNS41NjIgMy45NjljLTMxLjcxOS0zMy4yNjEtNzQuOTA1LTU0LjUyNS0xMjEuNDA2LTU4LjY1NmwtLjM0NC02LjUzMWMtMS45MDQtMS44MjItNC4yMDMtMy4zNzctNC43ODEtNy4zMTItLjYzNi03Ljg2NC40MjYtMTYuMzI1IDEuNjU2LTI2LjUzMS42NzktNC43NjkgMS44MDctOC43MyAyLTEzLjkwNi4wNDQtMS4xNzctLjAyNi0yLjg4NC0uMDMxLTQuMTU2LS4wMDEtOC45NzQtNi41NDgtMTYuMjUxLTE0LjYyNS0xNi4yNXptLTE4LjMxMiAxMTMuNDM4bC00LjM0NCA3Ni43MTktLjMxMi4xNTZjLS4yOTEgNi44NjMtNS45NCAxMi4zNDQtMTIuODc1IDEyLjM0NGExMi44MiAxMi44MiAwIDAgMS03LjU5NC0yLjQ2OWwtLjEyNS4wNjMtNjIuOTA2LTQ0LjU5NGMxOS4zMzQtMTkuMDExIDQ0LjA2My0zMy4wNiA3Mi41NjItMzkuNTMxIDUuMjA2LTEuMTgyIDEwLjQxLTIuMDU5IDE1LjU5NC0yLjY4N3ptMzYuNjU2IDBjMzMuMjczIDQuMDkyIDY0LjA0NSAxOS4xNTkgODcuNjI1IDQyLjI1bC02Mi41IDQ0LjMxMy0uMjE5LS4wOTRhMTIuOTEgMTIuOTEgMCAwIDEtMTcuNjg3LTIuMzc1Yy0xLjc3MS0yLjIyMS0yLjcwMS00LjgzMi0yLjgxMi03LjQ2OWwtLjA2Mi0uMDMxek0yMzIuMTI2IDI4My42Mmw1Ny40MzcgNTEuMzc1LS4wNjIuMzEzYTEyLjg4IDEyLjg4IDAgMCAxIDEuNjI1IDE3Ljc1IDEyLjg5IDEyLjg5IDAgMCAxLTYuNjg3IDQuNDA2bC0uMDYyLjI1LTczLjYyNSAyMS4yNWMtMy43NDctMzQuMjY1IDQuMzI5LTY3LjU3NCAyMS4zNzUtOTUuMzQ0em0yNTguMTU2LjAzMWM4LjUzNCAxMy44MzMgMTQuOTk3IDI5LjI4MiAxOC44NDQgNDYuMDMxIDMuODAxIDE2LjU0OCA0Ljc1NSAzMy4wNjcgMy4xODggNDkuMDMxbC03NC0yMS4zMTItLjA2Mi0uMzEyYy02LjYyNy0xLjgxMS0xMC42OTktOC41NTItOS4xNTYtMTUuMzEyLjYzMi0yLjc3IDIuMTAyLTUuMTEzIDQuMDk0LTYuODQ0bC0uMDMxLS4xNTYgNTcuMTI1LTUxLjEyNXptLTE0MC42NTYgNTUuMzEzaDIzLjUzMWwxNC42MjUgMTguMjgxLTUuMjUgMjIuODEzLTIxLjEyNSAxMC4xNTYtMjEuMTg3LTEwLjE4Ny01LjI1LTIyLjgxMnptNzUuNDM4IDYyLjU2M2ExMi44MyAxMi44MyAwIDAgMSAyLjk2OS4yMTlsLjEyNS0uMTU2IDc2LjE1NiAxMi44NzVjLTExLjE0NiAzMS4zMTMtMzIuNDczIDU4LjQ0LTYwLjk2OSA3Ni41OTRsLTI5LjU2Mi03MS40MDYuMDk0LS4xMjVjLTIuNzE2LTYuMzEuMDAyLTEzLjcxIDYuMjUtMTYuNzE5IDEuNi0uNzcgMy4yNzEtMS4xOTcgNC45MzgtMS4yODF6bS0xMjcuOTA2LjMxM2ExMi45IDEyLjkgMCAwIDEgMTIuMzc1IDEwLjAzMSAxMi43NyAxMi43NyAwIDAgMS0uNzE5IDcuOTM4bC4yMTkuMjgxLTI5LjI1IDcwLjY4OGMtMjcuMzQ3LTE3LjU0OS00OS4xMjktNDMuODI0LTYwLjc4MS03Ni4wNjJsNzUuNS0xMi44MTIuMTI1LjE1NmMuODQ1LS4xNTUgMS43MDEtLjIzIDIuNTMxLS4yMTl6bTYzLjc4MSAzMC45NjljMi4wMjQtLjA3NCA0LjA3OS4zNDEgNi4wMzEgMS4yODEgMi41NiAxLjIzMyA0LjUzNyAzLjE3MyA1Ljc4MSA1LjVoLjI4MWwzNy4yMTkgNjcuMjVjLTQuODMgMS42MTktOS43OTYgMy4wMDMtMTQuODc1IDQuMTU2LTI4LjQ2NSA2LjQ2My01Ni44MzkgNC41MDUtODIuNTMxLTQuMjVsMzcuMTI1LTY3LjEyNWguMDYzYTEyLjkxIDEyLjkxIDAgMCAxIDEwLjkwNi02LjgxMnoiIHN0cm9rZT0ibm9uZSIgc3Ryb2tlLXdpZHRoPSIuMjUiLz4mI3hhOzwvc3ZnPg==;fontColor=default;" vertex="1" parent="1">
          <mxGeometry x="120" y="240" width="40" height="38" as="geometry" />
        </mxCell>
        <mxCell id="WavSGEP2uycEWBqPC76q-3" value="Kubernetes-Cluster" style="text;html=1;strokeColor=none;fillColor=none;align=center;verticalAlign=middle;whiteSpace=wrap;rounded=0;" vertex="1" parent="1">
          <mxGeometry x="180" y="244" width="60" height="30" as="geometry" />
        </mxCell>
        <mxCell id="WavSGEP2uycEWBqPC76q-4" value="" style="rounded=1;whiteSpace=wrap;html=1;fillColor=#FFFFFF;fontColor=#333333;strokeColor=#666666;" vertex="1" parent="1">
          <mxGeometry x="120" y="290" width="200" height="290" as="geometry" />
        </mxCell>
        <mxCell id="WavSGEP2uycEWBqPC76q-5" value="" style="shape=image;verticalLabelPosition=bottom;labelBackgroundColor=default;verticalAlign=top;aspect=fixed;imageAspect=0;image=data:image/png,iVBORw0KGgoAAAANSUhEUgAAAFsAAACICAMAAAC/QmcqAAAAZlBMVEX///9Ga7Do6/M3Yqz3+PtTc7RDaa8/Zq40YKv6+/08ZK3u8fcyXqva4O3k6PJMb7KDmMavvNkqWqlberdrhr3T2uq3w93AyuGYqc9mgrtgfrnI0eV3j8GertKottZxi78eVKaOosvkbVXFAAADzUlEQVRoge3Z22KrIBAF0ExMBlQSjaY2TdNc/v8nD2ouiiADwtvhOS52KdOZ2NWKtvKc+EGPtb/Gs9dFGs++/8azxU88m/OvaHbCLvFsTPbRbMge8WzESPUjbeCR6qe1YbuJZ/Mmno3nKIXf2cCjFH5vs1s8G/guns3KeDZmEQr/aUNyimcjhC/8lw38EM/GOnj9vG3g3/FsDN44PzYEb5wDO3jjHNjAA9fP0GaBG+fQRraOZkPyF8+GImjjHNthG+fYDlv4YxtEyMap2HiMZ4MI2DhVO2TjVG3g4epnYgecmCc2smCNc2IHnJinNgT7xqmxgxW+xsbzYjXdGGyoFjfOZmeyF0/M6XZvsqFa2DgbYbYXFn66RbMNfFH9NGLOzpZMzGmNczbigsYpY8/ZSyZmedrzNm69C78RMG+D8J2YZWyb7T0xy9g2Gyq/xtnGttqeE3Mb22qD8Cn8Lrbd9pqYu9h226fw+9gEO3FvnH1sgg3gWvjP2BTbuXE+Y1NsrP1ik86kcpuYX7FJttvE/I5Nst0K/x2bZrs0zk9smg2CPjE3/HOWJJveONPi8xTNxoRaP4PYRJs8MQ9jU20oiLHF4BmqTWuco9hkmzYxD0+bbpMm5lTJQ7UpjXN02g42ZWJWnqDb9sZ5GMd2sEHY6gdw/ICDbXvVpMZ2sTGZHzwR1QfotmViPnD18y72fOFPYrvZc6+aprHd7LnCZ5PYbvZM4zxoADfbXPjJNLajDXdD49TFdrVNha85bWcbKm39aC6Jh60vfG1sZxsTcmxnWzsx62O72zgtfENsd1tT+Jk+toc9+aqsvdt+9qRx6krS11Ym5qvxUQ8b7jkptpfNhhPz1XBJPG0Qg8Lnxth+9mBinontZyMSTtvT/kzMppLsadbbAnHaqM2PnWdjSyrjHOpbd6Hy27kukIskY6RNno1zcrdl1kzwor6dvneDFpXm+6/fw+nyIzcRvNtEHfA+6/mOeRC7V0FVlSU32b02ef4kmuDr9yV5qZdWpb5P7Dd5lHITxvl4k67weaeiVBu6qv9JymNdyN8R7zapNjK2W1bSJhe5SfW3CqVqNonh/l8zK99EWnm+ysus2IZeRbYtv9tvhPuyMg0QHgsZr+rT17tjSp0FgkVyOygVsy/FYh2zCvqTUNfC7Ji0J2H80u2tyyMWt6vlLZ6PjqxC/Umoa+2m9ydB/mNH1uWdEPJOUF26Lk+C0U7CUcfsvj35/6/YrMuyO9ruhJfOBPc7CYsu70Sx4CTUlb91Jqqj652w63eG7Un8xujY+eN89ezY/wBWoT8MwlDhEgAAAABJRU5ErkJggg==;" vertex="1" parent="1">
          <mxGeometry x="133.24" y="310" width="26.76" height="40" as="geometry" />
        </mxCell>
        <mxCell id="WavSGEP2uycEWBqPC76q-6" value="&lt;font color=&quot;#000000&quot;&gt;Istio&lt;br&gt;Service-Mesh&lt;br&gt;&lt;/font&gt;" style="text;html=1;strokeColor=none;fillColor=none;align=center;verticalAlign=middle;whiteSpace=wrap;rounded=0;" vertex="1" parent="1">
          <mxGeometry x="175" y="315" width="90" height="30" as="geometry" />
        </mxCell>
        <mxCell id="WavSGEP2uycEWBqPC76q-7" value="" style="shape=datastore;whiteSpace=wrap;html=1;fillColor=#FF6666;" vertex="1" parent="1">
          <mxGeometry x="200" y="360" width="40" height="50" as="geometry" />
        </mxCell>
        <mxCell id="WavSGEP2uycEWBqPC76q-8" value="&lt;font color=&quot;#000000&quot;&gt;Database&lt;br&gt;&lt;/font&gt;" style="text;html=1;strokeColor=none;fillColor=none;align=center;verticalAlign=middle;whiteSpace=wrap;rounded=0;" vertex="1" parent="1">
          <mxGeometry x="190" y="404" width="60" height="30" as="geometry" />
        </mxCell>
        <mxCell id="WavSGEP2uycEWBqPC76q-11" value="" style="group" vertex="1" connectable="0" parent="1">
          <mxGeometry x="140" y="470" width="60" height="72" as="geometry" />
        </mxCell>
        <mxCell id="WavSGEP2uycEWBqPC76q-9" value="" style="shape=image;verticalLabelPosition=bottom;labelBackgroundColor=default;verticalAlign=top;aspect=fixed;imageAspect=0;image=data:image/png,iVBORw0KGgoAAAANSUhEUgAAAgAAAAIACAYAAAD0eNT6AAAABGdBTUEAALGPC/xhBQAAACBjSFJNAAB6JgAAgIQAAPoAAACA6AAAdTAAAOpgAAA6mAAAF3CculE8AAAAB3RJTUUH5QEdCCQE7djyZAAAAAZiS0dEAAAAAAAA+UO7fwAATwlJREFUeNrtnQmcVcWV/x+CoAZwJQaXaBSNmigukziTxMxk1JhEnMmiGUyMmuSfmGWyzqhJjNkdfK/RRgUEFMUV3ntAs2/Nvu9b09IszdJAN9BA0zu9Uf9zqi+RJCy9vOXWu9/f5/O1G0X6UbfqnHOr6pwTCiGE/KF+I88IhaNnhbLiXYWLhIvl1x8ORWJXClcJ1ws3CHcIj1jC0Sfk9w2U74cKU4Tlp2CbYE7DttP8GVPsz9KfqT/72Odo/kw3eJ/xKvuZ9bPr36H576J/py6h7JwOPGiEEELBUySm9BBneJlwgzjJT8iv/1W+9pGvDwmPC/8nvCPkCKuEDcJWob4FDjzd1HufdYP32XO8v4v+nX4u9BW+IHxWuFW4RugZenZUNwmAmB8IIYQyQM+P7SLOrZfwKeHL4uR/JF9/J7wuxIQ5whrvrbvCAeeeKEqFQm9HYarwtvCi8LQ3Rvd7Owq97BgihBBCvlW/kRfaN9qs+LG3+FeFscJ8YZ2wXSgXmgLk6FtLkzdGRUKeN3ZjhEHCj4V7hJsEjhEQQgilQeqAIrGb5W31W/K1vzBD2Cjs9N5u9W2+EYee0GOFMqFY2CGslbHXwOD3EnB9Wb7eSFCAEEIoUU6+kziZbvZ8OhK7VhzNl4Q/yvfThVrhKI7ZFxz1qLXPRp+RPit9Zvrsmp9hJyY0QgihEys7p5M4Cr2trlvMdwvfFSLe2/0eHK1z7PGeXcR7lnd7z/Yi+6wRQggFWFnxs8Qh3ObdTH/aO7dfJOwVGnCiGUOD90wXec/4ae+Z32bnAEIIoQAoEjvf3jAPR3/hXdJb4b0t1uMoA3WnYI/37Md6c+EOOzcQQghlkJ4f213e9P5TDPwQz+jvEg7jCMHjsDcnVtg5onNF5wxCCCGHpBXnIrHLhE8Lv/FSyeq4tAetvFhY580dTen8pJ1TOrcQQgj5RFpaNhI71ytD+3nhL16BmSM4MkgQR7w59Rdvjt1g5xxljRFCKC2Ov3MoHP248KhXKGaul4PPmz4kc2eg1Jtrg+zc0zmocxEhhFBSnf4ZYnivEKOr1faGC0uE/TgmSBP7vTk43JuTV9g5ihBCKGGO/xwxsPcKWkN/s/cWRpoe+CnNsNTOTZ2jOld1ziKEEGqlnh11phjTi70mOmGvBGwT2/vgyDFBkzdnw94cvtjOaYQQQidROHq+cIvwmNclrgKHAo5TYeeyzulw9OZQVpz0QoQQsuo3soO8HV3mVWYb6OVis70PmXhMsEwYYOe6znmd+wghFDg13+K/WYzhn4VcrzIbrXIhCC2P93hz/s92DZBFgBAKhCKxs4U+QlTYIlTjFCCgVHtrICqBwF2hfiMJBBBCGfWm38E6/XD0cvn6AyGPC30AJ7w4mGfXSPNaOZtCQwghN6Xnm3qpLyuuJXl/Ld+vZ4sfoAVHBM1r5dd27ega4q4AQsihbf7zvW1+bb6zgUt9AG26NLjBW0N96FSIEPK3suI9xFB9SxgpbMWIAySErd6a+pZdYwgh5BuFo529POclXkW0Row2QEJptGtL11jzWuPCIEIorU6/p9cQpYDzfYCU3hMo8NZeT4IBhFCqHP8ZwnXC94SFXt90jDJA6qmza7B5LV5n1yZCCCXJ+V8l/FgMz0zy9wF8VU9gpl2bukYRQiiBjl+3GX8iRma6cBiDC+BLDts1qmtV1yxCCLXD8R+73LdUDEsZ5/wATpQaLrNrlsuCCKFWKRLrKFwohuMBYSM3+gEczhzQNaxrWde0rm2EEPoHZedoHv95XtGRmFCFAQXICKq8Nd3HrnFd6wgh9Fdlxe8QA5EtFGEwATKSIrvGda0jhFAoHO0lPCWGYQ0lewECUWJ4jV3zuvYRQoF84+8mhuARQXP5K+nOBxCo7oOV3tp/xNoChFDGn/N3kMXeXSL/O2Xhz/Yu+OH4AYIbCDRaW6A2QW0DLYgRysg3/rNkod8uvOCl9GEAAeAYZZ5tuN3aCoRQxrz195SFrYV8VnLODwCnuB+w0toKtRnsBiDkuMLRz8mCzvG69GHkAOB0lFqbobYDIeSg+o08Vxax3u4vpIIfALShomChtSFqSxBCPlck1kHoGsqK3ydfF9GpDwDa3XFQbUmzTelqbQxCyHdn/Z1C4WhvWaD9hQMYLgBIIAesbVEbo7YGIeSbc/4PCprTvwBDBQBJZIG1NWpzEEJpfevXxj03Ci8LJeT0A0AKageUeDbnRmuDEEIpP+/XLf8+gqbt1GCYACCF1FjbozZIbRFCKAXqN1Lf+nuEsuLauKeet34ASONuQL1ni3pY24QQStpbfzeJuO+Sr1O9Ep4YIQBIN43WJjXbJvoKIJTgs35N77tU+JVQQF4/APiwbkCBZ6MupYogQolSVvwWWVTjhEMYGgDwMYdC4ego+Xozhhuh9ioc7SuLKZ+3fgBwhHprs9R2IYRa7fT1ot81wlChHIMCAA5S7tmwa6xNQwid1vl3sr25I7HJdO4DgAzoMDjZ2jS1bQihk1726yyL5WEhD8MBABlEnrVtauMQQn+nSOwC4Q/CHowFAGQgezwbdwEGH6H3nf9HhbeFSowEAGQwauNeFz6C4UfBVlb8bOFLshiWc8sfAAJUM2C5Z/vOwhGgIF720y3/nwvFGAQACCDFYge/b20hQgF68+8lkz8iVGAEACDAVFhbqDYRoYyWts7Mit8qE/4doYrFDwBgbWFU+CTthVGmOv8O4vxvl0m+SKhl0QMA/JU6YUkoHP03ugqizFIkdqbwNZncu0O07wUAOBFHQ839Tu4XzsZxoExw/ucL3xQOssABAE5LmfCEcBEOBLl82e8SmcS/Ew6wqAEAWoy+MD0rXIkjQS6++V8mvITzBwBoE9pMaIi8SF1t71Ah5IT6j75cJu40bvoDALQ7Q2CGtakI+fytv5Pwz8IKLvsBACTscuAyuxOgNhYhHzp/7eR3t5CP8wcASHgQkO/ZWDoKIh8pHD1HJuWXvTd/avoDACSnh8Bqoa/QFceD/PDm30V4VCjA+QMAJJ1twnes7UUozQGARqMlLEoAgJRRYm0vQml883/QS1VhQQIApD5N8Bu2rTpCKVNW/DyZeN8L0coXACCdlFI1EKXyzf8i4SlhN4sPAMAXQcCfCQJQsp1/V+Ev3oRj4QEA+CcI+AvZASiZAYBOsMMsNgAA33HY2miEkvTmX8siAwDwLbXsBKBEn/nz5g8A4NJOAHcCULsUjp7nXfjjzB8AwK07AU+GwvHuODLUljf/Ll6qH7f9AQDcY6fwXSoGorYEAA+S5w8A4DTF1pYj1Io3/75U+AMAyJiKgX3ZCUCnO/PXrn6PhqjtDwCQSahNfziUFT8LR4dO9ObfOdTc0reAxQIAkHFsEPpYW4/Qcc6/k3C3sCJES18AgEykybPxd1ubj5AXAPyzkI/zBwDI+CAgPxSO3ojjQ6FQ/9GXe1HhURYHAEDGo7Z+ubX9KNBv/pcJ03D+AACBCwKmWR+AAnnj/xJ5+C8JVSwGAIDAUWV9gPoCFKg3//OF3wkHWAQAAIHlgOcLzscxBsP5nyl8E+cPAACeL/im9Q0og5Wd00Ee8teEg0x6AADwOGh9g/oIlJHOv2MoK357KByluQ8AAPwt6hvUR6ivQBmmrPit8pAXceMfAABOkhmwyPoKlFE3/nvJg31HqGWSAwDASai1vkJ9BsoI53+BPNAI6X4AANDC9MCI9R3I6W3/s+VB/lyoYFIDAEALqZAA4Pvyle6BDgcAX5IHWMxkBgCAVlJsfQhyces//tFQc41/JjIAALSF5cJHcKhuFfvRc/+3Q3T3AwCAtqM+5HXrU5AT+f6d5WH9Qahk8gIAQDuptD5FfQvy9Zt/J+FhYQ+TFgAAEsQez7d0wtH6M92vozycO4UNTFYAAEgwG6yPUV+DfPf2f40wmUkKAABJYrL1Nch3AcBQoYEJCgAASaLB+hrkK+ffVyhncgIAQJIptz4Hpf3Gf4dQVvwWeRj5TEoAAEgR+db30D44rW/+lwrjyPcHAIAU1wcYZ30QSovz7yb8SjjEZAQAgBRzyPNB3XDIqVS/kR1D4ehdMvAFTEIAAEgTBdYXqU9CKXv7v1iYw9Y/AACk+ShgqtADx5yqan/h6ACcPwAA+IBG8UnZIaoEJv3Wv27995GBrmfSAQCAT6i3vkl9FEqSsuI3ykCvFI4y4QAAwCcctb5JfRRKgsLRD8oAvyzUMNkAAMBn1Fgfpb4KJXTrX8/9H5HBLWGSAQCATymxvkp9FkrIpb8OQm9hIVv/AADg86OAhZ7PokpgAgKArkJ/JhYAADhCf+u7ULvP/u+TgTzAhAIAAEc4YH0XalfFv3NlIBczmQAAwDEWWx+G2rz9/5RQx0QCAADHqLM+DLX61r9e/PucUMgkAgAARym0voy2wa168+8p5IQo9wsAAO7S5Pmynjj2llX7O0sG6ydCKZMHAAAcp9T6NPVt6LRb/7eHmsv9MnEAACATWGl9G0cBp0z56y6D9KLQwIQBAIAMocH6NvVx6KQBwJ0ySGVMFgAAyDDKrI9DJzz77yaDM5tJAgAAGYn6OPV16B9u/j8iNDJJAAAgQ2m0vg79jfPvFaLZDwAAZDbHmgX1wvE33/zvHApH/yADUsnkAACADKdSfB4VAsX568W/z8qArOXtHwAAArILsFZ83x3WBwZ46/88IZu0PwAACFhaYLb1gQF1/h2FPkIRkwEAAAJGkecDOwYxALhQiDEJAAAgoMSsLwxg0Z8H5C9exQQAAICAUmV9YcDe/vXm/0YePgAABLw40EbrEwMUADxG0R8AAADrCx8LivO/RCKepTx0AAAAuwuw1PrGAJz9/zREwx8AAIBjlFnfmOFv/1cJ04UmHjgkmxtfn27+d84603/FJvP8is0A5tllBebzsfmm83OjWSPgJ5o833hVpjr/MyTC+bF8LedhQzLpINzx7myzrPigqWloNHWNTQCWI8KB2jrzp8X55uznx7BewE+Uez7yjEwMAK4TZvGQIdn0GDjevJa33SB0MhUcrDD3xOebM7LirBnwE7Osr8y4tL9I7HtCNQ8Ykoka9P8cu9AclLc8hE6lNzfsMB+UYJF1Az6i2vOVGZQWGI72DDW3QOQBQ1I574Ucs2BXKd4NnVaHJEi8f/xidgHAbyy0PjODdgAeFep4sJBsfjhjlWk8ehTvhlqkpcUHzVncBQB/UWd9ZgZV/SvgoUKyufzlSaawrAqvhlqsJgkWfzl7rb04yhoCH9UFKMiMY4Dmqn+k/UFS0be4IWsL7U1vhFqjLWWVptewKawj8Fta4GOun/33EJbwMCHZ6I1uNeQItVaaGvjiqi3mA9ljWUvgp12AJdaHOvz2/y2hlIcJyaTnoAnmjQ07TEMTZ/+ojbsAhyptgSDWE/iIUutDHXX+5wsjQzT9gSTSMStuvj5hidlXfQQvhtqs+qYmmxZ46eCJrCvwC42eDz3fLeffb2SHUDh6n3zwrTxESCZ6djunaL/h3R+1VwdqjpiHJy8zZ/YnLRB8w1brS9WnOqNnR+nb/xAeHiSTTmKon5y3Hs+FEqa5Ekx+9NWprC/wE0OsT3VC2Tkd5AN/WsjnwUEyuVYM9c7yarwWSpg0i+SJuetscMkaA5+Qb32q+lbfKyt+tnzYXwsNPDhIFl2eG20Grd6Cx0IJ1/bDVea64dNYZ+AXGqxPVd/qQOrf5cJ6HhokNe0vNs8UV9birVBSpDUlWGfgo5TA9da3OhAA/JDCP5BMtNtfzpY9lPxFSdPeqlpzd3QeFQLBT4WBfJ4SGInp9n8eDwuSRefnRpsf5642pTWk/aHkSWPL6dv3movpFgj+IS/Ub2RnP7/99+HtH5JJ7xEzzILddPtDyZfWlnhs+kpzZv/RrD3wxy5AOHqXX2//d5YPGBWO8qAgGXTNHmt+uyDP1DQ04p1QSjRn5z7zsde4EAi+4Kj1seprfbj9f4uwhYcEyUDPYj/x5kyz7TDd/lDqVF3faJ6Yu96ck03LYPAFW6yv9V3lv0jsz0I1DwiSwdnPjzFD126l4h9KuYoqqs2tb+SyDsEPVFtf66vKgOHoZfKhcnk4kCzuis7DE6G06Z33itgFAL+Qa32uj7b/HxSKeTCQDC54aZyZtXMfXgilTbWNTebO6FzWI/iBYutzfdT1bxC3/yFZ/GzWGlNV34AXQmnVjB17TbcBY1mT4IeaAANC4Wh3PwQAtworeCiQDG58fbpZVnyQs3+UdlXUNZgf5a5iXYIfWCbcnO7Lf2dKFPIYdf8hWRf/nl260dSS9od8IA1Cl0ow+vHXprM+If39AcKx74f6jToznZf/Lham8jAg0ZyRFTdfjM83mw5W4HmQb3Skscn0X15gPpDNUQCkuz9ALEfokc7t/08JFTwMSDQXD5pg3srfgcdBvtOmQxXm87F5pkMW6xTSSoX1wWkMACI8BEg0HeXt/4HxS8yh2jq8DfKdtAnVK+sKbVMq1iukmUi6Sv+eIz+8hAcAiUa3V5fsOYCnQb5V2ZF6c9+YhfaoijULaaTQ+uI0vP3fS+ofJLzkb1bM/M/stbT6Rb6XNqXqPiCHdQvppNH64hS//Z8hP3QEjX8g0egN6x3l1XgX5IQen7vOHlmxdiGNDYJGWJ+cMmXFr5AfupnBh0TS/YUcM3jNVlPX2IRnQU6o4GCF+dhwugVCWtlsfXIKt/8fEkoZeEgk945ZQLc/5JSONDaa51Zsok8ApJNS65NTtP3fWX7YcIr/QCK5dPBEm/ZX38TbP3JHelNl48EKc3d0HusY0lcUSH2y+uYUvP3fKCxh0CFRnNk/bh6ZvMyU1hzBoyDnpBdW38rfaXoOmsB6hnSxxPrmJL/9d5Af8m1hPwMOieL64dPMgl2leBLkrPZVHzEPTVomwexo1jSkA/XJjyT78t+5oebOfww4JOjtf7R5euEGPAhyXnOK9ptrX5nKuoZ08VwoHD0nmdv/NwmLGGhIFB97bbrZVVHjlKFfs6/M/Gb+evM/c9YmlN9LIKTNZlyqgaDP7vkVmxI+Fr+at97k7thrXCoH0dB01H72Tv1JC4S0MFMCgOuSGQB8QTjEQEOieGXdNqecv1aAuzs2LylGvvNzo83XJywxhY5kQpTLWKijTkYxHM2tv+aVKaakqtap+aEB0RVDJ7O2IV3ZAPckq/NfV/nDn6H4DySK+8YudOriX5O8jmrKV9cByesE10WCAA2KXMiGmLVzX9LT374/faUdd5ektSwoEQxpKgr0jPXVSQgALpM/fDmDDIlAb0yrA3HJtq/ae8jcPGJG0sfmqmFTTP6Bcl+PRVV9g7n9rZlJH4sPDhxvcnfscyoAOFhbZ3eJWOeQBpZbX52E7f9PC0cYYEjExb+fzlpjDtS40+1Pt/71fPfs51NT8OUXs9f6ejxeW789Je1w9ShAm+7sqXTnnkhj01GTs3m3+RBpgZB61Ed/MhkBwFMMLiSC3vIWvXC3O2l/ugU9dVuJvJmn7mz33BdyzGKfdkQsLKs0n0zB2/8xLnppvBmyZqtTlyP1aOuHM1bRJwDSwePJCADmM7DQXroNGGv+sCjf1DY0OmPM91cfMY9OWZ7Sc90Owv3jFpsjPuuLoHcTfj1vfUpL3+pOw53RuWZDabkzc0ZjFc1iuIE+AZB65ifW+T8/trv8oXUMLLSXf3oz1xRVVDtlyCduLU7Z1v/x9Bg43ryet9346b1X721o6mbKj42eG22eXbrR1DgUOGpTq/+ds86c9Tx9AiCl1FmfncALgF/m9j8k4u1fz0Zdkr79X5fGt7jPvjvHbDpU4Zux+PaU5WkbiyuHTjZL9hwwLuUEaGvrf357lt3RwQZAyrIB1GcnMAAYwqBCe7l39AJT61ir337y1pnOMdMWyfoZqtP85qtFbqIFRfY8Pp3j8Y2JS53aBVANW1do0zuxAZAy1Gcn6Oz/fGEFgwrt4ZLBE82i3W7V+1+9t8z0emVK2sfu1jdym9980/jqqwV57onPT/tYaA2G6dtKnJpHmjL5BR+MHQSKFdZ3t//tP/5Z+YN2MaDQ3rS26nq3zm9/nLvKVufzQ9rkz2etsZX30lncprNP3mLVmR5O41i09e4EdwEgheyyvjsBOwC/EMoZUGgrt8kbrBbRceXsVj/nuC17Upr2d/pUuHFmXpo6JqqzvWzwRN+MxXkv5JghawudKiJVUddgA8pU1E4A8Hz2L9p79n+W/CFjGUxoj7F+adUW36WznUrbDleZPmMW+m4s7xw1124np+Mmu98usd0yYoY9onFJ2kTq42nIoIDAMiaUFe/Snrf/24SVDCS0tYqbXvzbfKjSGSOtgcpQebu8UN64/TaeWofg7fydKR2PmTv2mUt99PZ/DE3LfHLuevtm7dJdgP9bstF0zR6LfYBUsFTo3Z4AoK+wh4GEtl78e+e9nU5VcNt4sML8y9uzfDumd7w72xSWpaZboKb9fXPSMnsHwY9j8dFXp9piOy41C9JiRlrUiGZBkAL2WB/eJmXndJL/+WmhnoGEtrz9PzhxaVovrrUl1e1Pi/J9c9ntRGgFvt/Mz0tJt0AN3noO9m89e3WiP5i+0qmeEjrHhq0ttE2OsBOQZNR3P9m2ACArfpH8z8MZRGjr2b9rZ7RbyirNhwb6v4GLnn8nO6Vy08EK88X4fN9fWtOAaHJhiVPFgbRboDY4YhcAUsCr4ssvbMsFwJvkf17MAEJb3sz0LdUlaXGZ+8cvdmaMH5M330O1yXnz1XsQA1dv8fVOyPFcP3xa0sYiWdIA7sNDJmEvINkstr68Def/dwt7GUBoLb1fn252O9S+VTVm025zwYvjnBlj7cant8qToeKqWnNn1K1+9i+s3Gxc01v5O0zfiUtsgSU/8++j5prLXp4ogT22zUH2Wl/eSuev5//fFRoYQGjtluywddtSckadKO2qqDH3jlngVOtW/bxby5KTXaFn6g9PXubUvLv21akm/0C5c0GAdsXcWVHta/RoTDNjNAjAxjlHg+fLO7UmAOgmZDF40Fq+Om6xU93+9FLWAHl7PN+ht/+LB02w9eXrklRbQbM2xmzebX+OK2OitfZ/NmtN0sYk6NIUxoenLDed+nNvwUGyrE9vxfl/T/kfchk4aA16Y3zkxiKn0rJW7S0zn3pntjPd2nSX4msSZO2tqk3quOiZ+g9nuFW57uphU8z4LXucuhDokrScd2eaGrlIrvXprdgBuJb8f2gNmiv+o9xVKa9U1x5pEZlfzVvv1DhrS9zc7XtTc1FtzwFzyxsznGplq8GRHukgAgD4m3oA17YmALiXQYPWcMPwaWaxOAxXpG+Jc4v2m56D3TnX1LdxNcKpKqus9zieXpBnPuBQ5Tqt4Pha3naOAggA4Hiy4p9vzRHAnxg0aM35qxbQ0fN0V6QOwqW0P+UKefvfUZ7a+xVadfCWN3KdGqd/HTlHxqkKj00AAO/zVGt2AGYwYNBStMHJvuojThmzSVuLnWvP2n/5prSlq7l0DKBO6v+WvOdUCWoCAEgyM1rq/DsItQwYtLToT6ob1CTi7N/P9f5PxGfemZ3yt/9j0iMHfat2abw+NGiCKTzMLgABAHjUWt/eggDgZuEoAwYt4cs5i0x5nTv1/vVc+3cLN5hzHHr7v+ilcfZ2ezqzK7RynUupksqjU5bbCo+IAACsT7+5JQHAwwwWtARtEztju1vd2JYVHzQ3vu5OT3bNu35EHNmeNFdW1CDvf+esdapYkl4InLB1D56bAACaebglAcBzDBS05OLfL8UgHHSoBnvZkXprxM526O1f69zP3LEv/VkTR3UX4IAt8+xS8PTVcYvMbtICCQDAWN/eggCAAkBwWjQ/fMHuUuPKy7/uUkwuLDZXDZvizBjrJUWtbueXbWz9HH9e/J5TaYHa30H7BLiUoUIAAEkrCHRK9Rt5ofymjQwUnIruL+SYZ5ZudCrXuriy1jw4YYlTLVive3WqKUxSvf+2auPBCnPHu7PdqZ0gaDObDaWH8eAEAEFno/Xxp3j7v03YyUDBqYrRNOdZu1PvX9PBRuRtdyrtTysrakEbP2rke0X2lr1L8/apBXmmsq4BL04AEGR2Wh9/igJA35LfUMpAwck4T97+x27e7ZTh0tKwN4+Y4dQ4//NbM22nOD+qoq7e9J2wxKnaAFpC2R5Z4ccJAIJLqfXxp9gBeEKoYKDgZHwlZ5FzZVZ/v3CDU2Os6Xaa9udnLdlzwAaDLo3rQ5OWOdWmmgAAEkyF9fGnCACGC40MFJzw7V8ck6bRuaS1+8pslziXxvl701bajAU/Sy/V/XzWGqfGtWv2WHsRFBEABJR6YdCJnX92Thf5j2MZJDjZZarH565zqrCKftaHJy9zqof5ta9MNXOK9juRXaEXAq8bPs2pefypt2c51bGSAAASzBjr6//x7T/eS/7jfAYITsTtb8007x0od8ZYadpfdGOR+fDLk5wZY61P8OfF+b49+/976VHQkLWFTtVV0BTG8LIC+gQQAASV+dbX/+MFwPhn5T/mMUBwoq1/NfQunZ9qlsJ/jF3oVE8FTVfLdyjIUm0tq7Tj7FJ6pdawWLOvDI9OABBE1oXCsU+f6Pz/fqGIAYK/d0xq4Lc71FjliPdm6lLtei1Y8/Karc4VrNGdFu0WeMngCU7ttPzPnLW+v2dBAABJYIfwlROlAP5I/kM5AwTHo4Zdu/25VO9/86FKc6tDPez1foUGWQdq6px0DAdqjpgHJy516q6FXgz1Q4llAgBIMeXW1/+NsuK6A/A7oYkBguPf/r86brFTF//0mOK3C/KcalqjRX9m7XTbGS0pPmhz7V2a2w9NWmr2VtXi2QkAgoT6+KeFvwkAesi/eJ3BgeO57OVJpuBghVNGKq/0sFOtftUR/XDGqoxwEFptTytFutRrIV6wy6ndLQIASABDhfOPP/+/XIgzMHA8f1yU75SB0lKvfScudWqMr31lilmXIRfSDtXWmV6vuFVz4ZYRM8y+6iN4dwKAIDEqFIlfevz5/8fkX85hYOAYt74xwxQ5VO9fNWpjkVPV6fQyWtayAqeOWE6noesKTef+bjmJ51dsxrsTAASJ3FA4dt3xOwCfENYyMKDoIn9l3TanbqTvlGDlnvh8p9LR7orOc+6I5XTaXVlj7onNd2q+azGjdftJCyQACAxrrc8/LgD4V2E7AwPKV3MWOdXtT8MUfYs716G3/4sGjjfDHAuyWiI9Tx+3ZY+5eOAEpwJevYdRm0E7MQQAcAq2W59/XADwZeEIAwNXDJlkJm51p1663t9asKvUqW5/HfvHbTc9V9P+Tn8XoN72CTjToaMAnfejN3EhkAAgEFSEwtE+zc6/38gz5F88xKCA3or+75mr7WUul5zNL8UwnelQDrqmy03fvjejncV8CcpufH26O0FZVtw8MH6xUztfBADQDh6yvl++OUt4nAEJNlqM5iYx2Esd6vanb2vTtpWYy16e6FTanxrSTG9Le6Sh0bZh1g58LlVjHLq20FaSRAQAGc7j1vfLP7oLzzMgAX/7l4X9p0X5tsGLK9IzWy1U5NI4XzxogtlVURMIh7HtcJUNKl16Pp96Z5YpLKvC2xMAZDr9hK6aAniRfDOSAQk2H3ttmilxrCramE27TBeHiv7oLsuLq7YExmHo/cY38rY7VZVRyxmHl23MuMuZBADwd7xjfb/842L5xTgGJLhoPvokhy7+qfZU1pjeDl38U/5t1NxAlp69z6GujMo52WPMhtJyPD4BQCYzzvp++ebDwmoGJLg8MH6JqaxvcMYQ6THFHxblO1XyV9P+xm7eHcg+9Lk79jmVFqh8Y9JSU8tdAAKAzGW19f3yjyuFfAYkmFz+8iQzY/tep9KfFu0+YG4YPs2pG+bfnrrcuSOWRKm8rl6cxxqnugVqK2kN2BABQIaSb31/KBy9Wr7ZxYAED02de3zuOnPYob7omqL4k5mrTReHDNH1EqxMt0FWMB2HBpeLdrtVq0GzNe4ds4BugQQAmcpW4SrdAbhBaGRAgkfv16eb+bv2G5f80pRtJbZoi0u1FdRwBj21rLq+0TaX0vN1V56d9pV4YdUWw3VAAoAMpF64/lgAwIAEDC2b+/yKTU4ZoO2Hq8yXRi9wapxvfSPXFB4mrez45+dSv4bb35pplpccJAggAMhEbtAA4A4GIlioAf58bL5TZ9J6eU4bFLlkgLTk77B1hXiO4/RW/k7TY+B4p47JfjM/z95jIAAgAMgw7giFsuKPMhDBouuAsWbMJrcuOGmworUKXBrnO96dbSrqGvD6x0nvm3xt3GJbE8Gli7JzivaboLcJIADIMNT3EwAEj/vHL3au89nTCzc4d8Qy0bHaCqnSyr2HTLcBY516nv81YUng73EQAGRiABCJPclgBIcPZI8xq/e51ft848EKpy7+Kd+ZutwcrK3D259AmhXwnSnL3SqV/fwYM2PHXgIAAoBM4klNAxzEQAQl7W+0eXrBBqfeZCrrGuyWsUvlZG96fYZZUXIIT38KFVXU2PRIl9aPpjEWV9YSAGBLMwP1/fLNMAYjGPzL27NMgbxNu/SmqLXkew5yp4qcdr/TKoWc/Z9aWs1x6LpC8wGHugXq7tn/LXnPqYZZBABwugBgKoOR+Whls4Grtzh19q9d2f5j7EJn0sbOyIqZfx05x6zffxgP38Lnq8V2XFlDenHxtjdybVogAQBkRD8A+cdyBiLz0fzrbQ7lo+sxhQYs3QfkODPG2k/+pVVbTH0TNeRbosamo+bt/J3m0sETnXnGZ3uFncpq6wkAwHWWEwAEgMtenmhGbSxyqt7/pkMV5hNvznTq7fCu2Dy2/lspLe2sN+xduuNx7atTzayd+wgAgAAA/H/x7/vTVzrV2UyPKbRHgWtpf8uLD+LR26CFu0vNta9Mdep568XUXRU1BABAAAD+5ephU8xax9L+tNvfeS+Oc2qcvydBFmq7frdwg1MlgrUZ1Yi87YFq70wAQAAAjvHHxe85ZWSq6hvMA+MXOzXGVw2dbNY4FmT5TXsqa81HX3VrF+DWETPM3upaAgAgAAD/cYsYqO2ONaKJFewyF77kztt/5/6jTXhZgalxrLKiHzV0baFza6zf0o0EAOB0ALCCgcg8tHLZq+u2mQaHmtDvLK82d0bnOrUV/O+j5pr8A+V47wSouLLGfGn0fLd2f4ZNNpscqq1BAADHsUIDgG0MRGahDvQbE5eaPZXuXFLS4iq/X7jBqcIw2tVOu9uhxEizVLR/glvdAkebR6YsN9X1jQQA4FohoH0hBiLz0LeSqdtKnDEseo9qwe5Se2Thyhh36h8335y0zJTWHMFzJ1A6nj+btcbuYJFmSwAASYZByLyt/5/OXGPKHGpEo0VV/keMizpVV8ZZW8RO274Xj50Ezd9Vam56fbpTO26aFrijvJoAAAgAIH1og5WlDuWj60vTnJ37zSWD3an3r0VrHp+zLvDtYZMl3U7XplVdHWoZrKW2X8vbbuqbjhIAAAEApGdb+luTlzlVira2sdHm0Ls0zpoDHrQiMKlWYVmlc2mBX4jPz+hdAAIAAgDwewAwaZlT3cqqGxpNnzELnQsAuPmfXG0XR+paAPCZd2ebrWVVBABAAADpq1OuZ6iuSCupxTe5lfuvZ77fmbqCuv9Jku5gPbuswHR/wZ1GUNoGuv+KTRldD4IAgAAAHLgE+KPc1eaAQ7fT91UfMf9v2gqnLgH2HDzRjN28G2+dBC0vOWT+6c1cp9bdXdF5ZmOG1wMgACAAAAe4cuhkkyPOyZW0JP2c07aVmOsc2vLVYOX+cYtt8SKUOJUdqTP/O3edU2mAHxo0wbmiWwQA0BwAhKMUAsrAQkAPTljiVCEg7QD4hBj+Lg4ZmIteGm+GrSvMeMOfSunx1YeHTHIqI+QrOYvMgZq6jH82BAAZVwhoG6WAM5gha91yTpsOVZhPvzPbdMhyZ4w//fYs222REKD92ltVa/qMXuDUGtN6ENq9MggiAMjMUsA0A8rgmgDbHGsGNGzdNtPNofxvbQakrWy1iyFqn7SaXhfHHMxv5ucF5vkQAGRmMyACgAzmKccMVGVdg82ndmmML5O3QJeKL/lRuoXuUvU/5ZpXpmR89T8CAAIAcBg9T13rWK/6OUX7nboEpvSdsAQv3g71X77Jnqe7VAvi5bWFpjFA9z8IAAgAwMHiQA9NWupU2VrNpf7hjFVOjbOWrZ0rgQtqvVbuPWRuGD7Nqed97+gFgXr7JwAgAABH0TSlERt2ONWtrOBghbnNsVzw29+aafZW0x2wNSo7Um++PWW5bavrUprtNIe6bRIAAAFAwNFz9UKHypRqieDnVmwy3Qe4Uw3u3BdyTHhZgVO9GNIpWwWyYJd1qC5t/Wu3zUO19QQA4DqLNQCYykBkPupIX1i12ebbuyKtq/4fYxfaugaujPMn3pxpVpQcwru3QNsPV9liSq6c/XcQbh4xwyzacyCQz4sAIOOIagAwjIEIBre9ketUExs9shiRt930HOROq2C9vPjUgjz6BJxG2rDqlXXbnKr3/4HsMeaZJe851WyLAABOUQhoUMj+g8EIBB37x81vxTm5dCFQ0wK/5tBb4rEz4gW7S/Hyp9Duyhpz6xtu3fHQt//iytrAPjMCgEwMACKxJxmM4KBvMXrr2iVpkxWXysMq/zVhiSmt4ULgyXZ2fjVvvVPPU3d2ZmzfG+jnRgCQcTwZCmXFH2UggoWmMLlWue63Cza45TDEUMYKivD2J5AeQ7lU7VH5ugR0RxqbCAAIADIH9f0EAMFDe5eP3OiWcyqpqjW3jJjh1Dj3ls8bhCYxrZFmd3xn6nKn+j1cNWyymVe03xwNeMMHAoBMDAAisTsYjGCht+q1f7lLrWw1ZeyNDTucenPUewuayojelwaeHxw43plneGb/uHl6wQYudRIAZCJ3aABwAwMRwLTAF3JMv6UbncpZ31VRY9PGXBpnrW/vUuZFMlVcVWv+07G0zjvenW3W0O2RACAzuUEDgOuFegYjePQW5+Ta1mbujn3mmlemOjPGajC/O3WFOXykPtDOQwNNLZJ0TrY7OzgXvTTeDF1biOcnAMhE6q3vD4WjV8k3WxmQ4KHbmz+btcYcrHXnnPqQfFb9zGc71CzoI0Mnm9GbdtljjCBK/9YrSw7ZIkkuHd/oboXePUEEABnIVuv75ZsrhXwGJJhc/vIkM7mw2CnntKz4oLn1jRm2MpsrzuTBiUtNUUV1IB1HZX2DzeLQxlSurIsLXhxnJm0txusTAGQq+db3yz8+LKxmQILLV8YtsgV3XJFWYvvL4vfMOdljnHIor63fHsgqcot2HzCXDp7o1JrQYxuXymYTAEArWW19fygcvVi+GceABBfdTnctZ31PZY1Ns3NpnD/z7uxAbin/Z84ip56TBpbvcXGTACCzGWd9v/zjIvnFOwxIsLliyCTnnNOYTbtMF4fuAuiRxVPz85xqy9xejd2825agduUZ6TFFeNlG09DEvX8CgIzmHev75ZuuQj8GJNhom9PfL9zg1BZ1bWOjeWDCErfSLweMDczbpe7S/Mvbs5x6Pp96Z5ZTbbMJAKCN9LO+P9R/dBf55ucMCFz76lSzcLc7rU71RXr2zn3mspfdOV8+I6v5fLk6w8+Xj3j3NFwq3KT3NDTtL+glfwkAAsHPre8PZed0kF/0ZUBAdwF+OGOVTbVzReVH6m1jmTMd2mbW9sY5m3dntLNYWnzQpv25lKlx//jFZkd5NZ6eACAI9LW+3yoc/YL8iwMMCuhdgIkOpT/pSe3C3aW2VatLOeZfHbfIVsbLRJXV1jvnLHTejy7YFaj7GQQAgeWA9fl/VST2WaGQgQHlS6MXOHUOqib7+RWbzbkv5DgzxufJZ31h1WanSjG3ROpAp2wrMZc71L65s7fzVUPaHwFAUIoAqc//q8LRW+VfLGdg4JhBHLK20CnnpI2N7onPd6rO/CffmmlW7T2UUXXmdVfjq46l/V03fJpZt78MD08AEBQWCTcdHwBcI/9iGgMDx/j4a9PNTscq12mnufMc2gXQlLOnF24wVfWZ02lOOzZ+wKF6/8qzywrw7gQAQWKS+Pyr3w8AsuI9qQUAf8+v5+c5ZaC0mmHfiUudGuNLX55ou81lxNn/kXpz/fCpTo3/LSNmmN2VNXh3AoAg8aZw8fsBwLOjusm/eJGBgb+5rT54gjinQ04ZqfWlh805DhUHUvT2eSbo/5ZuNB2y3Bn3s2wFTC7+EQAEjv6h58ac9X4A0G+kXgR8WjjK4MD7Oetx85WcRU5tUeu9hd8uyLM37V06CsjZ4nZaoDZounLoZKfm9kOTltLtjwAgaBy1vj47J/S3isR+LJQzQHA8Fw8cb15bv82pt6TNhyrNrW/kOleBrtjRrWitG/GdqSuccg5XD5tiZu7Yh1cnAAga5dbX/4MisfuFIgYI/v5N6d7RC8zWskpnDJVWchu0eqvpPsCdC4H6WZ9dutE0OlaDXgNDvXypbaVdGWttfvXLOWvtnQVEABAwiqyv/weF41oLII8BghM5pwErNzvVHlXrGNw7ZoEzY6wV8/75rZlmRYlbdy60ct794xY7lX550+vTzbKSg3h0AoAgkmd9/T/uAMR7yX+czwDBidCyrvkONbHRN9OovJl++GW3CtL8et56m83ggrRj3lv5bqX9aatfbXqVaQWYCACghcy3vv4flJ2jTYHGMEBwsjfU/85dbSoduhCold0enrzMXrJzZZw/PGSSmba9xIk7F5sOVdgiOk7dtXh7llNzmAAAEswY6+tPqHBssPyGegYJTli+9sVxZl7RfqeM1tp9ZfbCl0vj/LVxi5y4nf6b+XlOjaum/U0uLMaTEwAElXrr40+qSOwXwmEGCk7GV3IWOle5Trd8XRrjrtljzVsbdvh6TFfvPeRU1UXlgfFLTB2tfgkAgkvZiTMA3g8A7hVKGCg4Gdpw502fO6e/V1FFjXNb1be9kevbW+rqRL8xcakzrX6VSwZPNPN27TeU/CEACDDFwj0nDwCy4r3lN+xgoOCkdwGyYuaOd2fb5juuqPHoUTNsbaFT46z3Fvot3ejL8dTLlR8aNMGtstbz1puKOs7+CQACzQ7r408RAHSQ37SOgYJTobe+f7dwg1PbqVpkp++EJU6lq101dLJZ7rN0te2Hq8yd0blOXV79tASsmdJvgQAA2sE66+NPqUhsAgMFp6P3iBn2QqArBQL1Vv2ErcVOlatVY/u9aStNeZ0/jgI0qyK8rMAeAzlzcVU+6/MrNtmURUQAEHDGhk6rSKwfAwWno2P/uPnZrDXmYG2dMwbsQE2d+enMNbYSnCvjrAHL6E3pb1ijP35p8UF7N8GZOZoVN18avcDuWiACAIj9/vQBQDj6lRBNgaAFXDp4opmxfa9TfQIW7C41Nzh0IVCPLPTC3e6K9PYJ0F2IJ+auc8oBXPDiODNm8248NwEAqE9X396CHYAbCQCgpdwTn28OO1RTXfsEPL1gg1Mtg7sNGGveeW9nWrex9e3/ksFuXfzTtL8ah8pXEwBAUgMA9e0tCAD0ImAtAwYtfUN9M9+ttMC9VbXmE2+61S3w+uHTbJfDdAVN2hDKrf4VY82WQ5V4bQIAaKbW+vYWKRKbwYBBS9FKe8WVbvVVf1feqM9yaBdAeWpBXlrGSrv9uZTzr2f/f1qU71xnRQIASCIzQi1WOPonBgxac1v9qfl5Tt20Lq9rMP8xdqFT43z+i+NS3pCpqLza1s93aZz+6c1cpxpXEQBACniq5QFAc0VABg1ajF6sW7zngDPGTO8t5u7Ya3oOnuhUTvujU5anrP6Cdsz7o7xJd3Wo29+FL40zw9YV2mMLRAAAHlnxz7cmALjWKxvIwEGLOLN/c856Wa07FwK11K6mMro0zj0HTTCxgl0pGZ8VJYfsXQmXtv/vG7vQbCPtjwAA/r4E8LWtOQLoKeQycNBa56Rn640OpQXq7fZ/csjJ6ee8KzrP7Eiyk9Pg6Ee5q92qnDhsshm3ZQ/1/gkA4HjUl6tPb8UOQDchi8GD1tJnjFuFV/TeQtayAtN9gFvV7fqv2GRqG5OT4qYB3HhxpJe9PMmZMekijukH01eaSur9J0W1DY3mkSnLbY8K7JxzZFmf3ooAoJPwXaGBwYPWcE72GDNo9Ran+gRoet3nRs116m1X6/FvPFiRlPE4VFtnvjt1hVPzrtcrU3zXN+G091AEbVBUVFHta7aWVZrX1m8zVwyZhI1zjwbPl3cKtUqR2N3CXgYQ2nIhcEuZWznYozYW2Vv2rozxbW/mmlV7k9PgpqSq1hZ4cmnO/X7hBufq/b+Vv9PcP36xHWs/8+8SHF/+8kQJkLFtDrLX+vJWKxy9Sf7HxQwgtKU40K/mrXfKGGvFuC86UuxGt2F/MnN10vow6A36l1Zvcea8V4skaXEnl1RwsMKpxlTgLIutL2+1suIXyf88nAGEtqAd4xbuLnXKKG8So/wBn6e86SXAW9/INYuSPLY6Fl+Ut78OPn/r02JO0Y1FTvWjqK5vNF/JWeTUkRM4y3Dry1ut7By9B/C0UM8gQluqsfWduNSeJ7t0IVB3Ljr62DB3HTDW/GlxvqlrSv4dC+0/0NPH9f/VgT4oc8ylt38NVF5dt818cOB47AQkm3rrw9WXt0nhaF/5A/YwkNAWPjRoghmRt92ptMC80sOm9+szfDumd7w72xSWpSbLYn/1EfPNSctsjQc/jsWVQyaZyYXFTr39692YL42ez9s/pII91oe3WZHYbcJKBhLaugugTWQ2O9SURe8CPL9ikznbh30C1GmM3rQrpeMxf1epuexl/1VL1PsJ/5272qkdplpvbrmUcgpOs1To3fYAIBw9S/6AsQwktBU9U1ej51JpVn1L++Jo/92C19S/2hS3t21oajL/O3ed7wolffy16Um/B5GM3aVPvDkTuwCpYkwoK94l1C5FYr8QyhlMaCsfE2OtOdqubNTq59QOeH568+0xcLxZufdQWsZDqwJe7qOx0KDymSUbndr6r6xvME9IIMXWP6SIcuu7261w/LPyB+1iQKE9/HTmGlNV706VNq0o98hkf5x/62fQbovprHKndzn8cizy6Xdm26DEJc3euc+pOhPgPLus7263IrHzuQcA7UW7tLmWFris+KC8+aa/+tkn35pp1uwrS+tY7K2uNX3GpL99sp79j9+6x6l5pIHvf4xZiB2AVLLS+u6EKBwdwoBCe9ELgS7dBTiWFpjOMev+Qo6JLC9IWt3/1oyFXkBMd/vk+8SRVjc0OhUARAt2me4DxmIDIHWoz06YwtEvyx96lIGFduWwZ481775X5JTxLq6qNR9OYw10LcPql+ZKpTVHzA9mrExbQ5jzXhxn5hTtd6rb387yavPZd+f4vqASZBRHrc9OmJ4f213+0DoGFtqLtt7VBiNOFW5Zv812m0v1WF0ib9vjfdbeVo9xbhkxI+VZARp0PL1wg1Pd/uqbmszTCzb4vrokZBx11mcnVOHoAgYWEnGD+zfz81KeztbeXYAHxi9O6Q1udbDfnLTUd0cmWoHwj4vybUXCVAeOy0sOOTNnNEFhbtF+c9Pr01n3kOrt/wWhhCsSe4rBhURws7xBunQhUM+/czbvTmk7VE3721Ba7svxKCyrNJ95d3bKxuKCF8eZ7BWbnGoxrY2atGFTR9L+IPU8nowA4DMcA0Ci0tp+OmuNOVDjThU3LYv7/ekrU9YhT3PG/ax4wa6UnGvrz9ACSDvK3To2mratxFw6eCLrHVK//R+JfTLxAUA4elkoHFvBAEMi6Dlogpm1c59xpZaLfs6ZO/aZ616dmpLtbu3G52dpyeTPjZqbkrf/ke/tdKroj9Yo+HLOItY5pGH7X3y0+uokBABd5Qc8QzYAJCyla+xCe7PcpTe7PyzKN+dkJ68gjrZR1qI79U3+3+7WM/mLXkpuV7v/mrDEqWZSqjc37GDrH9Jz+199tPrqpCgc+4L8gEMMNCSKV9Ztc8q4a0rep95Jzvm3Hi88PHmZM1kSeiNfb7knq0Lg5UMmmTyf3oM4mUqqas2VQyeztiEdHBAffU8oaYrEbhIWMdCQKLRPwO7KGqeMvOaiPzZ9lfm6vJ0mCu1rr+f+6ar33+YLgRIQ/W7hBpuxkMjx+H/TVphYwS6ntv71sqhmuPi1fTJkPDPl7f+65AUAWfFz5YcMYqAhkRcC1YG4Jq1Gp+mBiWJf9RGnUiP/JjWwscke5SRyPCrqGoxjO/9m8Z4D5rrhU1nXkC6ekwDgnOQFANk5HeSHfFvYz2BDorh++DSzYFepQchVldXW2V2LM5/j7R/SgvrkR0JJVyR2o7CEAYfE7QLEzffEeFY4VOUNoWPSS4rvvLcz7X0SINAssb456crO6Sw/aLjQwKBDotCc6bfydzhx+x2h47XtcJW5d8wC1jGkiwbrk9U3p0SR2ENCKQMPiaSPGNFtPml8g1BL7z8MXL0lqamhAKeh1PrklCkrfoX8wM0MPCQSbX07eM1Wp0q+omBLu/19bPg01i+kk83WJ6dM2TlnyA8dQVEgSDQff226U2VfUbD1q3nrKfoD6S7+M8L65JQqErtXaOIBQKJrvz8+Z61z1d9Q8LRozwHTfUAO6xbSSaP1xSlXds458oNLeACQaLS87NLig3gY5FtpvX8tWHQGb/+Q3tr/26wvTosisQgPARKNbql+ffwSc6i2Dk+DfCfdnXo9b7u5eOAE1iukm0gobYrEPiVU8BAg0Vw8aIJNC0TIb9p8qMJ8afR8zv4h3VRYH5w2haMXyweYxoOARKNbq/eNWUhaIPKVjjQ2mRdXbTHnvcDZP6SdnFA43iN9AUC/kWdKEPAYRYEgGWiXuciyAmt0EUq39FrqsuKDNlOF9QlpL/4Tjn0/1G/UmaG0KhK7VVjBA4Fk8E9v5NoOeeQEoHRL2x//ZOZq1iX4gWXCzaG0KxI7P9TcIZCUQEgKP5u1xlTV0ycApVfzdu03F740jjUJ6aZJ3v4HhMLR7iFfKBx7UD5UMQ8GksEFYnS11SpC6Tz7/2J8PusR/ECx9bm+UTh6mXyoXB4MJIt7xPgilC69+14R9f7BL+Ran+sb9RvZQT7Qn+WDVfNwIFkXAjUtkLsAKNXaVVFjbn0jl3UIfqDa+lr1ub5SJHaLsIUHBEkpESzc/tZM23wFoVSptqHR1vvn7R98whbra30n7UUcjsVoEATJQuuu/2lxvqkRo4xQKrRgV6np/foM1h/4o/GP+lj1tb5UONqHbABIJr1HzDALdpfimVDSdaCmzqb9ndl/NGsPfHL7P3pXyLeKxM4W8nhQkCw6Pzfa/HLOWvoEoKRKm1Hm7threg6i3j/4hrxQv5GdQ75WOPpDdgEgmfQYON5M377X0DEYJUt7q2rN3dF59u4Jaw588fYfiX0r5HtFYpezCwBJTwuMzTP7q4/gqVBSNHRtIesM/PX2r77V98qK6zHAr4VGHhokiy7PjTZvbqBbIEq8dlfWmOuGT2OdgV9otD5VfavvlZ3TIRSOfUY+cD4PDpLJx16bRlogSqjqGpvMUwvyTKf+tPoF35Bvfar6Vif07CjtDzCEBwfJRG9n/3FxPl4LJUxzi/abj746lfUFfmKI9anOqLky4H3ywbfy8CCZXPPKFGu0uQ+I2itN+3t48jIJLHn7B9+w1fpS31X+a1mXwFHcBYBk7wI8MmW5Ka3hQiBqu+qbmuydkksHT2RdgZ/O/kdZX+qkIrGHhVIeJCSTK4ZMMtGNRaahiX0A1DYVllWZe0cvYD2Bnyi1PtRZhaM95C+whAcJyeSMrLj5z7ELzbbDVXgy1Gppq9+Bq7eY7i/ksJ7ATyyxPtRpRWKPURgIks052WPNsLWF9hY3Qq3R1rJK02vYFNYR+K3wz2Mh5xWJdRY28UAh2ejt7R2kBaJWqOnoUfPL2Wup+Ad+Y5P1nRmhSOxRoY6HCslGjXkjNYJRC7Ws+KA563la/YKvqLM+M2MUifUUFvJgIdmc/+I4s3rvITwbOq20odT94xfbOySsHfARC63PzKAAQI8Bvi9U83AhmXQUY/7QpKWmqr4BD4dOKU37++DA8awb8BPVnq/sHMooRWLXCbN4wJBs1Ki/QZ8AdAoVHKww98Tn8/YPfmOW9ZUZp0jsDOHHQjkPGZKJXui6MzrXrN1fZmobGm1mAMAx9lUfMU/NzzNnc/YP/qLc85FnhDJSkdhVwnThKA8bklshMG5ueyPX/G7hBpO9YjOAJbxso20l3fm50awT8BNHPd94VSijFYn9VCjjgQMAAFjKrG/MeEVilwhLeeAAAACWpdY3BkKR2A+oDggAAGB94Q9CgVFzWmABDx4AAAJOQeal/Z2+UdAD8peu4uEDAEBAqbK+MHCKxC4UYkwAAAAIKDHrCwMYAHQU+ghFTAIAAAgYRZ4P7BgKpCKx80Lh2AD52sBkAACAgNDg+b7zQoFVdo7eBbhDBmEtEwIAAALCWuv71AcGXpHYb4VKJgUAAGQ4ldbnob8GAL1CzS0QKREMAACZylHP1/XC8f9tEPCI0MgEAQCADKXR+jr0d8qKdwuFo7OZIAAAkJGoj1Nfh06gZ6N3hsI0CgIAgExz/uLb1Mehk1YH7C4D9SJpgQAAkFFpf+rb1Mehk6YFdghlxW+XgVrJhAEAgAxhpfVt6uPQKe8CnCWD9ROhlEkDAACOU2p9mvo21KKMgJ6hcCwnRMtgAABwlybPl/XEsbfmKCAS+5xQyAQCAABH2RIKR/+Frf+2VwisYxIBAIBj1IWo+NcO9Rt5bigcW8xEAgAAx9L+FlsfhtqVGnifDOYBJhQAADjCAeu7ULsDgK4ymP2ZUAAA4Aj9re9C7b4HoBcCe4doFgQAAP7mWLOf3tZ3oYRkBXSSwXxUKGGCAQCATymxvkp9FkroUcAHZWBfFmqYZAAA4DNqrI9SX4WSUiXwRhngVRwFAACAz7b+V1kfhZJ2FNBRBrmPUM+EAwAAn1BvfZP6KJTUS4GdQuFotnxtZNIBAECaafR8Euf+KQoCeghTQ/QKAACA9NHk+aIeOObUVQjsKBHXXTLoBUxAAABIEwXWF6lPQindBegm/EooYxICAECKKfN8UDcccnqyAi4NhWPjOAoAAIAUX/qLWh+E0pYV0CEUid8iD+I9JiQAAKSIfHH+N9Pm1x/HAX2FciYlAAAkmXLrc5CvKgUOlYfSwOQEAIAk0WB9DfJbABC7RpjMBAUAgKSgPkZ9DfLdDoBWCbxT2MBEBQCABLPB+hj1NcinVQIjsUeEPUxWAABIEHs830K1P59nBnQOhWN/kAdVyaQFAIB2Uml9ivoW5MROwAXC29QHAACAdqA+5HXrU5BLdwLiH5WHtoIJDAAAbUR9yEdwqG7uBNwrlDCJAQCglZRYH4KczQw4S3hMHmIFkxkAAFpIhfUd6kOQ00GA3geICFVMagAAOA1V1meo70AZEQT0kgcaE+qY3AAAcBLqrK9Qn4EySFnxT8qDXSIcZZIDAMDfcdT6CPUVKOPqA3SUqO5zobDt4cxkBwCA92n2DbdbX4EyUP1GarngrwtHmPAAAOA5/8PCA7T3zfzUwLOFJ4RDTHwAgMBzyPMJZ+MgA3EpMH6RPOxwqLmvMwsAACCYlFtfoD4BBSoz4CO2rzPpgQAAwUz3Ux+gvgAF8jjgann4uWQGAAAE7MZ/s+2/GkcY3MyADqGs+OUyEVYQBAAABMb5L7e2n0t/KPRs9MZQOJYfonsgAEAm02RtfVacN3/016OATjIp7pavq1kgAAAZ6/xXera+E44PHR8EdBb6CttYKAAAGccWm+uvth6hEwQBXYXvhGghDACQSZR4tr0rjg6dKgjo4u0EUCMAACAzcv37WtuOUAsDgW8IpSweAABnKbW2HKFWKRw9W3iSIAAAwFHnrzZcbTlCbQgCegh/JggAAHDO+f/Z2nCE2hkEPCMT6jCLCgDA9xy2NhvnjxIUBHQV/iITq5bFBQDgW2qtrVabjVCCA4G/sBMAAODbN/+/4KhQMncCnuFOAACA7878n+HNH6XiTsBTMuF2s+gAALjwh4IVBJwnk+57QjGLDwAg7al+OH+UQjVXDHyQioEAAGmr8PcN8vxROgOBviF6BwAApJISa3sR8sFOwMNCfkjbTbIwAQCShdrYLaHmxj7U9kc+UFb8LJmM99le0wQBAADJcf5qY5tb+nLbH/lqJ6CzTMy7Bd0JOMpiBQBIGEetbVUbq7YWIR8GAZ1Cz0ZvDIWjKwgCAAAS5fyjy0NZ8autjUXI50cCl8uEnSaTtYrFCwDQZqrEluZam4qQMwpHLxMGygQ+wCIGAGhDml84OlS+Xh3KzumAU0GuBQGXyOT9HUEAAECrOCSExYZ+BEeCXL4XcL7wzVDYTmgWNgDAqQjbhmtPhMLxi3AgKBOCgDOFrwl7uBwIAHDSm/5lXpof1f1QBknPsCKx24XFIe1ZzWIHADhGnbDE2kjO+1GGBgEdZYLfKrxLhgAAgHfTPxKLhbLin7Q2EqEMvxzYSyZ8RKhg8QNAgKmwtlBtIkIBCgIuEB4L0UgIAIJJibWBagsRCmAQoD0E7hVW0EMAAAJT07/Z5t1rbSBCwQ4E4h+VxfC2UIlxAIAMRm3c6wL5/Qj9VZHYBaFw7A9eqiCGAgAyjT2ejWPLH6F/UHZOZ1kcjwgbMBYAkEFssLZNbRxC6KQ7AZ2EOyVSnixfGzAcAOAwDZ4tuzNEJz+EWnQ5sKMsmmu8RhjlGBEAcJDmZj7Ntoz8foTasCPQV3iPLAEAcIR6Id/aLoRQe4OA+C0SRY+TBVWGcQEAH6M2KhrKit+M4UYoMZcDO8iCulQW1q+EAnYDAMCHuf0F1kapraKeP0IJPw7oFgpH75KvU4VGjA4A+IBGa5OabVM3DDVCyVK/kdpQqIcstmzvrI32wgCQDo5aG9Rsi3pY24QQSslugKYL9hFWCTUYIwBIITWe7elDeh9C6bkb0DGUFb9RFuDLXlMhdgMAINlv/SXW5qjtoX0vQmlWOPpBWZCPCgsxUACQRBZaW6M2ByHkm90APRLoLfQXDmCoACCBHPBsS29raxBCvrsX0EEi867CfaFwbLH8ug7DBQDtoM7aEmtTxLaojUEI+Vz9Rp4ri/W3QiF1AwCgDXn9hdaGqC1BCDm5K/A5ieBz5GspRg0AWkCpZzM+hwFFyO27AR1kIfcUfiKspMMgAJy0c1+zjfiJtRlU80MoQ5QVP0u4XRb2ixLd01MAAN6n2Sa8aG2E2gqEUAbuBoSj3UPPRu+Ur7O9Ep7UDgAIbk5/o7UFzTahO2/9CAVjR6CbLP5HvLzeSowhQKCo9Nb+I9YWIIQCqEisl5ctsJb7AQCBOOdf6635XhhAhJBWE7wjFI4NEKNQhJEEyEiK7BrXtY4QQsfdD9DdgPO85h4xoQqDCZARVHlruo9d47rWEULoBEcC2m74QnlLeEC+FlBECMDpYj4F3lq+0K5thBBqYTDQWfiBsFQoI2MAwImb/WXemv2BXcMIIdSOQOAS4afCdKEcIwvgS8q9NfpTu2YRQiiBgcBVwo+FWUI1BhfAF1R7a/LHdo0ihFCSgoAzhOuE73t5xHQcBEhXp77mNfh9b02egYFCCKUiEOjs9Rh4VNjEZUGAlF7u2+StvZ6c8yOE0h0MPCYs8boONmKkARJKo7e2lnhrDaePEPKRwtEeYpgeFkYJWzHaAAlhq7emHrZrDCGEfLwjcL4Yqvvk6xAhnx0BgDa98efbNdS8ls7HsCCE3FC/kR1Cz46SQCD2GTFevxbyuCcA0KLz/Ty7ZnTt6BrStYQQQs5J24tmxc8Wg3a5vMn88LhAgKJCAO8X7znm+L9l14quGVrzIoQybGegswQCd8nbjdYm30I9AQh4/v4WuxZ0TejaQAihAOwMaObALWL4/ixfc4VijgggIFv8xXbON8/9W+xaQAihAO4IdBBDeJm8BT3otSNe5vUsx1lAJtFg57Ztx6tzXeY8Z/sIIeQpHO0uRvJmMZBa2SxHqMBxgONU2LncPKdvtnMcIYTQyXYFRp0ZCse1psCnhIhQwsVBcOxCX4k3dz9l57LOaYQQQq1Uds45YkjvFUYIm72KaBwTgJ+290u9uTnCzlWdswghhBIWCJwRyopfIQb2IWG4VxZ1Pw4I0sR+bw4Ot3NS56bOUYQQQkkNBjSL4Ebh28KLwkzhAMcEkOTt/QPeXHtOeMTOQW7xI4RQWgKBDmKEu4XC0etC4dg98v0z8nUFbYohoW13m+fUM3aO2bkWZYsfIYR8pXC0q02xitgSxE/J9wu8YICdAWjNm36dN3ceFz7ZnKoqcwshhJBDen5sdzHeXxa0OdFKYZdQjqMDj3JvTqy0c0Tnis4ZhBBCGSTbqTD+Wfn6C2GsFxDsEepxhIGh3nvmS4Uxdi40zwk67iGEUCAUjp4lRv82+dpXvj7t3eZeLOwlzTDj0vT2es92uH3Wzc+8dygr3oWFgBBCQVZ2TidxBheJY7hJHMPdwneFLPn1sT4FOFK3KPaeXZb3LO+2z1afsT5rhBBC6ISKxDp52QU95eu1trhLOPon+TpDqOVSoa8u7B31nskMe/EzK/55+8yan103+ywRQgihBAQHHWxd90jsYZsPHrbdDDcKO72KcFr/vRHnnNAz+zJvJ2aHsM67v/F7cfJf8epB0FgHIYRQGtRv5IXefYJvydcnvLNmdVLzPYe1w7ttzs7Bqd/mdYyKhDxv7MZIgDVYvv5YuEfe7vXcHmePEELIx8rO6RKKxHuJA/u0OK+veE5MLxsOFUbZnvCR2Fphe8A6H2o1va3CImGS8KZXzfFpb4zub76VL2OnY4gQQgg5r0isORUxEr9UAoPr5PtPCP8q9PF6HGjhmX7CO8I4YbWQ7znMeke267d6n3m193d4x/s7/VzoGwpHvyBfNe3uJvn+avl6cejZUd1C/UYyPxBCCAVQ/UaeIc5QUxO1mqFmJFws339YuFK+v0q+Xi/cINwRyoo/aonEnpT/NsjS7GyXn4QVLWyctN/7vSf7c8Yd9/OePO5z3OF9tuu9z3ql/ez6d9C/i/6d+o/uYks3I4R8of8PdcumCbTLXjsAAAAldEVYdGRhdGU6Y3JlYXRlADIwMjEtMDEtMjlUMDg6MzY6MDQrMDA6MDD/of1LAAAAJXRFWHRkYXRlOm1vZGlmeQAyMDIxLTAxLTI5VDA4OjM2OjA0KzAwOjAwjvxF9wAAAABJRU5ErkJggg==;" vertex="1" parent="WavSGEP2uycEWBqPC76q-11">
          <mxGeometry x="8" width="42" height="42" as="geometry" />
        </mxCell>
        <mxCell id="WavSGEP2uycEWBqPC76q-10" value="&lt;font color=&quot;#000000&quot;&gt;Keycloak&lt;br&gt;Instance&lt;br&gt;&lt;/font&gt;" style="text;html=1;strokeColor=none;fillColor=none;align=center;verticalAlign=middle;whiteSpace=wrap;rounded=0;" vertex="1" parent="WavSGEP2uycEWBqPC76q-11">
          <mxGeometry y="42" width="60" height="30" as="geometry" />
        </mxCell>
        <mxCell id="WavSGEP2uycEWBqPC76q-12" value="" style="group" vertex="1" connectable="0" parent="1">
          <mxGeometry x="240" y="470" width="60" height="72" as="geometry" />
        </mxCell>
        <mxCell id="WavSGEP2uycEWBqPC76q-13" value="" style="shape=image;verticalLabelPosition=bottom;labelBackgroundColor=default;verticalAlign=top;aspect=fixed;imageAspect=0;image=data:image/png,iVBORw0KGgoAAAANSUhEUgAAAgAAAAIACAYAAAD0eNT6AAAABGdBTUEAALGPC/xhBQAAACBjSFJNAAB6JgAAgIQAAPoAAACA6AAAdTAAAOpgAAA6mAAAF3CculE8AAAAB3RJTUUH5QEdCCQE7djyZAAAAAZiS0dEAAAAAAAA+UO7fwAATwlJREFUeNrtnQmcVcWV/x+CoAZwJQaXaBSNmigukziTxMxk1JhEnMmiGUyMmuSfmGWyzqhJjNkdfK/RRgUEFMUV3ntAs2/Nvu9b09IszdJAN9BA0zu9Uf9zqi+RJCy9vOXWu9/f5/O1G0X6UbfqnHOr6pwTCiGE/KF+I88IhaNnhbLiXYWLhIvl1x8ORWJXClcJ1ws3CHcIj1jC0Sfk9w2U74cKU4Tlp2CbYE7DttP8GVPsz9KfqT/72Odo/kw3eJ/xKvuZ9bPr36H576J/py6h7JwOPGiEEELBUySm9BBneJlwgzjJT8iv/1W+9pGvDwmPC/8nvCPkCKuEDcJWob4FDjzd1HufdYP32XO8v4v+nX4u9BW+IHxWuFW4RugZenZUNwmAmB8IIYQyQM+P7SLOrZfwKeHL4uR/JF9/J7wuxIQ5whrvrbvCAeeeKEqFQm9HYarwtvCi8LQ3Rvd7Owq97BgihBBCvlW/kRfaN9qs+LG3+FeFscJ8YZ2wXSgXmgLk6FtLkzdGRUKeN3ZjhEHCj4V7hJsEjhEQQgilQeqAIrGb5W31W/K1vzBD2Cjs9N5u9W2+EYee0GOFMqFY2CGslbHXwOD3EnB9Wb7eSFCAEEIoUU6+kziZbvZ8OhK7VhzNl4Q/yvfThVrhKI7ZFxz1qLXPRp+RPit9Zvrsmp9hJyY0QgihEys7p5M4Cr2trlvMdwvfFSLe2/0eHK1z7PGeXcR7lnd7z/Yi+6wRQggFWFnxs8Qh3ObdTH/aO7dfJOwVGnCiGUOD90wXec/4ae+Z32bnAEIIoQAoEjvf3jAPR3/hXdJb4b0t1uMoA3WnYI/37Md6c+EOOzcQQghlkJ4f213e9P5TDPwQz+jvEg7jCMHjsDcnVtg5onNF5wxCCCGHpBXnIrHLhE8Lv/FSyeq4tAetvFhY580dTen8pJ1TOrcQQgj5RFpaNhI71ytD+3nhL16BmSM4MkgQR7w59Rdvjt1g5xxljRFCKC2Ov3MoHP248KhXKGaul4PPmz4kc2eg1Jtrg+zc0zmocxEhhFBSnf4ZYnivEKOr1faGC0uE/TgmSBP7vTk43JuTV9g5ihBCKGGO/xwxsPcKWkN/s/cWRpoe+CnNsNTOTZ2jOld1ziKEEGqlnh11phjTi70mOmGvBGwT2/vgyDFBkzdnw94cvtjOaYQQQidROHq+cIvwmNclrgKHAo5TYeeyzulw9OZQVpz0QoQQsuo3soO8HV3mVWYb6OVis70PmXhMsEwYYOe6znmd+wghFDg13+K/WYzhn4VcrzIbrXIhCC2P93hz/s92DZBFgBAKhCKxs4U+QlTYIlTjFCCgVHtrICqBwF2hfiMJBBBCGfWm38E6/XD0cvn6AyGPC30AJ7w4mGfXSPNaOZtCQwghN6Xnm3qpLyuuJXl/Ld+vZ4sfoAVHBM1r5dd27ega4q4AQsihbf7zvW1+bb6zgUt9AG26NLjBW0N96FSIEPK3suI9xFB9SxgpbMWIAySErd6a+pZdYwgh5BuFo529POclXkW0Row2QEJptGtL11jzWuPCIEIorU6/p9cQpYDzfYCU3hMo8NZeT4IBhFCqHP8ZwnXC94SFXt90jDJA6qmza7B5LV5n1yZCCCXJ+V8l/FgMz0zy9wF8VU9gpl2bukYRQiiBjl+3GX8iRma6cBiDC+BLDts1qmtV1yxCCLXD8R+73LdUDEsZ5/wATpQaLrNrlsuCCKFWKRLrKFwohuMBYSM3+gEczhzQNaxrWde0rm2EEPoHZedoHv95XtGRmFCFAQXICKq8Nd3HrnFd6wgh9Fdlxe8QA5EtFGEwATKSIrvGda0jhFAoHO0lPCWGYQ0lewECUWJ4jV3zuvYRQoF84+8mhuARQXP5K+nOBxCo7oOV3tp/xNoChFDGn/N3kMXeXSL/O2Xhz/Yu+OH4AYIbCDRaW6A2QW0DLYgRysg3/rNkod8uvOCl9GEAAeAYZZ5tuN3aCoRQxrz195SFrYV8VnLODwCnuB+w0toKtRnsBiDkuMLRz8mCzvG69GHkAOB0lFqbobYDIeSg+o08Vxax3u4vpIIfALShomChtSFqSxBCPlck1kHoGsqK3ydfF9GpDwDa3XFQbUmzTelqbQxCyHdn/Z1C4WhvWaD9hQMYLgBIIAesbVEbo7YGIeSbc/4PCprTvwBDBQBJZIG1NWpzEEJpfevXxj03Ci8LJeT0A0AKageUeDbnRmuDEEIpP+/XLf8+gqbt1GCYACCF1FjbozZIbRFCKAXqN1Lf+nuEsuLauKeet34ASONuQL1ni3pY24QQStpbfzeJuO+Sr1O9Ep4YIQBIN43WJjXbJvoKIJTgs35N77tU+JVQQF4/APiwbkCBZ6MupYogQolSVvwWWVTjhEMYGgDwMYdC4ego+Xozhhuh9ioc7SuLKZ+3fgBwhHprs9R2IYRa7fT1ot81wlChHIMCAA5S7tmwa6xNQwid1vl3sr25I7HJdO4DgAzoMDjZ2jS1bQihk1726yyL5WEhD8MBABlEnrVtauMQQn+nSOwC4Q/CHowFAGQgezwbdwEGH6H3nf9HhbeFSowEAGQwauNeFz6C4UfBVlb8bOFLshiWc8sfAAJUM2C5Z/vOwhGgIF720y3/nwvFGAQACCDFYge/b20hQgF68+8lkz8iVGAEACDAVFhbqDYRoYyWts7Mit8qE/4doYrFDwBgbWFU+CTthVGmOv8O4vxvl0m+SKhl0QMA/JU6YUkoHP03ugqizFIkdqbwNZncu0O07wUAOBFHQ839Tu4XzsZxoExw/ucL3xQOssABAE5LmfCEcBEOBLl82e8SmcS/Ew6wqAEAWoy+MD0rXIkjQS6++V8mvITzBwBoE9pMaIi8SF1t71Ah5IT6j75cJu40bvoDALQ7Q2CGtakI+fytv5Pwz8IKLvsBACTscuAyuxOgNhYhHzp/7eR3t5CP8wcASHgQkO/ZWDoKIh8pHD1HJuWXvTd/avoDACSnh8Bqoa/QFceD/PDm30V4VCjA+QMAJJ1twnes7UUozQGARqMlLEoAgJRRYm0vQml883/QS1VhQQIApD5N8Bu2rTpCKVNW/DyZeN8L0coXACCdlFI1EKXyzf8i4SlhN4sPAMAXQcCfCQJQsp1/V+Ev3oRj4QEA+CcI+AvZASiZAYBOsMMsNgAA33HY2miEkvTmX8siAwDwLbXsBKBEn/nz5g8A4NJOAHcCULsUjp7nXfjjzB8AwK07AU+GwvHuODLUljf/Ll6qH7f9AQDcY6fwXSoGorYEAA+S5w8A4DTF1pYj1Io3/75U+AMAyJiKgX3ZCUCnO/PXrn6PhqjtDwCQSahNfziUFT8LR4dO9ObfOdTc0reAxQIAkHFsEPpYW4/Qcc6/k3C3sCJES18AgEykybPxd1ubj5AXAPyzkI/zBwDI+CAgPxSO3ojjQ6FQ/9GXe1HhURYHAEDGo7Z+ubX9KNBv/pcJ03D+AACBCwKmWR+AAnnj/xJ5+C8JVSwGAIDAUWV9gPoCFKg3//OF3wkHWAQAAIHlgOcLzscxBsP5nyl8E+cPAACeL/im9Q0og5Wd00Ee8teEg0x6AADwOGh9g/oIlJHOv2MoK357KByluQ8AAPwt6hvUR6ivQBmmrPit8pAXceMfAABOkhmwyPoKlFE3/nvJg31HqGWSAwDASai1vkJ9BsoI53+BPNAI6X4AANDC9MCI9R3I6W3/s+VB/lyoYFIDAEALqZAA4Pvyle6BDgcAX5IHWMxkBgCAVlJsfQhyces//tFQc41/JjIAALSF5cJHcKhuFfvRc/+3Q3T3AwCAtqM+5HXrU5AT+f6d5WH9Qahk8gIAQDuptD5FfQvy9Zt/J+FhYQ+TFgAAEsQez7d0wtH6M92vozycO4UNTFYAAEgwG6yPUV+DfPf2f40wmUkKAABJYrL1Nch3AcBQoYEJCgAASaLB+hrkK+ffVyhncgIAQJIptz4Hpf3Gf4dQVvwWeRj5TEoAAEgR+db30D44rW/+lwrjyPcHAIAU1wcYZ30QSovz7yb8SjjEZAQAgBRzyPNB3XDIqVS/kR1D4ehdMvAFTEIAAEgTBdYXqU9CKXv7v1iYw9Y/AACk+ShgqtADx5yqan/h6ACcPwAA+IBG8UnZIaoEJv3Wv27995GBrmfSAQCAT6i3vkl9FEqSsuI3ykCvFI4y4QAAwCcctb5JfRRKgsLRD8oAvyzUMNkAAMBn1Fgfpb4KJXTrX8/9H5HBLWGSAQCATymxvkp9FkrIpb8OQm9hIVv/AADg86OAhZ7PokpgAgKArkJ/JhYAADhCf+u7ULvP/u+TgTzAhAIAAEc4YH0XalfFv3NlIBczmQAAwDEWWx+G2rz9/5RQx0QCAADHqLM+DLX61r9e/PucUMgkAgAARym0voy2wa168+8p5IQo9wsAAO7S5Pmynjj2llX7O0sG6ydCKZMHAAAcp9T6NPVt6LRb/7eHmsv9MnEAACATWGl9G0cBp0z56y6D9KLQwIQBAIAMocH6NvVx6KQBwJ0ySGVMFgAAyDDKrI9DJzz77yaDM5tJAgAAGYn6OPV16B9u/j8iNDJJAAAgQ2m0vg79jfPvFaLZDwAAZDbHmgX1wvE33/zvHApH/yADUsnkAACADKdSfB4VAsX568W/z8qArOXtHwAAArILsFZ83x3WBwZ46/88IZu0PwAACFhaYLb1gQF1/h2FPkIRkwEAAAJGkecDOwYxALhQiDEJAAAgoMSsLwxg0Z8H5C9exQQAAICAUmV9YcDe/vXm/0YePgAABLw40EbrEwMUADxG0R8AAADrCx8LivO/RCKepTx0AAAAuwuw1PrGAJz9/zREwx8AAIBjlFnfmOFv/1cJ04UmHjgkmxtfn27+d84603/FJvP8is0A5tllBebzsfmm83OjWSPgJ5o833hVpjr/MyTC+bF8LedhQzLpINzx7myzrPigqWloNHWNTQCWI8KB2jrzp8X55uznx7BewE+Uez7yjEwMAK4TZvGQIdn0GDjevJa33SB0MhUcrDD3xOebM7LirBnwE7Osr8y4tL9I7HtCNQ8Ykoka9P8cu9AclLc8hE6lNzfsMB+UYJF1Az6i2vOVGZQWGI72DDW3QOQBQ1I574Ucs2BXKd4NnVaHJEi8f/xidgHAbyy0PjODdgAeFep4sJBsfjhjlWk8ehTvhlqkpcUHzVncBQB/UWd9ZgZV/SvgoUKyufzlSaawrAqvhlqsJgkWfzl7rb04yhoCH9UFKMiMY4Dmqn+k/UFS0be4IWsL7U1vhFqjLWWVptewKawj8Fta4GOun/33EJbwMCHZ6I1uNeQItVaaGvjiqi3mA9ljWUvgp12AJdaHOvz2/y2hlIcJyaTnoAnmjQ07TEMTZ/+ojbsAhyptgSDWE/iIUutDHXX+5wsjQzT9gSTSMStuvj5hidlXfQQvhtqs+qYmmxZ46eCJrCvwC42eDz3fLeffb2SHUDh6n3zwrTxESCZ6djunaL/h3R+1VwdqjpiHJy8zZ/YnLRB8w1brS9WnOqNnR+nb/xAeHiSTTmKon5y3Hs+FEqa5Ekx+9NWprC/wE0OsT3VC2Tkd5AN/WsjnwUEyuVYM9c7yarwWSpg0i+SJuetscMkaA5+Qb32q+lbfKyt+tnzYXwsNPDhIFl2eG20Grd6Cx0IJ1/bDVea64dNYZ+AXGqxPVd/qQOrf5cJ6HhokNe0vNs8UV9birVBSpDUlWGfgo5TA9da3OhAA/JDCP5BMtNtfzpY9lPxFSdPeqlpzd3QeFQLBT4WBfJ4SGInp9n8eDwuSRefnRpsf5642pTWk/aHkSWPL6dv3movpFgj+IS/Ub2RnP7/99+HtH5JJ7xEzzILddPtDyZfWlnhs+kpzZv/RrD3wxy5AOHqXX2//d5YPGBWO8qAgGXTNHmt+uyDP1DQ04p1QSjRn5z7zsde4EAi+4Kj1seprfbj9f4uwhYcEyUDPYj/x5kyz7TDd/lDqVF3faJ6Yu96ck03LYPAFW6yv9V3lv0jsz0I1DwiSwdnPjzFD126l4h9KuYoqqs2tb+SyDsEPVFtf66vKgOHoZfKhcnk4kCzuis7DE6G06Z33itgFAL+Qa32uj7b/HxSKeTCQDC54aZyZtXMfXgilTbWNTebO6FzWI/iBYutzfdT1bxC3/yFZ/GzWGlNV34AXQmnVjB17TbcBY1mT4IeaAANC4Wh3PwQAtworeCiQDG58fbpZVnyQs3+UdlXUNZgf5a5iXYIfWCbcnO7Lf2dKFPIYdf8hWRf/nl260dSS9od8IA1Cl0ow+vHXprM+If39AcKx74f6jToznZf/Lham8jAg0ZyRFTdfjM83mw5W4HmQb3Skscn0X15gPpDNUQCkuz9ALEfokc7t/08JFTwMSDQXD5pg3srfgcdBvtOmQxXm87F5pkMW6xTSSoX1wWkMACI8BEg0HeXt/4HxS8yh2jq8DfKdtAnVK+sKbVMq1iukmUi6Sv+eIz+8hAcAiUa3V5fsOYCnQb5V2ZF6c9+YhfaoijULaaTQ+uI0vP3fS+ofJLzkb1bM/M/stbT6Rb6XNqXqPiCHdQvppNH64hS//Z8hP3QEjX8g0egN6x3l1XgX5IQen7vOHlmxdiGNDYJGWJ+cMmXFr5AfupnBh0TS/YUcM3jNVlPX2IRnQU6o4GCF+dhwugVCWtlsfXIKt/8fEkoZeEgk945ZQLc/5JSONDaa51Zsok8ApJNS65NTtP3fWX7YcIr/QCK5dPBEm/ZX38TbP3JHelNl48EKc3d0HusY0lcUSH2y+uYUvP3fKCxh0CFRnNk/bh6ZvMyU1hzBoyDnpBdW38rfaXoOmsB6hnSxxPrmJL/9d5Af8m1hPwMOieL64dPMgl2leBLkrPZVHzEPTVomwexo1jSkA/XJjyT78t+5oebOfww4JOjtf7R5euEGPAhyXnOK9ptrX5nKuoZ08VwoHD0nmdv/NwmLGGhIFB97bbrZVVHjlKFfs6/M/Gb+evM/c9YmlN9LIKTNZlyqgaDP7vkVmxI+Fr+at97k7thrXCoH0dB01H72Tv1JC4S0MFMCgOuSGQB8QTjEQEOieGXdNqecv1aAuzs2LylGvvNzo83XJywxhY5kQpTLWKijTkYxHM2tv+aVKaakqtap+aEB0RVDJ7O2IV3ZAPckq/NfV/nDn6H4DySK+8YudOriX5O8jmrKV9cByesE10WCAA2KXMiGmLVzX9LT374/faUdd5ektSwoEQxpKgr0jPXVSQgALpM/fDmDDIlAb0yrA3HJtq/ae8jcPGJG0sfmqmFTTP6Bcl+PRVV9g7n9rZlJH4sPDhxvcnfscyoAOFhbZ3eJWOeQBpZbX52E7f9PC0cYYEjExb+fzlpjDtS40+1Pt/71fPfs51NT8OUXs9f6ejxeW789Je1w9ShAm+7sqXTnnkhj01GTs3m3+RBpgZB61Ed/MhkBwFMMLiSC3vIWvXC3O2l/ugU9dVuJvJmn7mz33BdyzGKfdkQsLKs0n0zB2/8xLnppvBmyZqtTlyP1aOuHM1bRJwDSwePJCADmM7DQXroNGGv+sCjf1DY0OmPM91cfMY9OWZ7Sc90Owv3jFpsjPuuLoHcTfj1vfUpL3+pOw53RuWZDabkzc0ZjFc1iuIE+AZB65ifW+T8/trv8oXUMLLSXf3oz1xRVVDtlyCduLU7Z1v/x9Bg43ryet9346b1X721o6mbKj42eG22eXbrR1DgUOGpTq/+ds86c9Tx9AiCl1FmfncALgF/m9j8k4u1fz0Zdkr79X5fGt7jPvjvHbDpU4Zux+PaU5WkbiyuHTjZL9hwwLuUEaGvrf357lt3RwQZAyrIB1GcnMAAYwqBCe7l39AJT61ir337y1pnOMdMWyfoZqtP85qtFbqIFRfY8Pp3j8Y2JS53aBVANW1do0zuxAZAy1Gcn6Oz/fGEFgwrt4ZLBE82i3W7V+1+9t8z0emVK2sfu1jdym9980/jqqwV57onPT/tYaA2G6dtKnJpHmjL5BR+MHQSKFdZ3t//tP/5Z+YN2MaDQ3rS26nq3zm9/nLvKVufzQ9rkz2etsZX30lncprNP3mLVmR5O41i09e4EdwEgheyyvjsBOwC/EMoZUGgrt8kbrBbRceXsVj/nuC17Upr2d/pUuHFmXpo6JqqzvWzwRN+MxXkv5JghawudKiJVUddgA8pU1E4A8Hz2L9p79n+W/CFjGUxoj7F+adUW36WznUrbDleZPmMW+m4s7xw1124np+Mmu98usd0yYoY9onFJ2kTq42nIoIDAMiaUFe/Snrf/24SVDCS0tYqbXvzbfKjSGSOtgcpQebu8UN64/TaeWofg7fydKR2PmTv2mUt99PZ/DE3LfHLuevtm7dJdgP9bstF0zR6LfYBUsFTo3Z4AoK+wh4GEtl78e+e9nU5VcNt4sML8y9uzfDumd7w72xSWpaZboKb9fXPSMnsHwY9j8dFXp9piOy41C9JiRlrUiGZBkAL2WB/eJmXndJL/+WmhnoGEtrz9PzhxaVovrrUl1e1Pi/J9c9ntRGgFvt/Mz0tJt0AN3noO9m89e3WiP5i+0qmeEjrHhq0ttE2OsBOQZNR3P9m2ACArfpH8z8MZRGjr2b9rZ7RbyirNhwb6v4GLnn8nO6Vy08EK88X4fN9fWtOAaHJhiVPFgbRboDY4YhcAUsCr4ssvbMsFwJvkf17MAEJb3sz0LdUlaXGZ+8cvdmaMH5M330O1yXnz1XsQA1dv8fVOyPFcP3xa0sYiWdIA7sNDJmEvINkstr68Def/dwt7GUBoLb1fn252O9S+VTVm025zwYvjnBlj7cant8qToeKqWnNn1K1+9i+s3Gxc01v5O0zfiUtsgSU/8++j5prLXp4ogT22zUH2Wl/eSuev5//fFRoYQGjtluywddtSckadKO2qqDH3jlngVOtW/bxby5KTXaFn6g9PXubUvLv21akm/0C5c0GAdsXcWVHta/RoTDNjNAjAxjlHg+fLO7UmAOgmZDF40Fq+Om6xU93+9FLWAHl7PN+ht/+LB02w9eXrklRbQbM2xmzebX+OK2OitfZ/NmtN0sYk6NIUxoenLDed+nNvwUGyrE9vxfl/T/kfchk4aA16Y3zkxiKn0rJW7S0zn3pntjPd2nSX4msSZO2tqk3quOiZ+g9nuFW57uphU8z4LXucuhDokrScd2eaGrlIrvXprdgBuJb8f2gNmiv+o9xVKa9U1x5pEZlfzVvv1DhrS9zc7XtTc1FtzwFzyxsznGplq8GRHukgAgD4m3oA17YmALiXQYPWcMPwaWaxOAxXpG+Jc4v2m56D3TnX1LdxNcKpKqus9zieXpBnPuBQ5Tqt4Pha3naOAggA4Hiy4p9vzRHAnxg0aM35qxbQ0fN0V6QOwqW0P+UKefvfUZ7a+xVadfCWN3KdGqd/HTlHxqkKj00AAO/zVGt2AGYwYNBStMHJvuojThmzSVuLnWvP2n/5prSlq7l0DKBO6v+WvOdUCWoCAEgyM1rq/DsItQwYtLToT6ob1CTi7N/P9f5PxGfemZ3yt/9j0iMHfat2abw+NGiCKTzMLgABAHjUWt/eggDgZuEoAwYt4cs5i0x5nTv1/vVc+3cLN5hzHHr7v+ilcfZ2ezqzK7RynUupksqjU5bbCo+IAACsT7+5JQHAwwwWtARtEztju1vd2JYVHzQ3vu5OT3bNu35EHNmeNFdW1CDvf+esdapYkl4InLB1D56bAACaebglAcBzDBS05OLfL8UgHHSoBnvZkXprxM526O1f69zP3LEv/VkTR3UX4IAt8+xS8PTVcYvMbtICCQDAWN/eggCAAkBwWjQ/fMHuUuPKy7/uUkwuLDZXDZvizBjrJUWtbueXbWz9HH9e/J5TaYHa30H7BLiUoUIAAEkrCHRK9Rt5ofymjQwUnIruL+SYZ5ZudCrXuriy1jw4YYlTLVive3WqKUxSvf+2auPBCnPHu7PdqZ0gaDObDaWH8eAEAEFno/Xxp3j7v03YyUDBqYrRNOdZu1PvX9PBRuRtdyrtTysrakEbP2rke0X2lr1L8/apBXmmsq4BL04AEGR2Wh9/igJA35LfUMpAwck4T97+x27e7ZTh0tKwN4+Y4dQ4//NbM22nOD+qoq7e9J2wxKnaAFpC2R5Z4ccJAIJLqfXxp9gBeEKoYKDgZHwlZ5FzZVZ/v3CDU2Os6Xaa9udnLdlzwAaDLo3rQ5OWOdWmmgAAEkyF9fGnCACGC40MFJzw7V8ck6bRuaS1+8pslziXxvl701bajAU/Sy/V/XzWGqfGtWv2WHsRFBEABJR6YdCJnX92Thf5j2MZJDjZZarH565zqrCKftaHJy9zqof5ta9MNXOK9juRXaEXAq8bPs2pefypt2c51bGSAAASzBjr6//x7T/eS/7jfAYITsTtb8007x0od8ZYadpfdGOR+fDLk5wZY61P8OfF+b49+/976VHQkLWFTtVV0BTG8LIC+gQQAASV+dbX/+MFwPhn5T/mMUBwoq1/NfQunZ9qlsJ/jF3oVE8FTVfLdyjIUm0tq7Tj7FJ6pdawWLOvDI9OABBE1oXCsU+f6Pz/fqGIAYK/d0xq4Lc71FjliPdm6lLtei1Y8/Karc4VrNGdFu0WeMngCU7ttPzPnLW+v2dBAABJYIfwlROlAP5I/kM5AwTHo4Zdu/25VO9/86FKc6tDPez1foUGWQdq6px0DAdqjpgHJy516q6FXgz1Q4llAgBIMeXW1/+NsuK6A/A7oYkBguPf/r86brFTF//0mOK3C/KcalqjRX9m7XTbGS0pPmhz7V2a2w9NWmr2VtXi2QkAgoT6+KeFvwkAesi/eJ3BgeO57OVJpuBghVNGKq/0sFOtftUR/XDGqoxwEFptTytFutRrIV6wy6ndLQIASABDhfOPP/+/XIgzMHA8f1yU75SB0lKvfScudWqMr31lilmXIRfSDtXWmV6vuFVz4ZYRM8y+6iN4dwKAIDEqFIlfevz5/8fkX85hYOAYt74xwxQ5VO9fNWpjkVPV6fQyWtayAqeOWE6noesKTef+bjmJ51dsxrsTAASJ3FA4dt3xOwCfENYyMKDoIn9l3TanbqTvlGDlnvh8p9LR7orOc+6I5XTaXVlj7onNd2q+azGjdftJCyQACAxrrc8/LgD4V2E7AwPKV3MWOdXtT8MUfYs716G3/4sGjjfDHAuyWiI9Tx+3ZY+5eOAEpwJevYdRm0E7MQQAcAq2W59/XADwZeEIAwNXDJlkJm51p1663t9asKvUqW5/HfvHbTc9V9P+Tn8XoN72CTjToaMAnfejN3EhkAAgEFSEwtE+zc6/38gz5F88xKCA3or+75mr7WUul5zNL8UwnelQDrqmy03fvjejncV8CcpufH26O0FZVtw8MH6xUztfBADQDh6yvl++OUt4nAEJNlqM5iYx2Esd6vanb2vTtpWYy16e6FTanxrSTG9Le6Sh0bZh1g58LlVjHLq20FaSRAQAGc7j1vfLP7oLzzMgAX/7l4X9p0X5tsGLK9IzWy1U5NI4XzxogtlVURMIh7HtcJUNKl16Pp96Z5YpLKvC2xMAZDr9hK6aAniRfDOSAQk2H3ttmilxrCramE27TBeHiv7oLsuLq7YExmHo/cY38rY7VZVRyxmHl23MuMuZBADwd7xjfb/842L5xTgGJLhoPvokhy7+qfZU1pjeDl38U/5t1NxAlp69z6GujMo52WPMhtJyPD4BQCYzzvp++ebDwmoGJLg8MH6JqaxvcMYQ6THFHxblO1XyV9P+xm7eHcg+9Lk79jmVFqh8Y9JSU8tdAAKAzGW19f3yjyuFfAYkmFz+8iQzY/tep9KfFu0+YG4YPs2pG+bfnrrcuSOWRKm8rl6cxxqnugVqK2kN2BABQIaSb31/KBy9Wr7ZxYAED02de3zuOnPYob7omqL4k5mrTReHDNH1EqxMt0FWMB2HBpeLdrtVq0GzNe4ds4BugQQAmcpW4SrdAbhBaGRAgkfv16eb+bv2G5f80pRtJbZoi0u1FdRwBj21rLq+0TaX0vN1V56d9pV4YdUWw3VAAoAMpF64/lgAwIAEDC2b+/yKTU4ZoO2Hq8yXRi9wapxvfSPXFB4mrez45+dSv4bb35pplpccJAggAMhEbtAA4A4GIlioAf58bL5TZ9J6eU4bFLlkgLTk77B1hXiO4/RW/k7TY+B4p47JfjM/z95jIAAgAMgw7giFsuKPMhDBouuAsWbMJrcuOGmworUKXBrnO96dbSrqGvD6x0nvm3xt3GJbE8Gli7JzivaboLcJIADIMNT3EwAEj/vHL3au89nTCzc4d8Qy0bHaCqnSyr2HTLcBY516nv81YUng73EQAGRiABCJPclgBIcPZI8xq/e51ft848EKpy7+Kd+ZutwcrK3D259AmhXwnSnL3SqV/fwYM2PHXgIAAoBM4klNAxzEQAQl7W+0eXrBBqfeZCrrGuyWsUvlZG96fYZZUXIIT38KFVXU2PRIl9aPpjEWV9YSAGBLMwP1/fLNMAYjGPzL27NMgbxNu/SmqLXkew5yp4qcdr/TKoWc/Z9aWs1x6LpC8wGHugXq7tn/LXnPqYZZBABwugBgKoOR+Whls4Grtzh19q9d2f5j7EJn0sbOyIqZfx05x6zffxgP38Lnq8V2XFlDenHxtjdybVogAQBkRD8A+cdyBiLz0fzrbQ7lo+sxhQYs3QfkODPG2k/+pVVbTH0TNeRbosamo+bt/J3m0sETnXnGZ3uFncpq6wkAwHWWEwAEgMtenmhGbSxyqt7/pkMV5hNvznTq7fCu2Dy2/lspLe2sN+xduuNx7atTzayd+wgAgAAA/H/x7/vTVzrV2UyPKbRHgWtpf8uLD+LR26CFu0vNta9Mdep568XUXRU1BABAAAD+5ephU8xax9L+tNvfeS+Oc2qcvydBFmq7frdwg1MlgrUZ1Yi87YFq70wAQAAAjvHHxe85ZWSq6hvMA+MXOzXGVw2dbNY4FmT5TXsqa81HX3VrF+DWETPM3upaAgAgAAD/cYsYqO2ONaKJFewyF77kztt/5/6jTXhZgalxrLKiHzV0baFza6zf0o0EAOB0ALCCgcg8tHLZq+u2mQaHmtDvLK82d0bnOrUV/O+j5pr8A+V47wSouLLGfGn0fLd2f4ZNNpscqq1BAADHsUIDgG0MRGahDvQbE5eaPZXuXFLS4iq/X7jBqcIw2tVOu9uhxEizVLR/glvdAkebR6YsN9X1jQQA4FohoH0hBiLz0LeSqdtKnDEseo9qwe5Se2Thyhh36h8335y0zJTWHMFzJ1A6nj+btcbuYJFmSwAASYZByLyt/5/OXGPKHGpEo0VV/keMizpVV8ZZW8RO274Xj50Ezd9Vam56fbpTO26aFrijvJoAAAgAIH1og5WlDuWj60vTnJ37zSWD3an3r0VrHp+zLvDtYZMl3U7XplVdHWoZrKW2X8vbbuqbjhIAAAEApGdb+luTlzlVira2sdHm0Ls0zpoDHrQiMKlWYVmlc2mBX4jPz+hdAAIAAgDwewAwaZlT3cqqGxpNnzELnQsAuPmfXG0XR+paAPCZd2ebrWVVBABAAADpq1OuZ6iuSCupxTe5lfuvZ77fmbqCuv9Jku5gPbuswHR/wZ1GUNoGuv+KTRldD4IAgAAAHLgE+KPc1eaAQ7fT91UfMf9v2gqnLgH2HDzRjN28G2+dBC0vOWT+6c1cp9bdXdF5ZmOG1wMgACAAAAe4cuhkkyPOyZW0JP2c07aVmOsc2vLVYOX+cYtt8SKUOJUdqTP/O3edU2mAHxo0wbmiWwQA0BwAhKMUAsrAQkAPTljiVCEg7QD4hBj+Lg4ZmIteGm+GrSvMeMOfSunx1YeHTHIqI+QrOYvMgZq6jH82BAAZVwhoG6WAM5gha91yTpsOVZhPvzPbdMhyZ4w//fYs222REKD92ltVa/qMXuDUGtN6ENq9MggiAMjMUsA0A8rgmgDbHGsGNGzdNtPNofxvbQakrWy1iyFqn7SaXhfHHMxv5ucF5vkQAGRmMyACgAzmKccMVGVdg82ndmmML5O3QJeKL/lRuoXuUvU/5ZpXpmR89T8CAAIAcBg9T13rWK/6OUX7nboEpvSdsAQv3g71X77Jnqe7VAvi5bWFpjFA9z8IAAgAwMHiQA9NWupU2VrNpf7hjFVOjbOWrZ0rgQtqvVbuPWRuGD7Nqed97+gFgXr7JwAgAABH0TSlERt2ONWtrOBghbnNsVzw29+aafZW0x2wNSo7Um++PWW5bavrUprtNIe6bRIAAAFAwNFz9UKHypRqieDnVmwy3Qe4Uw3u3BdyTHhZgVO9GNIpWwWyYJd1qC5t/Wu3zUO19QQA4DqLNQCYykBkPupIX1i12ebbuyKtq/4fYxfaugaujPMn3pxpVpQcwru3QNsPV9liSq6c/XcQbh4xwyzacyCQz4sAIOOIagAwjIEIBre9ketUExs9shiRt930HOROq2C9vPjUgjz6BJxG2rDqlXXbnKr3/4HsMeaZJe851WyLAABOUQhoUMj+g8EIBB37x81vxTm5dCFQ0wK/5tBb4rEz4gW7S/Hyp9Duyhpz6xtu3fHQt//iytrAPjMCgEwMACKxJxmM4KBvMXrr2iVpkxWXysMq/zVhiSmt4ULgyXZ2fjVvvVPPU3d2ZmzfG+jnRgCQcTwZCmXFH2UggoWmMLlWue63Cza45TDEUMYKivD2J5AeQ7lU7VH5ugR0RxqbCAAIADIH9f0EAMFDe5eP3OiWcyqpqjW3jJjh1Dj3ls8bhCYxrZFmd3xn6nKn+j1cNWyymVe03xwNeMMHAoBMDAAisTsYjGCht+q1f7lLrWw1ZeyNDTucenPUewuayojelwaeHxw43plneGb/uHl6wQYudRIAZCJ3aABwAwMRwLTAF3JMv6UbncpZ31VRY9PGXBpnrW/vUuZFMlVcVWv+07G0zjvenW3W0O2RACAzuUEDgOuFegYjePQW5+Ta1mbujn3mmlemOjPGajC/O3WFOXykPtDOQwNNLZJ0TrY7OzgXvTTeDF1biOcnAMhE6q3vD4WjV8k3WxmQ4KHbmz+btcYcrHXnnPqQfFb9zGc71CzoI0Mnm9GbdtljjCBK/9YrSw7ZIkkuHd/oboXePUEEABnIVuv75ZsrhXwGJJhc/vIkM7mw2CnntKz4oLn1jRm2MpsrzuTBiUtNUUV1IB1HZX2DzeLQxlSurIsLXhxnJm0txusTAGQq+db3yz8+LKxmQILLV8YtsgV3XJFWYvvL4vfMOdljnHIor63fHsgqcot2HzCXDp7o1JrQYxuXymYTAEArWW19fygcvVi+GceABBfdTnctZ31PZY1Ns3NpnD/z7uxAbin/Z84ip56TBpbvcXGTACCzGWd9v/zjIvnFOwxIsLliyCTnnNOYTbtMF4fuAuiRxVPz85xqy9xejd2825agduUZ6TFFeNlG09DEvX8CgIzmHev75ZuuQj8GJNhom9PfL9zg1BZ1bWOjeWDCErfSLweMDczbpe7S/Mvbs5x6Pp96Z5ZTbbMJAKCN9LO+P9R/dBf55ucMCFz76lSzcLc7rU71RXr2zn3mspfdOV8+I6v5fLk6w8+Xj3j3NFwq3KT3NDTtL+glfwkAAsHPre8PZed0kF/0ZUBAdwF+OGOVTbVzReVH6m1jmTMd2mbW9sY5m3dntLNYWnzQpv25lKlx//jFZkd5NZ6eACAI9LW+3yoc/YL8iwMMCuhdgIkOpT/pSe3C3aW2VatLOeZfHbfIVsbLRJXV1jvnLHTejy7YFaj7GQQAgeWA9fl/VST2WaGQgQHlS6MXOHUOqib7+RWbzbkv5DgzxufJZ31h1WanSjG3ROpAp2wrMZc71L65s7fzVUPaHwFAUIoAqc//q8LRW+VfLGdg4JhBHLK20CnnpI2N7onPd6rO/CffmmlW7T2UUXXmdVfjq46l/V03fJpZt78MD08AEBQWCTcdHwBcI/9iGgMDx/j4a9PNTscq12mnufMc2gXQlLOnF24wVfWZ02lOOzZ+wKF6/8qzywrw7gQAQWKS+Pyr3w8AsuI9qQUAf8+v5+c5ZaC0mmHfiUudGuNLX55ou81lxNn/kXpz/fCpTo3/LSNmmN2VNXh3AoAg8aZw8fsBwLOjusm/eJGBgb+5rT54gjinQ04ZqfWlh805DhUHUvT2eSbo/5ZuNB2y3Bn3s2wFTC7+EQAEjv6h58ac9X4A0G+kXgR8WjjK4MD7Oetx85WcRU5tUeu9hd8uyLM37V06CsjZ4nZaoDZounLoZKfm9kOTltLtjwAgaBy1vj47J/S3isR+LJQzQHA8Fw8cb15bv82pt6TNhyrNrW/kOleBrtjRrWitG/GdqSuccg5XD5tiZu7Yh1cnAAga5dbX/4MisfuFIgYI/v5N6d7RC8zWskpnDJVWchu0eqvpPsCdC4H6WZ9dutE0OlaDXgNDvXypbaVdGWttfvXLOWvtnQVEABAwiqyv/weF41oLII8BghM5pwErNzvVHlXrGNw7ZoEzY6wV8/75rZlmRYlbdy60ct794xY7lX550+vTzbKSg3h0AoAgkmd9/T/uAMR7yX+czwDBidCyrvkONbHRN9OovJl++GW3CtL8et56m83ggrRj3lv5bqX9aatfbXqVaQWYCACghcy3vv4flJ2jTYHGMEBwsjfU/85dbSoduhCold0enrzMXrJzZZw/PGSSmba9xIk7F5sOVdgiOk7dtXh7llNzmAAAEswY6+tPqHBssPyGegYJTli+9sVxZl7RfqeM1tp9ZfbCl0vj/LVxi5y4nf6b+XlOjaum/U0uLMaTEwAElXrr40+qSOwXwmEGCk7GV3IWOle5Trd8XRrjrtljzVsbdvh6TFfvPeRU1UXlgfFLTB2tfgkAgkvZiTMA3g8A7hVKGCg4Gdpw502fO6e/V1FFjXNb1be9kevbW+rqRL8xcakzrX6VSwZPNPN27TeU/CEACDDFwj0nDwCy4r3lN+xgoOCkdwGyYuaOd2fb5juuqPHoUTNsbaFT46z3Fvot3ejL8dTLlR8aNMGtstbz1puKOs7+CQACzQ7r408RAHSQ37SOgYJTobe+f7dwg1PbqVpkp++EJU6lq101dLJZ7rN0te2Hq8yd0blOXV79tASsmdJvgQAA2sE66+NPqUhsAgMFp6P3iBn2QqArBQL1Vv2ErcVOlatVY/u9aStNeZ0/jgI0qyK8rMAeAzlzcVU+6/MrNtmURUQAEHDGhk6rSKwfAwWno2P/uPnZrDXmYG2dMwbsQE2d+enMNbYSnCvjrAHL6E3pb1ijP35p8UF7N8GZOZoVN18avcDuWiACAIj9/vQBQDj6lRBNgaAFXDp4opmxfa9TfQIW7C41Nzh0IVCPLPTC3e6K9PYJ0F2IJ+auc8oBXPDiODNm8248NwEAqE9X396CHYAbCQCgpdwTn28OO1RTXfsEPL1gg1Mtg7sNGGveeW9nWrex9e3/ksFuXfzTtL8ah8pXEwBAUgMA9e0tCAD0ImAtAwYtfUN9M9+ttMC9VbXmE2+61S3w+uHTbJfDdAVN2hDKrf4VY82WQ5V4bQIAaKbW+vYWKRKbwYBBS9FKe8WVbvVVf1feqM9yaBdAeWpBXlrGSrv9uZTzr2f/f1qU71xnRQIASCIzQi1WOPonBgxac1v9qfl5Tt20Lq9rMP8xdqFT43z+i+NS3pCpqLza1s93aZz+6c1cpxpXEQBACniq5QFAc0VABg1ajF6sW7zngDPGTO8t5u7Ya3oOnuhUTvujU5anrP6Cdsz7o7xJd3Wo29+FL40zw9YV2mMLRAAAHlnxz7cmALjWKxvIwEGLOLN/c856Wa07FwK11K6mMro0zj0HTTCxgl0pGZ8VJYfsXQmXtv/vG7vQbCPtjwAA/r4E8LWtOQLoKeQycNBa56Rn640OpQXq7fZ/csjJ6ee8KzrP7Eiyk9Pg6Ee5q92qnDhsshm3ZQ/1/gkA4HjUl6tPb8UOQDchi8GD1tJnjFuFV/TeQtayAtN9gFvV7fqv2GRqG5OT4qYB3HhxpJe9PMmZMekijukH01eaSur9J0W1DY3mkSnLbY8K7JxzZFmf3ooAoJPwXaGBwYPWcE72GDNo9Ran+gRoet3nRs116m1X6/FvPFiRlPE4VFtnvjt1hVPzrtcrU3zXN+G091AEbVBUVFHta7aWVZrX1m8zVwyZhI1zjwbPl3cKtUqR2N3CXgYQ2nIhcEuZWznYozYW2Vv2rozxbW/mmlV7k9PgpqSq1hZ4cmnO/X7hBufq/b+Vv9PcP36xHWs/8+8SHF/+8kQJkLFtDrLX+vJWKxy9Sf7HxQwgtKU40K/mrXfKGGvFuC86UuxGt2F/MnN10vow6A36l1Zvcea8V4skaXEnl1RwsMKpxlTgLIutL2+1suIXyf88nAGEtqAd4xbuLnXKKG8So/wBn6e86SXAW9/INYuSPLY6Fl+Ut78OPn/r02JO0Y1FTvWjqK5vNF/JWeTUkRM4y3Dry1ut7By9B/C0UM8gQluqsfWduNSeJ7t0IVB3Ljr62DB3HTDW/GlxvqlrSv4dC+0/0NPH9f/VgT4oc8ylt38NVF5dt818cOB47AQkm3rrw9WXt0nhaF/5A/YwkNAWPjRoghmRt92ptMC80sOm9+szfDumd7w72xSWpSbLYn/1EfPNSctsjQc/jsWVQyaZyYXFTr39692YL42ez9s/pII91oe3WZHYbcJKBhLaugugTWQ2O9SURe8CPL9ikznbh30C1GmM3rQrpeMxf1epuexl/1VL1PsJ/5272qkdplpvbrmUcgpOs1To3fYAIBw9S/6AsQwktBU9U1ej51JpVn1L++Jo/92C19S/2hS3t21oajL/O3ed7wolffy16Um/B5GM3aVPvDkTuwCpYkwoK94l1C5FYr8QyhlMaCsfE2OtOdqubNTq59QOeH568+0xcLxZufdQWsZDqwJe7qOx0KDymSUbndr6r6xvME9IIMXWP6SIcuu7261w/LPyB+1iQKE9/HTmGlNV706VNq0o98hkf5x/62fQbovprHKndzn8cizy6Xdm26DEJc3euc+pOhPgPLus7263IrHzuQcA7UW7tLmWFris+KC8+aa/+tkn35pp1uwrS+tY7K2uNX3GpL99sp79j9+6x6l5pIHvf4xZiB2AVLLS+u6EKBwdwoBCe9ELgS7dBTiWFpjOMev+Qo6JLC9IWt3/1oyFXkBMd/vk+8SRVjc0OhUARAt2me4DxmIDIHWoz06YwtEvyx96lIGFduWwZ481775X5JTxLq6qNR9OYw10LcPql+ZKpTVHzA9mrExbQ5jzXhxn5hTtd6rb387yavPZd+f4vqASZBRHrc9OmJ4f213+0DoGFtqLtt7VBiNOFW5Zv812m0v1WF0ib9vjfdbeVo9xbhkxI+VZARp0PL1wg1Pd/uqbmszTCzb4vrokZBx11mcnVOHoAgYWEnGD+zfz81KeztbeXYAHxi9O6Q1udbDfnLTUd0cmWoHwj4vybUXCVAeOy0sOOTNnNEFhbtF+c9Pr01n3kOrt/wWhhCsSe4rBhURws7xBunQhUM+/czbvTmk7VE3721Ba7svxKCyrNJ95d3bKxuKCF8eZ7BWbnGoxrY2atGFTR9L+IPU8nowA4DMcA0Ci0tp+OmuNOVDjThU3LYv7/ekrU9YhT3PG/ax4wa6UnGvrz9ACSDvK3To2mratxFw6eCLrHVK//R+JfTLxAUA4elkoHFvBAEMi6Dlogpm1c59xpZaLfs6ZO/aZ616dmpLtbu3G52dpyeTPjZqbkrf/ke/tdKroj9Yo+HLOItY5pGH7X3y0+uokBABd5Qc8QzYAJCyla+xCe7PcpTe7PyzKN+dkJ68gjrZR1qI79U3+3+7WM/mLXkpuV7v/mrDEqWZSqjc37GDrH9Jz+199tPrqpCgc+4L8gEMMNCSKV9Ztc8q4a0rep95Jzvm3Hi88PHmZM1kSeiNfb7knq0Lg5UMmmTyf3oM4mUqqas2VQyeztiEdHBAffU8oaYrEbhIWMdCQKLRPwO7KGqeMvOaiPzZ9lfm6vJ0mCu1rr+f+6ar33+YLgRIQ/W7hBpuxkMjx+H/TVphYwS6ntv71sqhmuPi1fTJkPDPl7f+65AUAWfFz5YcMYqAhkRcC1YG4Jq1Gp+mBiWJf9RGnUiP/JjWwscke5SRyPCrqGoxjO/9m8Z4D5rrhU1nXkC6ekwDgnOQFANk5HeSHfFvYz2BDorh++DSzYFepQchVldXW2V2LM5/j7R/SgvrkR0JJVyR2o7CEAYfE7QLEzffEeFY4VOUNoWPSS4rvvLcz7X0SINAssb456crO6Sw/aLjQwKBDotCc6bfydzhx+x2h47XtcJW5d8wC1jGkiwbrk9U3p0SR2ENCKQMPiaSPGNFtPml8g1BL7z8MXL0lqamhAKeh1PrklCkrfoX8wM0MPCQSbX07eM1Wp0q+omBLu/19bPg01i+kk83WJ6dM2TlnyA8dQVEgSDQff226U2VfUbD1q3nrKfoD6S7+M8L65JQqErtXaOIBQKJrvz8+Z61z1d9Q8LRozwHTfUAO6xbSSaP1xSlXds458oNLeACQaLS87NLig3gY5FtpvX8tWHQGb/+Q3tr/26wvTosisQgPARKNbql+ffwSc6i2Dk+DfCfdnXo9b7u5eOAE1iukm0gobYrEPiVU8BAg0Vw8aIJNC0TIb9p8qMJ8afR8zv4h3VRYH5w2haMXyweYxoOARKNbq/eNWUhaIPKVjjQ2mRdXbTHnvcDZP6SdnFA43iN9AUC/kWdKEPAYRYEgGWiXuciyAmt0EUq39FrqsuKDNlOF9QlpL/4Tjn0/1G/UmaG0KhK7VVjBA4Fk8E9v5NoOeeQEoHRL2x//ZOZq1iX4gWXCzaG0KxI7P9TcIZCUQEgKP5u1xlTV0ycApVfzdu03F740jjUJ6aZJ3v4HhMLR7iFfKBx7UD5UMQ8GksEFYnS11SpC6Tz7/2J8PusR/ECx9bm+UTh6mXyoXB4MJIt7xPgilC69+14R9f7BL+Ran+sb9RvZQT7Qn+WDVfNwIFkXAjUtkLsAKNXaVVFjbn0jl3UIfqDa+lr1ub5SJHaLsIUHBEkpESzc/tZM23wFoVSptqHR1vvn7R98whbra30n7UUcjsVoEATJQuuu/2lxvqkRo4xQKrRgV6np/foM1h/4o/GP+lj1tb5UONqHbABIJr1HzDALdpfimVDSdaCmzqb9ndl/NGsPfHL7P3pXyLeKxM4W8nhQkCw6Pzfa/HLOWvoEoKRKm1Hm7threg6i3j/4hrxQv5GdQ75WOPpDdgEgmfQYON5M377X0DEYJUt7q2rN3dF59u4Jaw588fYfiX0r5HtFYpezCwBJTwuMzTP7q4/gqVBSNHRtIesM/PX2r77V98qK6zHAr4VGHhokiy7PjTZvbqBbIEq8dlfWmOuGT2OdgV9otD5VfavvlZ3TIRSOfUY+cD4PDpLJx16bRlogSqjqGpvMUwvyTKf+tPoF35Bvfar6Vif07CjtDzCEBwfJRG9n/3FxPl4LJUxzi/abj746lfUFfmKI9anOqLky4H3ywbfy8CCZXPPKFGu0uQ+I2itN+3t48jIJLHn7B9+w1fpS31X+a1mXwFHcBYBk7wI8MmW5Ka3hQiBqu+qbmuydkksHT2RdgZ/O/kdZX+qkIrGHhVIeJCSTK4ZMMtGNRaahiX0A1DYVllWZe0cvYD2Bnyi1PtRZhaM95C+whAcJyeSMrLj5z7ELzbbDVXgy1Gppq9+Bq7eY7i/ksJ7ATyyxPtRpRWKPURgIks052WPNsLWF9hY3Qq3R1rJK02vYFNYR+K3wz2Mh5xWJdRY28UAh2ejt7R2kBaJWqOnoUfPL2Wup+Ad+Y5P1nRmhSOxRoY6HCslGjXkjNYJRC7Ws+KA563la/YKvqLM+M2MUifUUFvJgIdmc/+I4s3rvITwbOq20odT94xfbOySsHfARC63PzKAAQI8Bvi9U83AhmXQUY/7QpKWmqr4BD4dOKU37++DA8awb8BPVnq/sHMooRWLXCbN4wJBs1Ki/QZ8AdAoVHKww98Tn8/YPfmOW9ZUZp0jsDOHHQjkPGZKJXui6MzrXrN1fZmobGm1mAMAx9lUfMU/NzzNnc/YP/qLc85FnhDJSkdhVwnThKA8bklshMG5ueyPX/G7hBpO9YjOAJbxso20l3fm50awT8BNHPd94VSijFYn9VCjjgQMAAFjKrG/MeEVilwhLeeAAAACWpdY3BkKR2A+oDggAAGB94Q9CgVFzWmABDx4AAAJOQeal/Z2+UdAD8peu4uEDAEBAqbK+MHCKxC4UYkwAAAAIKDHrCwMYAHQU+ghFTAIAAAgYRZ4P7BgKpCKx80Lh2AD52sBkAACAgNDg+b7zQoFVdo7eBbhDBmEtEwIAAALCWuv71AcGXpHYb4VKJgUAAGQ4ldbnob8GAL1CzS0QKREMAACZylHP1/XC8f9tEPCI0MgEAQCADKXR+jr0d8qKdwuFo7OZIAAAkJGoj1Nfh06gZ6N3hsI0CgIAgExz/uLb1Mehk1YH7C4D9SJpgQAAkFFpf+rb1Mehk6YFdghlxW+XgVrJhAEAgAxhpfVt6uPQKe8CnCWD9ROhlEkDAACOU2p9mvo21KKMgJ6hcCwnRMtgAABwlybPl/XEsbfmKCAS+5xQyAQCAABH2RIKR/+Frf+2VwisYxIBAIBj1IWo+NcO9Rt5bigcW8xEAgAAx9L+FlsfhtqVGnifDOYBJhQAADjCAeu7ULsDgK4ymP2ZUAAA4Aj9re9C7b4HoBcCe4doFgQAAP7mWLOf3tZ3oYRkBXSSwXxUKGGCAQCATymxvkp9FkroUcAHZWBfFmqYZAAA4DNqrI9SX4WSUiXwRhngVRwFAACAz7b+V1kfhZJ2FNBRBrmPUM+EAwAAn1BvfZP6KJTUS4GdQuFotnxtZNIBAECaafR8Euf+KQoCeghTQ/QKAACA9NHk+aIeOObUVQjsKBHXXTLoBUxAAABIEwXWF6lPQindBegm/EooYxICAECKKfN8UDcccnqyAi4NhWPjOAoAAIAUX/qLWh+E0pYV0CEUid8iD+I9JiQAAKSIfHH+N9Pm1x/HAX2FciYlAAAkmXLrc5CvKgUOlYfSwOQEAIAk0WB9DfJbABC7RpjMBAUAgKSgPkZ9DfLdDoBWCbxT2MBEBQCABLPB+hj1NcinVQIjsUeEPUxWAABIEHs830K1P59nBnQOhWN/kAdVyaQFAIB2Uml9ivoW5MROwAXC29QHAACAdqA+5HXrU5BLdwLiH5WHtoIJDAAAbUR9yEdwqG7uBNwrlDCJAQCglZRYH4KczQw4S3hMHmIFkxkAAFpIhfUd6kOQ00GA3geICFVMagAAOA1V1meo70AZEQT0kgcaE+qY3AAAcBLqrK9Qn4EySFnxT8qDXSIcZZIDAMDfcdT6CPUVKOPqA3SUqO5zobDt4cxkBwCA92n2DbdbX4EyUP1GarngrwtHmPAAAOA5/8PCA7T3zfzUwLOFJ4RDTHwAgMBzyPMJZ+MgA3EpMH6RPOxwqLmvMwsAACCYlFtfoD4BBSoz4CO2rzPpgQAAwUz3Ux+gvgAF8jjgann4uWQGAAAE7MZ/s+2/GkcY3MyADqGs+OUyEVYQBAAABMb5L7e2n0t/KPRs9MZQOJYfonsgAEAm02RtfVacN3/016OATjIp7pavq1kgAAAZ6/xXera+E44PHR8EdBb6CttYKAAAGccWm+uvth6hEwQBXYXvhGghDACQSZR4tr0rjg6dKgjo4u0EUCMAACAzcv37WtuOUAsDgW8IpSweAABnKbW2HKFWKRw9W3iSIAAAwFHnrzZcbTlCbQgCegh/JggAAHDO+f/Z2nCE2hkEPCMT6jCLCgDA9xy2NhvnjxIUBHQV/iITq5bFBQDgW2qtrVabjVCCA4G/sBMAAODbN/+/4KhQMncCnuFOAACA7878n+HNH6XiTsBTMuF2s+gAALjwh4IVBJwnk+57QjGLDwAg7al+OH+UQjVXDHyQioEAAGmr8PcN8vxROgOBviF6BwAApJISa3sR8sFOwMNCfkjbTbIwAQCShdrYLaHmxj7U9kc+UFb8LJmM99le0wQBAADJcf5qY5tb+nLbH/lqJ6CzTMy7Bd0JOMpiBQBIGEetbVUbq7YWIR8GAZ1Cz0ZvDIWjKwgCAAAS5fyjy0NZ8autjUXI50cCl8uEnSaTtYrFCwDQZqrEluZam4qQMwpHLxMGygQ+wCIGAGhDml84OlS+Xh3KzumAU0GuBQGXyOT9HUEAAECrOCSExYZ+BEeCXL4XcL7wzVDYTmgWNgDAqQjbhmtPhMLxi3AgKBOCgDOFrwl7uBwIAHDSm/5lXpof1f1QBknPsCKx24XFIe1ZzWIHADhGnbDE2kjO+1GGBgEdZYLfKrxLhgAAgHfTPxKLhbLin7Q2EqEMvxzYSyZ8RKhg8QNAgKmwtlBtIkIBCgIuEB4L0UgIAIJJibWBagsRCmAQoD0E7hVW0EMAAAJT07/Z5t1rbSBCwQ4E4h+VxfC2UIlxAIAMRm3c6wL5/Qj9VZHYBaFw7A9eqiCGAgAyjT2ejWPLH6F/UHZOZ1kcjwgbMBYAkEFssLZNbRxC6KQ7AZ2EOyVSnixfGzAcAOAwDZ4tuzNEJz+EWnQ5sKMsmmu8RhjlGBEAcJDmZj7Ntoz8foTasCPQV3iPLAEAcIR6Id/aLoRQe4OA+C0SRY+TBVWGcQEAH6M2KhrKit+M4UYoMZcDO8iCulQW1q+EAnYDAMCHuf0F1kapraKeP0IJPw7oFgpH75KvU4VGjA4A+IBGa5OabVM3DDVCyVK/kdpQqIcstmzvrI32wgCQDo5aG9Rsi3pY24QQSslugKYL9hFWCTUYIwBIITWe7elDeh9C6bkb0DGUFb9RFuDLXlMhdgMAINlv/SXW5qjtoX0vQmlWOPpBWZCPCgsxUACQRBZaW6M2ByHkm90APRLoLfQXDmCoACCBHPBsS29raxBCvrsX0EEi867CfaFwbLH8ug7DBQDtoM7aEmtTxLaojUEI+Vz9Rp4ri/W3QiF1AwCgDXn9hdaGqC1BCDm5K/A5ieBz5GspRg0AWkCpZzM+hwFFyO27AR1kIfcUfiKspMMgAJy0c1+zjfiJtRlU80MoQ5QVP0u4XRb2ixLd01MAAN6n2Sa8aG2E2gqEUAbuBoSj3UPPRu+Ur7O9Ep7UDgAIbk5/o7UFzTahO2/9CAVjR6CbLP5HvLzeSowhQKCo9Nb+I9YWIIQCqEisl5ctsJb7AQCBOOdf6635XhhAhJBWE7wjFI4NEKNQhJEEyEiK7BrXtY4QQsfdD9DdgPO85h4xoQqDCZARVHlruo9d47rWEULoBEcC2m74QnlLeEC+FlBECMDpYj4F3lq+0K5thBBqYTDQWfiBsFQoI2MAwImb/WXemv2BXcMIIdSOQOAS4afCdKEcIwvgS8q9NfpTu2YRQiiBgcBVwo+FWUI1BhfAF1R7a/LHdo0ihFCSgoAzhOuE73t5xHQcBEhXp77mNfh9b02egYFCCKUiEOjs9Rh4VNjEZUGAlF7u2+StvZ6c8yOE0h0MPCYs8boONmKkARJKo7e2lnhrDaePEPKRwtEeYpgeFkYJWzHaAAlhq7emHrZrDCGEfLwjcL4Yqvvk6xAhnx0BgDa98efbNdS8ls7HsCCE3FC/kR1Cz46SQCD2GTFevxbyuCcA0KLz/Ty7ZnTt6BrStYQQQs5J24tmxc8Wg3a5vMn88LhAgKJCAO8X7znm+L9l14quGVrzIoQybGegswQCd8nbjdYm30I9AQh4/v4WuxZ0TejaQAihAOwMaObALWL4/ixfc4VijgggIFv8xXbON8/9W+xaQAihAO4IdBBDeJm8BT3otSNe5vUsx1lAJtFg57Ztx6tzXeY8Z/sIIeQpHO0uRvJmMZBa2SxHqMBxgONU2LncPKdvtnMcIYTQyXYFRp0ZCse1psCnhIhQwsVBcOxCX4k3dz9l57LOaYQQQq1Uds45YkjvFUYIm72KaBwTgJ+290u9uTnCzlWdswghhBIWCJwRyopfIQb2IWG4VxZ1Pw4I0sR+bw4Ot3NS56bOUYQQQkkNBjSL4Ebh28KLwkzhAMcEkOTt/QPeXHtOeMTOQW7xI4RQWgKBDmKEu4XC0etC4dg98v0z8nUFbYohoW13m+fUM3aO2bkWZYsfIYR8pXC0q02xitgSxE/J9wu8YICdAWjNm36dN3ceFz7ZnKoqcwshhJBDen5sdzHeXxa0OdFKYZdQjqMDj3JvTqy0c0Tnis4ZhBBCGSTbqTD+Wfn6C2GsFxDsEepxhIGh3nvmS4Uxdi40zwk67iGEUCAUjp4lRv82+dpXvj7t3eZeLOwlzTDj0vT2es92uH3Wzc+8dygr3oWFgBBCQVZ2TidxBheJY7hJHMPdwneFLPn1sT4FOFK3KPaeXZb3LO+2z1afsT5rhBBC6ISKxDp52QU95eu1trhLOPon+TpDqOVSoa8u7B31nskMe/EzK/55+8yan103+ywRQgihBAQHHWxd90jsYZsPHrbdDDcKO72KcFr/vRHnnNAz+zJvJ2aHsM67v/F7cfJf8epB0FgHIYRQGtRv5IXefYJvydcnvLNmdVLzPYe1w7ttzs7Bqd/mdYyKhDxv7MZIgDVYvv5YuEfe7vXcHmePEELIx8rO6RKKxHuJA/u0OK+veE5MLxsOFUbZnvCR2Fphe8A6H2o1va3CImGS8KZXzfFpb4zub76VL2OnY4gQQgg5r0isORUxEr9UAoPr5PtPCP8q9PF6HGjhmX7CO8I4YbWQ7znMeke267d6n3m193d4x/s7/VzoGwpHvyBfNe3uJvn+avl6cejZUd1C/UYyPxBCCAVQ/UaeIc5QUxO1mqFmJFws339YuFK+v0q+Xi/cINwRyoo/aonEnpT/NsjS7GyXn4QVLWyctN/7vSf7c8Yd9/OePO5z3OF9tuu9z3ql/ez6d9C/i/6d+o/uYks3I4R8of8PdcumCbTLXjsAAAAldEVYdGRhdGU6Y3JlYXRlADIwMjEtMDEtMjlUMDg6MzY6MDQrMDA6MDD/of1LAAAAJXRFWHRkYXRlOm1vZGlmeQAyMDIxLTAxLTI5VDA4OjM2OjA0KzAwOjAwjvxF9wAAAABJRU5ErkJggg==;" vertex="1" parent="WavSGEP2uycEWBqPC76q-12">
          <mxGeometry x="8" width="42" height="42" as="geometry" />
        </mxCell>
        <mxCell id="WavSGEP2uycEWBqPC76q-14" value="&lt;font color=&quot;#000000&quot;&gt;Keycloak&lt;br&gt;Instance&lt;br&gt;&lt;/font&gt;" style="text;html=1;strokeColor=none;fillColor=none;align=center;verticalAlign=middle;whiteSpace=wrap;rounded=0;" vertex="1" parent="WavSGEP2uycEWBqPC76q-12">
          <mxGeometry y="42" width="60" height="30" as="geometry" />
        </mxCell>
        <mxCell id="WavSGEP2uycEWBqPC76q-15" value="" style="endArrow=classic;html=1;rounded=0;strokeColor=#000000;strokeWidth=3;exitX=0.5;exitY=0;exitDx=0;exitDy=0;" edge="1" parent="1" source="WavSGEP2uycEWBqPC76q-9">
          <mxGeometry width="50" height="50" relative="1" as="geometry">
            <mxPoint x="180" y="460" as="sourcePoint" />
            <mxPoint x="200" y="430" as="targetPoint" />
          </mxGeometry>
        </mxCell>
        <mxCell id="WavSGEP2uycEWBqPC76q-16" value="" style="endArrow=classic;html=1;rounded=0;exitX=0.5;exitY=0;exitDx=0;exitDy=0;strokeColor=#000000;strokeWidth=3;" edge="1" parent="1" source="WavSGEP2uycEWBqPC76q-13">
          <mxGeometry width="50" height="50" relative="1" as="geometry">
            <mxPoint x="179" y="480" as="sourcePoint" />
            <mxPoint x="240" y="430" as="targetPoint" />
          </mxGeometry>
        </mxCell>
        <mxCell id="WavSGEP2uycEWBqPC76q-17" value="" style="sketch=0;points=[[0,0,0],[0.25,0,0],[0.5,0,0],[0.75,0,0],[1,0,0],[0,1,0],[0.25,1,0],[0.5,1,0],[0.75,1,0],[1,1,0],[0,0.25,0],[0,0.5,0],[0,0.75,0],[1,0.25,0],[1,0.5,0],[1,0.75,0]];outlineConnect=0;fontColor=#232F3E;gradientColor=#945DF2;gradientDirection=north;fillColor=#5A30B5;strokeColor=#ffffff;dashed=0;verticalLabelPosition=bottom;verticalAlign=top;align=center;html=1;fontSize=12;fontStyle=0;aspect=fixed;shape=mxgraph.aws4.resourceIcon;resIcon=mxgraph.aws4.api_gateway;" vertex="1" parent="1">
          <mxGeometry x="195" y="620" width="50" height="50" as="geometry" />
        </mxCell>
        <mxCell id="WavSGEP2uycEWBqPC76q-18" value="&lt;font color=&quot;#000000&quot;&gt;API-&lt;br&gt;Gateway&lt;br&gt;&lt;/font&gt;" style="text;html=1;strokeColor=none;fillColor=none;align=center;verticalAlign=middle;whiteSpace=wrap;rounded=0;" vertex="1" parent="1">
          <mxGeometry x="190" y="680" width="60" height="30" as="geometry" />
        </mxCell>
        <mxCell id="WavSGEP2uycEWBqPC76q-20" value="" style="endArrow=classic;html=1;rounded=0;exitX=0.25;exitY=0;exitDx=0;exitDy=0;strokeColor=#000000;strokeWidth=3;exitPerimeter=0;entryX=0.5;entryY=1;entryDx=0;entryDy=0;" edge="1" parent="1" source="WavSGEP2uycEWBqPC76q-17" target="WavSGEP2uycEWBqPC76q-10">
          <mxGeometry width="50" height="50" relative="1" as="geometry">
            <mxPoint x="179" y="480" as="sourcePoint" />
            <mxPoint x="210" y="440" as="targetPoint" />
          </mxGeometry>
        </mxCell>
        <mxCell id="WavSGEP2uycEWBqPC76q-21" value="" style="endArrow=classic;html=1;rounded=0;exitX=0.75;exitY=0;exitDx=0;exitDy=0;strokeColor=#000000;strokeWidth=3;exitPerimeter=0;entryX=0.5;entryY=1;entryDx=0;entryDy=0;" edge="1" parent="1" source="WavSGEP2uycEWBqPC76q-17" target="WavSGEP2uycEWBqPC76q-14">
          <mxGeometry width="50" height="50" relative="1" as="geometry">
            <mxPoint x="218" y="630" as="sourcePoint" />
            <mxPoint x="180" y="552" as="targetPoint" />
          </mxGeometry>
        </mxCell>
        <mxCell id="WavSGEP2uycEWBqPC76q-22" value="Internet" style="ellipse;shape=cloud;whiteSpace=wrap;html=1;" vertex="1" parent="1">
          <mxGeometry x="310" y="750" width="120" height="80" as="geometry" />
        </mxCell>
        <mxCell id="WavSGEP2uycEWBqPC76q-23" value="" style="endArrow=classic;html=1;rounded=0;exitX=0.167;exitY=0.25;exitDx=0;exitDy=0;strokeColor=#000000;strokeWidth=3;exitPerimeter=0;entryX=0.5;entryY=1;entryDx=0;entryDy=0;" edge="1" parent="1" source="WavSGEP2uycEWBqPC76q-22" target="WavSGEP2uycEWBqPC76q-18">
          <mxGeometry width="50" height="50" relative="1" as="geometry">
            <mxPoint x="243" y="630" as="sourcePoint" />
            <mxPoint x="280" y="552" as="targetPoint" />
          </mxGeometry>
        </mxCell>
        <mxCell id="WavSGEP2uycEWBqPC76q-24" value="" style="rounded=1;whiteSpace=wrap;html=1;fillColor=#A8A8A8;fontColor=#333333;strokeColor=#666666;" vertex="1" parent="1">
          <mxGeometry x="380" y="220" width="240" height="390" as="geometry" />
        </mxCell>
        <mxCell id="WavSGEP2uycEWBqPC76q-25" value="" style="editableCssRules=.*;html=1;shape=image;verticalLabelPosition=bottom;labelBackgroundColor=#ffffff;verticalAlign=top;aspect=fixed;imageAspect=0;image=data:image/svg+xml,PHN2ZyB4bWxucz0iaHR0cDovL3d3dy53My5vcmcvMjAwMC9zdmciIHhtbG5zOnY9Imh0dHBzOi8vdmVjdGEuaW8vbmFubyIgd2lkdGg9IjcwMi44NDYzMTM0NzY1NjI1IiBoZWlnaHQ9IjY4MS45NjcxMDIwNTA3ODEyIiB2aWV3Qm94PSIxMC4wMDEwMjYxNTM1NjQ0NTMgMTAuMDAwOTMzNjQ3MTU1NzYyIDcwMi44NDYzMTM0NzY1NjI1IDY4MS45NjcxMDIwNTA3ODEyIj4mI3hhOwk8c3R5bGUgdHlwZT0idGV4dC9jc3MiPiYjeGE7CS5zdDB7ZmlsbDojMzI2Y2U1O30mI3hhOwkuc3Qxe2ZpbGw6I2ZmZjt9JiN4YTsJPC9zdHlsZT4mI3hhOwk8cGF0aCBjbGFzcz0ic3QwIiBkPSJNMzU4Ljk4NyAxMC4wNmMtNi4yMTMuMzEzLTEyLjMwMSAxLjg1NC0xNy45MDYgNC41MzFMOTYuNzM3IDEzMS4zNDJjLTEyLjgxMSA2LjExOC0yMi4xMTYgMTcuNjg5LTI1LjI4MSAzMS40MzhsLTYwLjI4MSAyNjIuMjVjLTIuODEyIDEyLjIwNy0uNTI0IDI1LjAyNCA2LjM0NCAzNS41MzFhNDYuMzUgNDYuMzUgMCAwIDAgMi42NTYgMy42ODhsMTY5LjEyNSAyMTAuMjgxYzguODY4IDExLjAyMiAyMi4zMTMgMTcuNDQgMzYuNTMxIDE3LjQzOGwyNzEuMjE5LS4wNjJjMTQuMjEyLjAxIDI3LjY1Ny02LjM5NiAzNi41MzEtMTcuNDA2bDE2OS4wNjMtMjEwLjMxM2M4Ljg3My0xMS4wMjggMTIuMTk3LTI1LjQ2NCA5LjAzMS0zOS4yMTlsLTYwLjM3NS0yNjIuMjVjLTMuMTY1LTEzLjc0OC0xMi40Ny0yNS4zMTktMjUuMjgxLTMxLjQzN0wzODEuNjQzIDE0LjU5MmMtNy4wNS0zLjM2OC0xNC44NDEtNC45MjYtMjIuNjU2LTQuNTMxeiIvPiYjeGE7CTxwYXRoIGNsYXNzPSJzdDEgc3QyIiBkPSJNMzYxLjQwOCA5OS4zMDhjLTguMDc3LjAwMS0xNC42MjYgNy4yNzYtMTQuNjI1IDE2LjI1IDAgLjEzOC4wMjguMjY5LjAzMS40MDYtLjAxMiAxLjIxOS0uMDcxIDIuNjg4LS4wMzEgMy43NS4xOTMgNS4xNzYgMS4zMjEgOS4xMzcgMiAxMy45MDYgMS4yMyAxMC4yMDcgMi4yNjEgMTguNjY3IDEuNjI1IDI2LjUzMS0uNjE5IDIuOTY1LTIuODAzIDUuNjc3LTQuNzUgNy41NjNsLS4zNDQgNi4xODhjLTguNzc3LjcyNy0xNy42MTIgMi4wNTktMjYuNDM3IDQuMDYzLTM3Ljk3NSA4LjYyMi03MC42NyAyOC4xODMtOTUuNTYyIDU0LjU5NC0xLjYxNS0xLjEwMi00LjQ0MS0zLjEyOS01LjI4MS0zLjc1LTIuNjExLjM1My01LjI1IDEuMTU4LTguNjg3LS44NDQtNi41NDUtNC40MDYtMTIuNTA2LTEwLjQ4Ny0xOS43MTktMTcuODEyLTMuMzA1LTMuNTA0LTUuNjk4LTYuODQxLTkuNjI1LTEwLjIxOS0uODkyLS43NjctMi4yNTMtMS44MDUtMy4yNS0yLjU5NC0zLjA3LTIuNDQ4LTYuNjkxLTMuNzI0LTEwLjE4Ny0zLjg0NC00LjQ5Ni0uMTU0LTguODI0IDEuNjA0LTExLjY1NiA1LjE1Ni01LjAzNSA2LjMxNS0zLjQyMyAxNS45NjggMy41OTQgMjEuNTYzLjA3MS4wNTcuMTQ3LjEwMS4yMTkuMTU2Ljk2NC43ODIgMi4xNDUgMS43ODMgMy4wMzEgMi40MzggNC4xNjcgMy4wNzcgNy45NzMgNC42NTEgMTIuMTI1IDcuMDk0IDguNzQ3IDUuNDAyIDE1Ljk5OCA5Ljg4MSAyMS43NSAxNS4yODEgMi4yNDYgMi4zOTQgMi42MzkgNi42MTMgMi45MzggOC40MzhsNC42ODggNC4xODhjLTI1LjA5MyAzNy43NjQtMzYuNzA3IDg0LjQwOS0yOS44NDQgMTMxLjkzOGwtNi4xMjUgMS43ODFjLTEuNjE0IDIuMDg1LTMuODk1IDUuMzY1LTYuMjgxIDYuMzQ0LTcuNTI1IDIuMzctMTUuOTk0IDMuMjQxLTI2LjIxOSA0LjMxMy00LjguMzk5LTguOTQyLjE2MS0xNC4wMzEgMS4xMjUtMS4xMi4yMTItMi42ODEuNjE5LTMuOTA2LjkwNi0uMDQzLjAwOS0uMDgyLjAyMi0uMTI1LjAzMS0uMDY3LjAxNS0uMTU1LjA0OC0uMjE5LjA2My04LjYyIDIuMDgzLTE0LjE1OCAxMC4wMDYtMTIuMzc1IDE3LjgxM3MxMC4yMDMgMTIuNTU3IDE4Ljg3NSAxMC42ODhjLjA2My0uMDE0LjE1NC0uMDE3LjIxOS0uMDMxLjA5OC0uMDIyLjE4NC0uMDcuMjgxLS4wOTQgMS4yMDktLjI2NSAyLjcyNC0uNTYxIDMuNzgxLS44NDQgNS4wMDMtMS4zNCA4LjYyNy0zLjMwOCAxMy4xMjUtNS4wMzEgOS42NzctMy40NzEgMTcuNjkyLTYuMzcgMjUuNS03LjUgMy4yNjEtLjI1NSA2LjY5NyAyLjAxMiA4LjQwNiAyLjk2OWw2LjM3NS0xLjA5NGMxNC42NyA0NS40ODMgNDUuNDE0IDgyLjI0NSA4NC4zNDQgMTA1LjMxMmwtMi42NTYgNi4zNzVjLjk1NyAyLjQ3NSAyLjAxMyA1LjgyNSAxLjMgOC4yNjktMi44MzkgNy4zNjEtNy43MDEgMTUuMTMxLTEzLjIzOCAyMy43OTMtMi42ODEgNC4wMDItNS40MjUgNy4xMDgtNy44NDQgMTEuNjg4LS41NzkgMS4wOTYtMS4zMTYgMi43NzktMS44NzUgMy45MzgtMy43NTkgOC4wNDItMS4wMDIgMTcuMzA1IDYuMjE5IDIwLjc4MSA3LjI2NiAzLjQ5OCAxNi4yODQtLjE5MSAyMC4xODctOC4yNS4wMDYtLjAxMS4wMjYtLjAyLjAzMS0uMDMxcy0uMDA0LS4wMjMgMC0uMDMxYy41NTYtMS4xNDMgMS4zNDQtMi42NDQgMS44MTMtMy43MTkgMi4wNzItNC43NDcgMi43NjItOC44MTUgNC4yMTktMTMuNDA2IDMuODctOS43MiA1Ljk5Ni0xOS45MTkgMTEuMzIzLTI2LjI3NCAxLjQ1OS0xLjc0IDMuODM3LTIuNDA5IDYuMzAyLTMuMDdsMy4zMTMtNmMzMy45MzggMTMuMDI3IDcxLjkyNyAxNi41MjIgMTA5Ljg3NSA3LjkwNmExODkuNzcgMTg5Ljc3IDAgMCAwIDI1LjA5NC03LjU2MmwzLjEyNSA1LjYyNWMyLjUwNi44MTUgNS4yNCAxLjIzNiA3LjQ2OSA0LjUzMSAzLjk4NSA2LjgwOSA2LjcxMSAxNC44NjQgMTAuMDMxIDI0LjU5NCAxLjQ1NyA0LjU5MSAyLjE3OCA4LjY1OSA0LjI1IDEzLjQwNi40NzIgMS4wODIgMS4yNTYgMi42MDUgMS44MTMgMy43NSAzLjg5NSA4LjA4NSAxMi45NDIgMTEuNzg3IDIwLjIxOSA4LjI4MSA3LjIxOS0zLjQ3OCA5Ljk4LTEyLjc0IDYuMjE5LTIwLjc4MWwtMS45MDYtMy45MzdjLTIuNDE5LTQuNTgtNS4xNjMtNy42NTQtNy44NDQtMTEuNjU2LTUuNTM3LTguNjYyLTEwLjEzLTE1Ljg1OC0xMi45NjktMjMuMjE5LTEuMTg3LTMuNzk3LjItNi4xNTggMS4xMjUtOC42MjUtLjU1NC0uNjM1LTEuNzM5LTQuMjItMi40MzctNS45MDYgNDAuNDU3LTIzLjg4OCA3MC4yOTktNjIuMDIxIDg0LjMxMy0xMDYuMDYyIDEuODkyLjI5NyA1LjE4Mi44NzkgNi4yNSAxLjA5NCAyLjItMS40NTEgNC4yMjItMy4zNDQgOC4xODgtMy4wMzEgNy44MDggMS4xMjkgMTUuODIzIDQuMDMgMjUuNSA3LjUgNC40OTggMS43MjMgOC4xMjIgMy43MjMgMTMuMTI1IDUuMDYzIDEuMDU3LjI4MyAyLjU3Mi41NDcgMy43ODEuODEzLjA5Ny4wMjQuMTgzLjA3MS4yODEuMDk0LjA2NS4wMTUuMTU2LjAxNy4yMTkuMDMxIDguNjcyIDEuODY3IDE3LjA5NC0yLjg3OSAxOC44NzUtMTAuNjg3cy0zLjc1NC0xNS43MzItMTIuMzc1LTE3LjgxMmMtMS4yNTQtLjI4NS0zLjAzMi0uNzY5LTQuMjUtMS01LjA4OS0uOTY0LTkuMjMxLS43MjYtMTQuMDMxLTEuMTI1LTEwLjIyNS0xLjA3MS0xOC42OTMtMS45NDMtMjYuMjE5LTQuMzEyLTMuMDY4LTEuMTktNS4yNTEtNC44NDEtNi4zMTMtNi4zNDRsLTUuOTA2LTEuNzE5YzMuMDYyLTIyLjE1NCAyLjIzNy00NS4yMTEtMy4wNjItNjguMjgxLTUuMzQ4LTIzLjI4NS0xNC44LTQ0LjU4MS0yNy40MDYtNjMuMzQ0bDUuMTg4LTQuNjU2Yy4yMzctMi42MjQuMDMzLTUuMzc2IDIuNzUtOC4yODEgNS43NTEtNS40MDEgMTMuMDAzLTkuODc5IDIxLjc1LTE1LjI4MSA0LjE1Mi0yLjQ0MyA3Ljk5LTQuMDE3IDEyLjE1Ni03LjA5NC45NDItLjY5NiAyLjIyOS0xLjc5OCAzLjIxOS0yLjU5NCA3LjAxNS01LjU5NiA4LjYzMS0xNS4yNDggMy41OTQtMjEuNTYycy0xNC43OTctNi45MDktMjEuODEyLTEuMzEyYy0uOTk5Ljc5MS0yLjM1NCAxLjgyMy0zLjI1IDIuNTk0LTMuOTI3IDMuMzc4LTYuMzUxIDYuNzE0LTkuNjU2IDEwLjIxOS03LjIxMiA3LjMyNi0xMy4xNzQgMTMuNDM4LTE5LjcxOSAxNy44NDQtMi44MzYgMS42NTEtNi45OSAxLjA4LTguODc1Ljk2OWwtNS41NjIgMy45NjljLTMxLjcxOS0zMy4yNjEtNzQuOTA1LTU0LjUyNS0xMjEuNDA2LTU4LjY1NmwtLjM0NC02LjUzMWMtMS45MDQtMS44MjItNC4yMDMtMy4zNzctNC43ODEtNy4zMTItLjYzNi03Ljg2NC40MjYtMTYuMzI1IDEuNjU2LTI2LjUzMS42NzktNC43NjkgMS44MDctOC43MyAyLTEzLjkwNi4wNDQtMS4xNzctLjAyNi0yLjg4NC0uMDMxLTQuMTU2LS4wMDEtOC45NzQtNi41NDgtMTYuMjUxLTE0LjYyNS0xNi4yNXptLTE4LjMxMiAxMTMuNDM4bC00LjM0NCA3Ni43MTktLjMxMi4xNTZjLS4yOTEgNi44NjMtNS45NCAxMi4zNDQtMTIuODc1IDEyLjM0NGExMi44MiAxMi44MiAwIDAgMS03LjU5NC0yLjQ2OWwtLjEyNS4wNjMtNjIuOTA2LTQ0LjU5NGMxOS4zMzQtMTkuMDExIDQ0LjA2My0zMy4wNiA3Mi41NjItMzkuNTMxIDUuMjA2LTEuMTgyIDEwLjQxLTIuMDU5IDE1LjU5NC0yLjY4N3ptMzYuNjU2IDBjMzMuMjczIDQuMDkyIDY0LjA0NSAxOS4xNTkgODcuNjI1IDQyLjI1bC02Mi41IDQ0LjMxMy0uMjE5LS4wOTRhMTIuOTEgMTIuOTEgMCAwIDEtMTcuNjg3LTIuMzc1Yy0xLjc3MS0yLjIyMS0yLjcwMS00LjgzMi0yLjgxMi03LjQ2OWwtLjA2Mi0uMDMxek0yMzIuMTI2IDI4My42Mmw1Ny40MzcgNTEuMzc1LS4wNjIuMzEzYTEyLjg4IDEyLjg4IDAgMCAxIDEuNjI1IDE3Ljc1IDEyLjg5IDEyLjg5IDAgMCAxLTYuNjg3IDQuNDA2bC0uMDYyLjI1LTczLjYyNSAyMS4yNWMtMy43NDctMzQuMjY1IDQuMzI5LTY3LjU3NCAyMS4zNzUtOTUuMzQ0em0yNTguMTU2LjAzMWM4LjUzNCAxMy44MzMgMTQuOTk3IDI5LjI4MiAxOC44NDQgNDYuMDMxIDMuODAxIDE2LjU0OCA0Ljc1NSAzMy4wNjcgMy4xODggNDkuMDMxbC03NC0yMS4zMTItLjA2Mi0uMzEyYy02LjYyNy0xLjgxMS0xMC42OTktOC41NTItOS4xNTYtMTUuMzEyLjYzMi0yLjc3IDIuMTAyLTUuMTEzIDQuMDk0LTYuODQ0bC0uMDMxLS4xNTYgNTcuMTI1LTUxLjEyNXptLTE0MC42NTYgNTUuMzEzaDIzLjUzMWwxNC42MjUgMTguMjgxLTUuMjUgMjIuODEzLTIxLjEyNSAxMC4xNTYtMjEuMTg3LTEwLjE4Ny01LjI1LTIyLjgxMnptNzUuNDM4IDYyLjU2M2ExMi44MyAxMi44MyAwIDAgMSAyLjk2OS4yMTlsLjEyNS0uMTU2IDc2LjE1NiAxMi44NzVjLTExLjE0NiAzMS4zMTMtMzIuNDczIDU4LjQ0LTYwLjk2OSA3Ni41OTRsLTI5LjU2Mi03MS40MDYuMDk0LS4xMjVjLTIuNzE2LTYuMzEuMDAyLTEzLjcxIDYuMjUtMTYuNzE5IDEuNi0uNzcgMy4yNzEtMS4xOTcgNC45MzgtMS4yODF6bS0xMjcuOTA2LjMxM2ExMi45IDEyLjkgMCAwIDEgMTIuMzc1IDEwLjAzMSAxMi43NyAxMi43NyAwIDAgMS0uNzE5IDcuOTM4bC4yMTkuMjgxLTI5LjI1IDcwLjY4OGMtMjcuMzQ3LTE3LjU0OS00OS4xMjktNDMuODI0LTYwLjc4MS03Ni4wNjJsNzUuNS0xMi44MTIuMTI1LjE1NmMuODQ1LS4xNTUgMS43MDEtLjIzIDIuNTMxLS4yMTl6bTYzLjc4MSAzMC45NjljMi4wMjQtLjA3NCA0LjA3OS4zNDEgNi4wMzEgMS4yODEgMi41NiAxLjIzMyA0LjUzNyAzLjE3MyA1Ljc4MSA1LjVoLjI4MWwzNy4yMTkgNjcuMjVjLTQuODMgMS42MTktOS43OTYgMy4wMDMtMTQuODc1IDQuMTU2LTI4LjQ2NSA2LjQ2My01Ni44MzkgNC41MDUtODIuNTMxLTQuMjVsMzcuMTI1LTY3LjEyNWguMDYzYTEyLjkxIDEyLjkxIDAgMCAxIDEwLjkwNi02LjgxMnoiIHN0cm9rZT0ibm9uZSIgc3Ryb2tlLXdpZHRoPSIuMjUiLz4mI3hhOzwvc3ZnPg==;fontColor=default;" vertex="1" parent="1">
          <mxGeometry x="400" y="240" width="40" height="38" as="geometry" />
        </mxCell>
        <mxCell id="WavSGEP2uycEWBqPC76q-26" value="Kubernetes-Cluster" style="text;html=1;strokeColor=none;fillColor=none;align=center;verticalAlign=middle;whiteSpace=wrap;rounded=0;" vertex="1" parent="1">
          <mxGeometry x="460" y="244" width="60" height="30" as="geometry" />
        </mxCell>
        <mxCell id="WavSGEP2uycEWBqPC76q-27" value="" style="rounded=1;whiteSpace=wrap;html=1;fillColor=#FFFFFF;fontColor=#333333;strokeColor=#666666;" vertex="1" parent="1">
          <mxGeometry x="400" y="290" width="200" height="290" as="geometry" />
        </mxCell>
        <mxCell id="WavSGEP2uycEWBqPC76q-28" value="" style="shape=image;verticalLabelPosition=bottom;labelBackgroundColor=default;verticalAlign=top;aspect=fixed;imageAspect=0;image=data:image/png,iVBORw0KGgoAAAANSUhEUgAAAFsAAACICAMAAAC/QmcqAAAAZlBMVEX///9Ga7Do6/M3Yqz3+PtTc7RDaa8/Zq40YKv6+/08ZK3u8fcyXqva4O3k6PJMb7KDmMavvNkqWqlberdrhr3T2uq3w93AyuGYqc9mgrtgfrnI0eV3j8GertKottZxi78eVKaOosvkbVXFAAADzUlEQVRoge3Z22KrIBAF0ExMBlQSjaY2TdNc/v8nD2ouiiADwtvhOS52KdOZ2NWKtvKc+EGPtb/Gs9dFGs++/8azxU88m/OvaHbCLvFsTPbRbMge8WzESPUjbeCR6qe1YbuJZ/Mmno3nKIXf2cCjFH5vs1s8G/guns3KeDZmEQr/aUNyimcjhC/8lw38EM/GOnj9vG3g3/FsDN44PzYEb5wDO3jjHNjAA9fP0GaBG+fQRraOZkPyF8+GImjjHNthG+fYDlv4YxtEyMap2HiMZ4MI2DhVO2TjVG3g4epnYgecmCc2smCNc2IHnJinNgT7xqmxgxW+xsbzYjXdGGyoFjfOZmeyF0/M6XZvsqFa2DgbYbYXFn66RbMNfFH9NGLOzpZMzGmNczbigsYpY8/ZSyZmedrzNm69C78RMG+D8J2YZWyb7T0xy9g2Gyq/xtnGttqeE3Mb22qD8Cn8Lrbd9pqYu9h226fw+9gEO3FvnH1sgg3gWvjP2BTbuXE+Y1NsrP1ik86kcpuYX7FJttvE/I5Nst0K/x2bZrs0zk9smg2CPjE3/HOWJJveONPi8xTNxoRaP4PYRJs8MQ9jU20oiLHF4BmqTWuco9hkmzYxD0+bbpMm5lTJQ7UpjXN02g42ZWJWnqDb9sZ5GMd2sEHY6gdw/ICDbXvVpMZ2sTGZHzwR1QfotmViPnD18y72fOFPYrvZc6+aprHd7LnCZ5PYbvZM4zxoADfbXPjJNLajDXdD49TFdrVNha85bWcbKm39aC6Jh60vfG1sZxsTcmxnWzsx62O72zgtfENsd1tT+Jk+toc9+aqsvdt+9qRx6krS11Ym5qvxUQ8b7jkptpfNhhPz1XBJPG0Qg8Lnxth+9mBinontZyMSTtvT/kzMppLsadbbAnHaqM2PnWdjSyrjHOpbd6Hy27kukIskY6RNno1zcrdl1kzwor6dvneDFpXm+6/fw+nyIzcRvNtEHfA+6/mOeRC7V0FVlSU32b02ef4kmuDr9yV5qZdWpb5P7Dd5lHITxvl4k67weaeiVBu6qv9JymNdyN8R7zapNjK2W1bSJhe5SfW3CqVqNonh/l8zK99EWnm+ysus2IZeRbYtv9tvhPuyMg0QHgsZr+rT17tjSp0FgkVyOygVsy/FYh2zCvqTUNfC7Ji0J2H80u2tyyMWt6vlLZ6PjqxC/Umoa+2m9ydB/mNH1uWdEPJOUF26Lk+C0U7CUcfsvj35/6/YrMuyO9ruhJfOBPc7CYsu70Sx4CTUlb91Jqqj652w63eG7Un8xujY+eN89ezY/wBWoT8MwlDhEgAAAABJRU5ErkJggg==;" vertex="1" parent="1">
          <mxGeometry x="413.24" y="310" width="26.76" height="40" as="geometry" />
        </mxCell>
        <mxCell id="WavSGEP2uycEWBqPC76q-29" value="&lt;font color=&quot;#000000&quot;&gt;Istio&lt;br&gt;Service-Mesh&lt;br&gt;&lt;/font&gt;" style="text;html=1;strokeColor=none;fillColor=none;align=center;verticalAlign=middle;whiteSpace=wrap;rounded=0;" vertex="1" parent="1">
          <mxGeometry x="455" y="315" width="90" height="30" as="geometry" />
        </mxCell>
        <mxCell id="WavSGEP2uycEWBqPC76q-30" value="" style="shape=datastore;whiteSpace=wrap;html=1;fillColor=#FF6666;" vertex="1" parent="1">
          <mxGeometry x="480" y="360" width="40" height="50" as="geometry" />
        </mxCell>
        <mxCell id="WavSGEP2uycEWBqPC76q-31" value="&lt;font color=&quot;#000000&quot;&gt;Database&lt;br&gt;&lt;/font&gt;" style="text;html=1;strokeColor=none;fillColor=none;align=center;verticalAlign=middle;whiteSpace=wrap;rounded=0;" vertex="1" parent="1">
          <mxGeometry x="470" y="404" width="60" height="30" as="geometry" />
        </mxCell>
        <mxCell id="WavSGEP2uycEWBqPC76q-32" value="" style="group" vertex="1" connectable="0" parent="1">
          <mxGeometry x="420" y="470" width="60" height="72" as="geometry" />
        </mxCell>
        <mxCell id="WavSGEP2uycEWBqPC76q-33" value="" style="shape=image;verticalLabelPosition=bottom;labelBackgroundColor=default;verticalAlign=top;aspect=fixed;imageAspect=0;image=data:image/png,iVBORw0KGgoAAAANSUhEUgAAAgAAAAIACAYAAAD0eNT6AAAABGdBTUEAALGPC/xhBQAAACBjSFJNAAB6JgAAgIQAAPoAAACA6AAAdTAAAOpgAAA6mAAAF3CculE8AAAAB3RJTUUH5QEdCCQE7djyZAAAAAZiS0dEAAAAAAAA+UO7fwAATwlJREFUeNrtnQmcVcWV/x+CoAZwJQaXaBSNmigukziTxMxk1JhEnMmiGUyMmuSfmGWyzqhJjNkdfK/RRgUEFMUV3ntAs2/Nvu9b09IszdJAN9BA0zu9Uf9zqi+RJCy9vOXWu9/f5/O1G0X6UbfqnHOr6pwTCiGE/KF+I88IhaNnhbLiXYWLhIvl1x8ORWJXClcJ1ws3CHcIj1jC0Sfk9w2U74cKU4Tlp2CbYE7DttP8GVPsz9KfqT/72Odo/kw3eJ/xKvuZ9bPr36H576J/py6h7JwOPGiEEELBUySm9BBneJlwgzjJT8iv/1W+9pGvDwmPC/8nvCPkCKuEDcJWob4FDjzd1HufdYP32XO8v4v+nX4u9BW+IHxWuFW4RugZenZUNwmAmB8IIYQyQM+P7SLOrZfwKeHL4uR/JF9/J7wuxIQ5whrvrbvCAeeeKEqFQm9HYarwtvCi8LQ3Rvd7Owq97BgihBBCvlW/kRfaN9qs+LG3+FeFscJ8YZ2wXSgXmgLk6FtLkzdGRUKeN3ZjhEHCj4V7hJsEjhEQQgilQeqAIrGb5W31W/K1vzBD2Cjs9N5u9W2+EYee0GOFMqFY2CGslbHXwOD3EnB9Wb7eSFCAEEIoUU6+kziZbvZ8OhK7VhzNl4Q/yvfThVrhKI7ZFxz1qLXPRp+RPit9Zvrsmp9hJyY0QgihEys7p5M4Cr2trlvMdwvfFSLe2/0eHK1z7PGeXcR7lnd7z/Yi+6wRQggFWFnxs8Qh3ObdTH/aO7dfJOwVGnCiGUOD90wXec/4ae+Z32bnAEIIoQAoEjvf3jAPR3/hXdJb4b0t1uMoA3WnYI/37Md6c+EOOzcQQghlkJ4f213e9P5TDPwQz+jvEg7jCMHjsDcnVtg5onNF5wxCCCGHpBXnIrHLhE8Lv/FSyeq4tAetvFhY580dTen8pJ1TOrcQQgj5RFpaNhI71ytD+3nhL16BmSM4MkgQR7w59Rdvjt1g5xxljRFCKC2Ov3MoHP248KhXKGaul4PPmz4kc2eg1Jtrg+zc0zmocxEhhFBSnf4ZYnivEKOr1faGC0uE/TgmSBP7vTk43JuTV9g5ihBCKGGO/xwxsPcKWkN/s/cWRpoe+CnNsNTOTZ2jOld1ziKEEGqlnh11phjTi70mOmGvBGwT2/vgyDFBkzdnw94cvtjOaYQQQidROHq+cIvwmNclrgKHAo5TYeeyzulw9OZQVpz0QoQQsuo3soO8HV3mVWYb6OVis70PmXhMsEwYYOe6znmd+wghFDg13+K/WYzhn4VcrzIbrXIhCC2P93hz/s92DZBFgBAKhCKxs4U+QlTYIlTjFCCgVHtrICqBwF2hfiMJBBBCGfWm38E6/XD0cvn6AyGPC30AJ7w4mGfXSPNaOZtCQwghN6Xnm3qpLyuuJXl/Ld+vZ4sfoAVHBM1r5dd27ega4q4AQsihbf7zvW1+bb6zgUt9AG26NLjBW0N96FSIEPK3suI9xFB9SxgpbMWIAySErd6a+pZdYwgh5BuFo529POclXkW0Row2QEJptGtL11jzWuPCIEIorU6/p9cQpYDzfYCU3hMo8NZeT4IBhFCqHP8ZwnXC94SFXt90jDJA6qmza7B5LV5n1yZCCCXJ+V8l/FgMz0zy9wF8VU9gpl2bukYRQiiBjl+3GX8iRma6cBiDC+BLDts1qmtV1yxCCLXD8R+73LdUDEsZ5/wATpQaLrNrlsuCCKFWKRLrKFwohuMBYSM3+gEczhzQNaxrWde0rm2EEPoHZedoHv95XtGRmFCFAQXICKq8Nd3HrnFd6wgh9Fdlxe8QA5EtFGEwATKSIrvGda0jhFAoHO0lPCWGYQ0lewECUWJ4jV3zuvYRQoF84+8mhuARQXP5K+nOBxCo7oOV3tp/xNoChFDGn/N3kMXeXSL/O2Xhz/Yu+OH4AYIbCDRaW6A2QW0DLYgRysg3/rNkod8uvOCl9GEAAeAYZZ5tuN3aCoRQxrz195SFrYV8VnLODwCnuB+w0toKtRnsBiDkuMLRz8mCzvG69GHkAOB0lFqbobYDIeSg+o08Vxax3u4vpIIfALShomChtSFqSxBCPlck1kHoGsqK3ydfF9GpDwDa3XFQbUmzTelqbQxCyHdn/Z1C4WhvWaD9hQMYLgBIIAesbVEbo7YGIeSbc/4PCprTvwBDBQBJZIG1NWpzEEJpfevXxj03Ci8LJeT0A0AKageUeDbnRmuDEEIpP+/XLf8+gqbt1GCYACCF1FjbozZIbRFCKAXqN1Lf+nuEsuLauKeet34ASONuQL1ni3pY24QQStpbfzeJuO+Sr1O9Ep4YIQBIN43WJjXbJvoKIJTgs35N77tU+JVQQF4/APiwbkCBZ6MupYogQolSVvwWWVTjhEMYGgDwMYdC4ego+Xozhhuh9ioc7SuLKZ+3fgBwhHprs9R2IYRa7fT1ot81wlChHIMCAA5S7tmwa6xNQwid1vl3sr25I7HJdO4DgAzoMDjZ2jS1bQihk1726yyL5WEhD8MBABlEnrVtauMQQn+nSOwC4Q/CHowFAGQgezwbdwEGH6H3nf9HhbeFSowEAGQwauNeFz6C4UfBVlb8bOFLshiWc8sfAAJUM2C5Z/vOwhGgIF720y3/nwvFGAQACCDFYge/b20hQgF68+8lkz8iVGAEACDAVFhbqDYRoYyWts7Mit8qE/4doYrFDwBgbWFU+CTthVGmOv8O4vxvl0m+SKhl0QMA/JU6YUkoHP03ugqizFIkdqbwNZncu0O07wUAOBFHQ839Tu4XzsZxoExw/ucL3xQOssABAE5LmfCEcBEOBLl82e8SmcS/Ew6wqAEAWoy+MD0rXIkjQS6++V8mvITzBwBoE9pMaIi8SF1t71Ah5IT6j75cJu40bvoDALQ7Q2CGtakI+fytv5Pwz8IKLvsBACTscuAyuxOgNhYhHzp/7eR3t5CP8wcASHgQkO/ZWDoKIh8pHD1HJuWXvTd/avoDACSnh8Bqoa/QFceD/PDm30V4VCjA+QMAJJ1twnes7UUozQGARqMlLEoAgJRRYm0vQml883/QS1VhQQIApD5N8Bu2rTpCKVNW/DyZeN8L0coXACCdlFI1EKXyzf8i4SlhN4sPAMAXQcCfCQJQsp1/V+Ev3oRj4QEA+CcI+AvZASiZAYBOsMMsNgAA33HY2miEkvTmX8siAwDwLbXsBKBEn/nz5g8A4NJOAHcCULsUjp7nXfjjzB8AwK07AU+GwvHuODLUljf/Ll6qH7f9AQDcY6fwXSoGorYEAA+S5w8A4DTF1pYj1Io3/75U+AMAyJiKgX3ZCUCnO/PXrn6PhqjtDwCQSahNfziUFT8LR4dO9ObfOdTc0reAxQIAkHFsEPpYW4/Qcc6/k3C3sCJES18AgEykybPxd1ubj5AXAPyzkI/zBwDI+CAgPxSO3ojjQ6FQ/9GXe1HhURYHAEDGo7Z+ubX9KNBv/pcJ03D+AACBCwKmWR+AAnnj/xJ5+C8JVSwGAIDAUWV9gPoCFKg3//OF3wkHWAQAAIHlgOcLzscxBsP5nyl8E+cPAACeL/im9Q0og5Wd00Ee8teEg0x6AADwOGh9g/oIlJHOv2MoK357KByluQ8AAPwt6hvUR6ivQBmmrPit8pAXceMfAABOkhmwyPoKlFE3/nvJg31HqGWSAwDASai1vkJ9BsoI53+BPNAI6X4AANDC9MCI9R3I6W3/s+VB/lyoYFIDAEALqZAA4Pvyle6BDgcAX5IHWMxkBgCAVlJsfQhyces//tFQc41/JjIAALSF5cJHcKhuFfvRc/+3Q3T3AwCAtqM+5HXrU5AT+f6d5WH9Qahk8gIAQDuptD5FfQvy9Zt/J+FhYQ+TFgAAEsQez7d0wtH6M92vozycO4UNTFYAAEgwG6yPUV+DfPf2f40wmUkKAABJYrL1Nch3AcBQoYEJCgAASaLB+hrkK+ffVyhncgIAQJIptz4Hpf3Gf4dQVvwWeRj5TEoAAEgR+db30D44rW/+lwrjyPcHAIAU1wcYZ30QSovz7yb8SjjEZAQAgBRzyPNB3XDIqVS/kR1D4ehdMvAFTEIAAEgTBdYXqU9CKXv7v1iYw9Y/AACk+ShgqtADx5yqan/h6ACcPwAA+IBG8UnZIaoEJv3Wv27995GBrmfSAQCAT6i3vkl9FEqSsuI3ykCvFI4y4QAAwCcctb5JfRRKgsLRD8oAvyzUMNkAAMBn1Fgfpb4KJXTrX8/9H5HBLWGSAQCATymxvkp9FkrIpb8OQm9hIVv/AADg86OAhZ7PokpgAgKArkJ/JhYAADhCf+u7ULvP/u+TgTzAhAIAAEc4YH0XalfFv3NlIBczmQAAwDEWWx+G2rz9/5RQx0QCAADHqLM+DLX61r9e/PucUMgkAgAARym0voy2wa168+8p5IQo9wsAAO7S5Pmynjj2llX7O0sG6ydCKZMHAAAcp9T6NPVt6LRb/7eHmsv9MnEAACATWGl9G0cBp0z56y6D9KLQwIQBAIAMocH6NvVx6KQBwJ0ySGVMFgAAyDDKrI9DJzz77yaDM5tJAgAAGYn6OPV16B9u/j8iNDJJAAAgQ2m0vg79jfPvFaLZDwAAZDbHmgX1wvE33/zvHApH/yADUsnkAACADKdSfB4VAsX568W/z8qArOXtHwAAArILsFZ83x3WBwZ46/88IZu0PwAACFhaYLb1gQF1/h2FPkIRkwEAAAJGkecDOwYxALhQiDEJAAAgoMSsLwxg0Z8H5C9exQQAAICAUmV9YcDe/vXm/0YePgAABLw40EbrEwMUADxG0R8AAADrCx8LivO/RCKepTx0AAAAuwuw1PrGAJz9/zREwx8AAIBjlFnfmOFv/1cJ04UmHjgkmxtfn27+d84603/FJvP8is0A5tllBebzsfmm83OjWSPgJ5o833hVpjr/MyTC+bF8LedhQzLpINzx7myzrPigqWloNHWNTQCWI8KB2jrzp8X55uznx7BewE+Uez7yjEwMAK4TZvGQIdn0GDjevJa33SB0MhUcrDD3xOebM7LirBnwE7Osr8y4tL9I7HtCNQ8Ykoka9P8cu9AclLc8hE6lNzfsMB+UYJF1Az6i2vOVGZQWGI72DDW3QOQBQ1I574Ucs2BXKd4NnVaHJEi8f/xidgHAbyy0PjODdgAeFep4sJBsfjhjlWk8ehTvhlqkpcUHzVncBQB/UWd9ZgZV/SvgoUKyufzlSaawrAqvhlqsJgkWfzl7rb04yhoCH9UFKMiMY4Dmqn+k/UFS0be4IWsL7U1vhFqjLWWVptewKawj8Fta4GOun/33EJbwMCHZ6I1uNeQItVaaGvjiqi3mA9ljWUvgp12AJdaHOvz2/y2hlIcJyaTnoAnmjQ07TEMTZ/+ojbsAhyptgSDWE/iIUutDHXX+5wsjQzT9gSTSMStuvj5hidlXfQQvhtqs+qYmmxZ46eCJrCvwC42eDz3fLeffb2SHUDh6n3zwrTxESCZ6djunaL/h3R+1VwdqjpiHJy8zZ/YnLRB8w1brS9WnOqNnR+nb/xAeHiSTTmKon5y3Hs+FEqa5Ekx+9NWprC/wE0OsT3VC2Tkd5AN/WsjnwUEyuVYM9c7yarwWSpg0i+SJuetscMkaA5+Qb32q+lbfKyt+tnzYXwsNPDhIFl2eG20Grd6Cx0IJ1/bDVea64dNYZ+AXGqxPVd/qQOrf5cJ6HhokNe0vNs8UV9birVBSpDUlWGfgo5TA9da3OhAA/JDCP5BMtNtfzpY9lPxFSdPeqlpzd3QeFQLBT4WBfJ4SGInp9n8eDwuSRefnRpsf5642pTWk/aHkSWPL6dv3movpFgj+IS/Ub2RnP7/99+HtH5JJ7xEzzILddPtDyZfWlnhs+kpzZv/RrD3wxy5AOHqXX2//d5YPGBWO8qAgGXTNHmt+uyDP1DQ04p1QSjRn5z7zsde4EAi+4Kj1seprfbj9f4uwhYcEyUDPYj/x5kyz7TDd/lDqVF3faJ6Yu96ck03LYPAFW6yv9V3lv0jsz0I1DwiSwdnPjzFD126l4h9KuYoqqs2tb+SyDsEPVFtf66vKgOHoZfKhcnk4kCzuis7DE6G06Z33itgFAL+Qa32uj7b/HxSKeTCQDC54aZyZtXMfXgilTbWNTebO6FzWI/iBYutzfdT1bxC3/yFZ/GzWGlNV34AXQmnVjB17TbcBY1mT4IeaAANC4Wh3PwQAtworeCiQDG58fbpZVnyQs3+UdlXUNZgf5a5iXYIfWCbcnO7Lf2dKFPIYdf8hWRf/nl260dSS9od8IA1Cl0ow+vHXprM+If39AcKx74f6jToznZf/Lham8jAg0ZyRFTdfjM83mw5W4HmQb3Skscn0X15gPpDNUQCkuz9ALEfokc7t/08JFTwMSDQXD5pg3srfgcdBvtOmQxXm87F5pkMW6xTSSoX1wWkMACI8BEg0HeXt/4HxS8yh2jq8DfKdtAnVK+sKbVMq1iukmUi6Sv+eIz+8hAcAiUa3V5fsOYCnQb5V2ZF6c9+YhfaoijULaaTQ+uI0vP3fS+ofJLzkb1bM/M/stbT6Rb6XNqXqPiCHdQvppNH64hS//Z8hP3QEjX8g0egN6x3l1XgX5IQen7vOHlmxdiGNDYJGWJ+cMmXFr5AfupnBh0TS/YUcM3jNVlPX2IRnQU6o4GCF+dhwugVCWtlsfXIKt/8fEkoZeEgk945ZQLc/5JSONDaa51Zsok8ApJNS65NTtP3fWX7YcIr/QCK5dPBEm/ZX38TbP3JHelNl48EKc3d0HusY0lcUSH2y+uYUvP3fKCxh0CFRnNk/bh6ZvMyU1hzBoyDnpBdW38rfaXoOmsB6hnSxxPrmJL/9d5Af8m1hPwMOieL64dPMgl2leBLkrPZVHzEPTVomwexo1jSkA/XJjyT78t+5oebOfww4JOjtf7R5euEGPAhyXnOK9ptrX5nKuoZ08VwoHD0nmdv/NwmLGGhIFB97bbrZVVHjlKFfs6/M/Gb+evM/c9YmlN9LIKTNZlyqgaDP7vkVmxI+Fr+at97k7thrXCoH0dB01H72Tv1JC4S0MFMCgOuSGQB8QTjEQEOieGXdNqecv1aAuzs2LylGvvNzo83XJywxhY5kQpTLWKijTkYxHM2tv+aVKaakqtap+aEB0RVDJ7O2IV3ZAPckq/NfV/nDn6H4DySK+8YudOriX5O8jmrKV9cByesE10WCAA2KXMiGmLVzX9LT374/faUdd5ektSwoEQxpKgr0jPXVSQgALpM/fDmDDIlAb0yrA3HJtq/ae8jcPGJG0sfmqmFTTP6Bcl+PRVV9g7n9rZlJH4sPDhxvcnfscyoAOFhbZ3eJWOeQBpZbX52E7f9PC0cYYEjExb+fzlpjDtS40+1Pt/71fPfs51NT8OUXs9f6ejxeW789Je1w9ShAm+7sqXTnnkhj01GTs3m3+RBpgZB61Ed/MhkBwFMMLiSC3vIWvXC3O2l/ugU9dVuJvJmn7mz33BdyzGKfdkQsLKs0n0zB2/8xLnppvBmyZqtTlyP1aOuHM1bRJwDSwePJCADmM7DQXroNGGv+sCjf1DY0OmPM91cfMY9OWZ7Sc90Owv3jFpsjPuuLoHcTfj1vfUpL3+pOw53RuWZDabkzc0ZjFc1iuIE+AZB65ifW+T8/trv8oXUMLLSXf3oz1xRVVDtlyCduLU7Z1v/x9Bg43ryet9346b1X721o6mbKj42eG22eXbrR1DgUOGpTq/+ds86c9Tx9AiCl1FmfncALgF/m9j8k4u1fz0Zdkr79X5fGt7jPvjvHbDpU4Zux+PaU5WkbiyuHTjZL9hwwLuUEaGvrf357lt3RwQZAyrIB1GcnMAAYwqBCe7l39AJT61ir337y1pnOMdMWyfoZqtP85qtFbqIFRfY8Pp3j8Y2JS53aBVANW1do0zuxAZAy1Gcn6Oz/fGEFgwrt4ZLBE82i3W7V+1+9t8z0emVK2sfu1jdym9980/jqqwV57onPT/tYaA2G6dtKnJpHmjL5BR+MHQSKFdZ3t//tP/5Z+YN2MaDQ3rS26nq3zm9/nLvKVufzQ9rkz2etsZX30lncprNP3mLVmR5O41i09e4EdwEgheyyvjsBOwC/EMoZUGgrt8kbrBbRceXsVj/nuC17Upr2d/pUuHFmXpo6JqqzvWzwRN+MxXkv5JghawudKiJVUddgA8pU1E4A8Hz2L9p79n+W/CFjGUxoj7F+adUW36WznUrbDleZPmMW+m4s7xw1124np+Mmu98usd0yYoY9onFJ2kTq42nIoIDAMiaUFe/Snrf/24SVDCS0tYqbXvzbfKjSGSOtgcpQebu8UN64/TaeWofg7fydKR2PmTv2mUt99PZ/DE3LfHLuevtm7dJdgP9bstF0zR6LfYBUsFTo3Z4AoK+wh4GEtl78e+e9nU5VcNt4sML8y9uzfDumd7w72xSWpaZboKb9fXPSMnsHwY9j8dFXp9piOy41C9JiRlrUiGZBkAL2WB/eJmXndJL/+WmhnoGEtrz9PzhxaVovrrUl1e1Pi/J9c9ntRGgFvt/Mz0tJt0AN3noO9m89e3WiP5i+0qmeEjrHhq0ttE2OsBOQZNR3P9m2ACArfpH8z8MZRGjr2b9rZ7RbyirNhwb6v4GLnn8nO6Vy08EK88X4fN9fWtOAaHJhiVPFgbRboDY4YhcAUsCr4ssvbMsFwJvkf17MAEJb3sz0LdUlaXGZ+8cvdmaMH5M330O1yXnz1XsQA1dv8fVOyPFcP3xa0sYiWdIA7sNDJmEvINkstr68Def/dwt7GUBoLb1fn252O9S+VTVm025zwYvjnBlj7cant8qToeKqWnNn1K1+9i+s3Gxc01v5O0zfiUtsgSU/8++j5prLXp4ogT22zUH2Wl/eSuev5//fFRoYQGjtluywddtSckadKO2qqDH3jlngVOtW/bxby5KTXaFn6g9PXubUvLv21akm/0C5c0GAdsXcWVHta/RoTDNjNAjAxjlHg+fLO7UmAOgmZDF40Fq+Om6xU93+9FLWAHl7PN+ht/+LB02w9eXrklRbQbM2xmzebX+OK2OitfZ/NmtN0sYk6NIUxoenLDed+nNvwUGyrE9vxfl/T/kfchk4aA16Y3zkxiKn0rJW7S0zn3pntjPd2nSX4msSZO2tqk3quOiZ+g9nuFW57uphU8z4LXucuhDokrScd2eaGrlIrvXprdgBuJb8f2gNmiv+o9xVKa9U1x5pEZlfzVvv1DhrS9zc7XtTc1FtzwFzyxsznGplq8GRHukgAgD4m3oA17YmALiXQYPWcMPwaWaxOAxXpG+Jc4v2m56D3TnX1LdxNcKpKqus9zieXpBnPuBQ5Tqt4Pha3naOAggA4Hiy4p9vzRHAnxg0aM35qxbQ0fN0V6QOwqW0P+UKefvfUZ7a+xVadfCWN3KdGqd/HTlHxqkKj00AAO/zVGt2AGYwYNBStMHJvuojThmzSVuLnWvP2n/5prSlq7l0DKBO6v+WvOdUCWoCAEgyM1rq/DsItQwYtLToT6ob1CTi7N/P9f5PxGfemZ3yt/9j0iMHfat2abw+NGiCKTzMLgABAHjUWt/eggDgZuEoAwYt4cs5i0x5nTv1/vVc+3cLN5hzHHr7v+ilcfZ2ezqzK7RynUupksqjU5bbCo+IAACsT7+5JQHAwwwWtARtEztju1vd2JYVHzQ3vu5OT3bNu35EHNmeNFdW1CDvf+esdapYkl4InLB1D56bAACaebglAcBzDBS05OLfL8UgHHSoBnvZkXprxM526O1f69zP3LEv/VkTR3UX4IAt8+xS8PTVcYvMbtICCQDAWN/eggCAAkBwWjQ/fMHuUuPKy7/uUkwuLDZXDZvizBjrJUWtbueXbWz9HH9e/J5TaYHa30H7BLiUoUIAAEkrCHRK9Rt5ofymjQwUnIruL+SYZ5ZudCrXuriy1jw4YYlTLVive3WqKUxSvf+2auPBCnPHu7PdqZ0gaDObDaWH8eAEAEFno/Xxp3j7v03YyUDBqYrRNOdZu1PvX9PBRuRtdyrtTysrakEbP2rke0X2lr1L8/apBXmmsq4BL04AEGR2Wh9/igJA35LfUMpAwck4T97+x27e7ZTh0tKwN4+Y4dQ4//NbM22nOD+qoq7e9J2wxKnaAFpC2R5Z4ccJAIJLqfXxp9gBeEKoYKDgZHwlZ5FzZVZ/v3CDU2Os6Xaa9udnLdlzwAaDLo3rQ5OWOdWmmgAAEkyF9fGnCACGC40MFJzw7V8ck6bRuaS1+8pslziXxvl701bajAU/Sy/V/XzWGqfGtWv2WHsRFBEABJR6YdCJnX92Thf5j2MZJDjZZarH565zqrCKftaHJy9zqof5ta9MNXOK9juRXaEXAq8bPs2pefypt2c51bGSAAASzBjr6//x7T/eS/7jfAYITsTtb8007x0od8ZYadpfdGOR+fDLk5wZY61P8OfF+b49+/976VHQkLWFTtVV0BTG8LIC+gQQAASV+dbX/+MFwPhn5T/mMUBwoq1/NfQunZ9qlsJ/jF3oVE8FTVfLdyjIUm0tq7Tj7FJ6pdawWLOvDI9OABBE1oXCsU+f6Pz/fqGIAYK/d0xq4Lc71FjliPdm6lLtei1Y8/Karc4VrNGdFu0WeMngCU7ttPzPnLW+v2dBAABJYIfwlROlAP5I/kM5AwTHo4Zdu/25VO9/86FKc6tDPez1foUGWQdq6px0DAdqjpgHJy516q6FXgz1Q4llAgBIMeXW1/+NsuK6A/A7oYkBguPf/r86brFTF//0mOK3C/KcalqjRX9m7XTbGS0pPmhz7V2a2w9NWmr2VtXi2QkAgoT6+KeFvwkAesi/eJ3BgeO57OVJpuBghVNGKq/0sFOtftUR/XDGqoxwEFptTytFutRrIV6wy6ndLQIASABDhfOPP/+/XIgzMHA8f1yU75SB0lKvfScudWqMr31lilmXIRfSDtXWmV6vuFVz4ZYRM8y+6iN4dwKAIDEqFIlfevz5/8fkX85hYOAYt74xwxQ5VO9fNWpjkVPV6fQyWtayAqeOWE6noesKTef+bjmJ51dsxrsTAASJ3FA4dt3xOwCfENYyMKDoIn9l3TanbqTvlGDlnvh8p9LR7orOc+6I5XTaXVlj7onNd2q+azGjdftJCyQACAxrrc8/LgD4V2E7AwPKV3MWOdXtT8MUfYs716G3/4sGjjfDHAuyWiI9Tx+3ZY+5eOAEpwJevYdRm0E7MQQAcAq2W59/XADwZeEIAwNXDJlkJm51p1663t9asKvUqW5/HfvHbTc9V9P+Tn8XoN72CTjToaMAnfejN3EhkAAgEFSEwtE+zc6/38gz5F88xKCA3or+75mr7WUul5zNL8UwnelQDrqmy03fvjejncV8CcpufH26O0FZVtw8MH6xUztfBADQDh6yvl++OUt4nAEJNlqM5iYx2Esd6vanb2vTtpWYy16e6FTanxrSTG9Le6Sh0bZh1g58LlVjHLq20FaSRAQAGc7j1vfLP7oLzzMgAX/7l4X9p0X5tsGLK9IzWy1U5NI4XzxogtlVURMIh7HtcJUNKl16Pp96Z5YpLKvC2xMAZDr9hK6aAniRfDOSAQk2H3ttmilxrCramE27TBeHiv7oLsuLq7YExmHo/cY38rY7VZVRyxmHl23MuMuZBADwd7xjfb/842L5xTgGJLhoPvokhy7+qfZU1pjeDl38U/5t1NxAlp69z6GujMo52WPMhtJyPD4BQCYzzvp++ebDwmoGJLg8MH6JqaxvcMYQ6THFHxblO1XyV9P+xm7eHcg+9Lk79jmVFqh8Y9JSU8tdAAKAzGW19f3yjyuFfAYkmFz+8iQzY/tep9KfFu0+YG4YPs2pG+bfnrrcuSOWRKm8rl6cxxqnugVqK2kN2BABQIaSb31/KBy9Wr7ZxYAED02de3zuOnPYob7omqL4k5mrTReHDNH1EqxMt0FWMB2HBpeLdrtVq0GzNe4ds4BugQQAmcpW4SrdAbhBaGRAgkfv16eb+bv2G5f80pRtJbZoi0u1FdRwBj21rLq+0TaX0vN1V56d9pV4YdUWw3VAAoAMpF64/lgAwIAEDC2b+/yKTU4ZoO2Hq8yXRi9wapxvfSPXFB4mrez45+dSv4bb35pplpccJAggAMhEbtAA4A4GIlioAf58bL5TZ9J6eU4bFLlkgLTk77B1hXiO4/RW/k7TY+B4p47JfjM/z95jIAAgAMgw7giFsuKPMhDBouuAsWbMJrcuOGmworUKXBrnO96dbSrqGvD6x0nvm3xt3GJbE8Gli7JzivaboLcJIADIMNT3EwAEj/vHL3au89nTCzc4d8Qy0bHaCqnSyr2HTLcBY516nv81YUng73EQAGRiABCJPclgBIcPZI8xq/e51ft848EKpy7+Kd+ZutwcrK3D259AmhXwnSnL3SqV/fwYM2PHXgIAAoBM4klNAxzEQAQl7W+0eXrBBqfeZCrrGuyWsUvlZG96fYZZUXIIT38KFVXU2PRIl9aPpjEWV9YSAGBLMwP1/fLNMAYjGPzL27NMgbxNu/SmqLXkew5yp4qcdr/TKoWc/Z9aWs1x6LpC8wGHugXq7tn/LXnPqYZZBABwugBgKoOR+Whls4Grtzh19q9d2f5j7EJn0sbOyIqZfx05x6zffxgP38Lnq8V2XFlDenHxtjdybVogAQBkRD8A+cdyBiLz0fzrbQ7lo+sxhQYs3QfkODPG2k/+pVVbTH0TNeRbosamo+bt/J3m0sETnXnGZ3uFncpq6wkAwHWWEwAEgMtenmhGbSxyqt7/pkMV5hNvznTq7fCu2Dy2/lspLe2sN+xduuNx7atTzayd+wgAgAAA/H/x7/vTVzrV2UyPKbRHgWtpf8uLD+LR26CFu0vNta9Mdep568XUXRU1BABAAAD+5ephU8xax9L+tNvfeS+Oc2qcvydBFmq7frdwg1MlgrUZ1Yi87YFq70wAQAAAjvHHxe85ZWSq6hvMA+MXOzXGVw2dbNY4FmT5TXsqa81HX3VrF+DWETPM3upaAgAgAAD/cYsYqO2ONaKJFewyF77kztt/5/6jTXhZgalxrLKiHzV0baFza6zf0o0EAOB0ALCCgcg8tHLZq+u2mQaHmtDvLK82d0bnOrUV/O+j5pr8A+V47wSouLLGfGn0fLd2f4ZNNpscqq1BAADHsUIDgG0MRGahDvQbE5eaPZXuXFLS4iq/X7jBqcIw2tVOu9uhxEizVLR/glvdAkebR6YsN9X1jQQA4FohoH0hBiLz0LeSqdtKnDEseo9qwe5Se2Thyhh36h8335y0zJTWHMFzJ1A6nj+btcbuYJFmSwAASYZByLyt/5/OXGPKHGpEo0VV/keMizpVV8ZZW8RO274Xj50Ezd9Vam56fbpTO26aFrijvJoAAAgAIH1og5WlDuWj60vTnJ37zSWD3an3r0VrHp+zLvDtYZMl3U7XplVdHWoZrKW2X8vbbuqbjhIAAAEApGdb+luTlzlVira2sdHm0Ls0zpoDHrQiMKlWYVmlc2mBX4jPz+hdAAIAAgDwewAwaZlT3cqqGxpNnzELnQsAuPmfXG0XR+paAPCZd2ebrWVVBABAAADpq1OuZ6iuSCupxTe5lfuvZ77fmbqCuv9Jku5gPbuswHR/wZ1GUNoGuv+KTRldD4IAgAAAHLgE+KPc1eaAQ7fT91UfMf9v2gqnLgH2HDzRjN28G2+dBC0vOWT+6c1cp9bdXdF5ZmOG1wMgACAAAAe4cuhkkyPOyZW0JP2c07aVmOsc2vLVYOX+cYtt8SKUOJUdqTP/O3edU2mAHxo0wbmiWwQA0BwAhKMUAsrAQkAPTljiVCEg7QD4hBj+Lg4ZmIteGm+GrSvMeMOfSunx1YeHTHIqI+QrOYvMgZq6jH82BAAZVwhoG6WAM5gha91yTpsOVZhPvzPbdMhyZ4w//fYs222REKD92ltVa/qMXuDUGtN6ENq9MggiAMjMUsA0A8rgmgDbHGsGNGzdNtPNofxvbQakrWy1iyFqn7SaXhfHHMxv5ucF5vkQAGRmMyACgAzmKccMVGVdg82ndmmML5O3QJeKL/lRuoXuUvU/5ZpXpmR89T8CAAIAcBg9T13rWK/6OUX7nboEpvSdsAQv3g71X77Jnqe7VAvi5bWFpjFA9z8IAAgAwMHiQA9NWupU2VrNpf7hjFVOjbOWrZ0rgQtqvVbuPWRuGD7Nqed97+gFgXr7JwAgAABH0TSlERt2ONWtrOBghbnNsVzw29+aafZW0x2wNSo7Um++PWW5bavrUprtNIe6bRIAAAFAwNFz9UKHypRqieDnVmwy3Qe4Uw3u3BdyTHhZgVO9GNIpWwWyYJd1qC5t/Wu3zUO19QQA4DqLNQCYykBkPupIX1i12ebbuyKtq/4fYxfaugaujPMn3pxpVpQcwru3QNsPV9liSq6c/XcQbh4xwyzacyCQz4sAIOOIagAwjIEIBre9ketUExs9shiRt930HOROq2C9vPjUgjz6BJxG2rDqlXXbnKr3/4HsMeaZJe851WyLAABOUQhoUMj+g8EIBB37x81vxTm5dCFQ0wK/5tBb4rEz4gW7S/Hyp9Duyhpz6xtu3fHQt//iytrAPjMCgEwMACKxJxmM4KBvMXrr2iVpkxWXysMq/zVhiSmt4ULgyXZ2fjVvvVPPU3d2ZmzfG+jnRgCQcTwZCmXFH2UggoWmMLlWue63Cza45TDEUMYKivD2J5AeQ7lU7VH5ugR0RxqbCAAIADIH9f0EAMFDe5eP3OiWcyqpqjW3jJjh1Dj3ls8bhCYxrZFmd3xn6nKn+j1cNWyymVe03xwNeMMHAoBMDAAisTsYjGCht+q1f7lLrWw1ZeyNDTucenPUewuayojelwaeHxw43plneGb/uHl6wQYudRIAZCJ3aABwAwMRwLTAF3JMv6UbncpZ31VRY9PGXBpnrW/vUuZFMlVcVWv+07G0zjvenW3W0O2RACAzuUEDgOuFegYjePQW5+Ta1mbujn3mmlemOjPGajC/O3WFOXykPtDOQwNNLZJ0TrY7OzgXvTTeDF1biOcnAMhE6q3vD4WjV8k3WxmQ4KHbmz+btcYcrHXnnPqQfFb9zGc71CzoI0Mnm9GbdtljjCBK/9YrSw7ZIkkuHd/oboXePUEEABnIVuv75ZsrhXwGJJhc/vIkM7mw2CnntKz4oLn1jRm2MpsrzuTBiUtNUUV1IB1HZX2DzeLQxlSurIsLXhxnJm0txusTAGQq+db3yz8+LKxmQILLV8YtsgV3XJFWYvvL4vfMOdljnHIor63fHsgqcot2HzCXDp7o1JrQYxuXymYTAEArWW19fygcvVi+GceABBfdTnctZ31PZY1Ns3NpnD/z7uxAbin/Z84ip56TBpbvcXGTACCzGWd9v/zjIvnFOwxIsLliyCTnnNOYTbtMF4fuAuiRxVPz85xqy9xejd2825agduUZ6TFFeNlG09DEvX8CgIzmHev75ZuuQj8GJNhom9PfL9zg1BZ1bWOjeWDCErfSLweMDczbpe7S/Mvbs5x6Pp96Z5ZTbbMJAKCN9LO+P9R/dBf55ucMCFz76lSzcLc7rU71RXr2zn3mspfdOV8+I6v5fLk6w8+Xj3j3NFwq3KT3NDTtL+glfwkAAsHPre8PZed0kF/0ZUBAdwF+OGOVTbVzReVH6m1jmTMd2mbW9sY5m3dntLNYWnzQpv25lKlx//jFZkd5NZ6eACAI9LW+3yoc/YL8iwMMCuhdgIkOpT/pSe3C3aW2VatLOeZfHbfIVsbLRJXV1jvnLHTejy7YFaj7GQQAgeWA9fl/VST2WaGQgQHlS6MXOHUOqib7+RWbzbkv5DgzxufJZ31h1WanSjG3ROpAp2wrMZc71L65s7fzVUPaHwFAUIoAqc//q8LRW+VfLGdg4JhBHLK20CnnpI2N7onPd6rO/CffmmlW7T2UUXXmdVfjq46l/V03fJpZt78MD08AEBQWCTcdHwBcI/9iGgMDx/j4a9PNTscq12mnufMc2gXQlLOnF24wVfWZ02lOOzZ+wKF6/8qzywrw7gQAQWKS+Pyr3w8AsuI9qQUAf8+v5+c5ZaC0mmHfiUudGuNLX55ou81lxNn/kXpz/fCpTo3/LSNmmN2VNXh3AoAg8aZw8fsBwLOjusm/eJGBgb+5rT54gjinQ04ZqfWlh805DhUHUvT2eSbo/5ZuNB2y3Bn3s2wFTC7+EQAEjv6h58ac9X4A0G+kXgR8WjjK4MD7Oetx85WcRU5tUeu9hd8uyLM37V06CsjZ4nZaoDZounLoZKfm9kOTltLtjwAgaBy1vj47J/S3isR+LJQzQHA8Fw8cb15bv82pt6TNhyrNrW/kOleBrtjRrWitG/GdqSuccg5XD5tiZu7Yh1cnAAga5dbX/4MisfuFIgYI/v5N6d7RC8zWskpnDJVWchu0eqvpPsCdC4H6WZ9dutE0OlaDXgNDvXypbaVdGWttfvXLOWvtnQVEABAwiqyv/weF41oLII8BghM5pwErNzvVHlXrGNw7ZoEzY6wV8/75rZlmRYlbdy60ct794xY7lX550+vTzbKSg3h0AoAgkmd9/T/uAMR7yX+czwDBidCyrvkONbHRN9OovJl++GW3CtL8et56m83ggrRj3lv5bqX9aatfbXqVaQWYCACghcy3vv4flJ2jTYHGMEBwsjfU/85dbSoduhCold0enrzMXrJzZZw/PGSSmba9xIk7F5sOVdgiOk7dtXh7llNzmAAAEswY6+tPqHBssPyGegYJTli+9sVxZl7RfqeM1tp9ZfbCl0vj/LVxi5y4nf6b+XlOjaum/U0uLMaTEwAElXrr40+qSOwXwmEGCk7GV3IWOle5Trd8XRrjrtljzVsbdvh6TFfvPeRU1UXlgfFLTB2tfgkAgkvZiTMA3g8A7hVKGCg4Gdpw502fO6e/V1FFjXNb1be9kevbW+rqRL8xcakzrX6VSwZPNPN27TeU/CEACDDFwj0nDwCy4r3lN+xgoOCkdwGyYuaOd2fb5juuqPHoUTNsbaFT46z3Fvot3ejL8dTLlR8aNMGtstbz1puKOs7+CQACzQ7r408RAHSQ37SOgYJTobe+f7dwg1PbqVpkp++EJU6lq101dLJZ7rN0te2Hq8yd0blOXV79tASsmdJvgQAA2sE66+NPqUhsAgMFp6P3iBn2QqArBQL1Vv2ErcVOlatVY/u9aStNeZ0/jgI0qyK8rMAeAzlzcVU+6/MrNtmURUQAEHDGhk6rSKwfAwWno2P/uPnZrDXmYG2dMwbsQE2d+enMNbYSnCvjrAHL6E3pb1ijP35p8UF7N8GZOZoVN18avcDuWiACAIj9/vQBQDj6lRBNgaAFXDp4opmxfa9TfQIW7C41Nzh0IVCPLPTC3e6K9PYJ0F2IJ+auc8oBXPDiODNm8248NwEAqE9X396CHYAbCQCgpdwTn28OO1RTXfsEPL1gg1Mtg7sNGGveeW9nWrex9e3/ksFuXfzTtL8ah8pXEwBAUgMA9e0tCAD0ImAtAwYtfUN9M9+ttMC9VbXmE2+61S3w+uHTbJfDdAVN2hDKrf4VY82WQ5V4bQIAaKbW+vYWKRKbwYBBS9FKe8WVbvVVf1feqM9yaBdAeWpBXlrGSrv9uZTzr2f/f1qU71xnRQIASCIzQi1WOPonBgxac1v9qfl5Tt20Lq9rMP8xdqFT43z+i+NS3pCpqLza1s93aZz+6c1cpxpXEQBACniq5QFAc0VABg1ajF6sW7zngDPGTO8t5u7Ya3oOnuhUTvujU5anrP6Cdsz7o7xJd3Wo29+FL40zw9YV2mMLRAAAHlnxz7cmALjWKxvIwEGLOLN/c856Wa07FwK11K6mMro0zj0HTTCxgl0pGZ8VJYfsXQmXtv/vG7vQbCPtjwAA/r4E8LWtOQLoKeQycNBa56Rn640OpQXq7fZ/csjJ6ee8KzrP7Eiyk9Pg6Ee5q92qnDhsshm3ZQ/1/gkA4HjUl6tPb8UOQDchi8GD1tJnjFuFV/TeQtayAtN9gFvV7fqv2GRqG5OT4qYB3HhxpJe9PMmZMekijukH01eaSur9J0W1DY3mkSnLbY8K7JxzZFmf3ooAoJPwXaGBwYPWcE72GDNo9Ran+gRoet3nRs116m1X6/FvPFiRlPE4VFtnvjt1hVPzrtcrU3zXN+G091AEbVBUVFHta7aWVZrX1m8zVwyZhI1zjwbPl3cKtUqR2N3CXgYQ2nIhcEuZWznYozYW2Vv2rozxbW/mmlV7k9PgpqSq1hZ4cmnO/X7hBufq/b+Vv9PcP36xHWs/8+8SHF/+8kQJkLFtDrLX+vJWKxy9Sf7HxQwgtKU40K/mrXfKGGvFuC86UuxGt2F/MnN10vow6A36l1Zvcea8V4skaXEnl1RwsMKpxlTgLIutL2+1suIXyf88nAGEtqAd4xbuLnXKKG8So/wBn6e86SXAW9/INYuSPLY6Fl+Ut78OPn/r02JO0Y1FTvWjqK5vNF/JWeTUkRM4y3Dry1ut7By9B/C0UM8gQluqsfWduNSeJ7t0IVB3Ljr62DB3HTDW/GlxvqlrSv4dC+0/0NPH9f/VgT4oc8ylt38NVF5dt818cOB47AQkm3rrw9WXt0nhaF/5A/YwkNAWPjRoghmRt92ptMC80sOm9+szfDumd7w72xSWpSbLYn/1EfPNSctsjQc/jsWVQyaZyYXFTr39692YL42ez9s/pII91oe3WZHYbcJKBhLaugugTWQ2O9SURe8CPL9ikznbh30C1GmM3rQrpeMxf1epuexl/1VL1PsJ/5272qkdplpvbrmUcgpOs1To3fYAIBw9S/6AsQwktBU9U1ej51JpVn1L++Jo/92C19S/2hS3t21oajL/O3ed7wolffy16Um/B5GM3aVPvDkTuwCpYkwoK94l1C5FYr8QyhlMaCsfE2OtOdqubNTq59QOeH568+0xcLxZufdQWsZDqwJe7qOx0KDymSUbndr6r6xvME9IIMXWP6SIcuu7261w/LPyB+1iQKE9/HTmGlNV706VNq0o98hkf5x/62fQbovprHKndzn8cizy6Xdm26DEJc3euc+pOhPgPLus7263IrHzuQcA7UW7tLmWFris+KC8+aa/+tkn35pp1uwrS+tY7K2uNX3GpL99sp79j9+6x6l5pIHvf4xZiB2AVLLS+u6EKBwdwoBCe9ELgS7dBTiWFpjOMev+Qo6JLC9IWt3/1oyFXkBMd/vk+8SRVjc0OhUARAt2me4DxmIDIHWoz06YwtEvyx96lIGFduWwZ481775X5JTxLq6qNR9OYw10LcPql+ZKpTVHzA9mrExbQ5jzXhxn5hTtd6rb387yavPZd+f4vqASZBRHrc9OmJ4f213+0DoGFtqLtt7VBiNOFW5Zv812m0v1WF0ib9vjfdbeVo9xbhkxI+VZARp0PL1wg1Pd/uqbmszTCzb4vrokZBx11mcnVOHoAgYWEnGD+zfz81KeztbeXYAHxi9O6Q1udbDfnLTUd0cmWoHwj4vybUXCVAeOy0sOOTNnNEFhbtF+c9Pr01n3kOrt/wWhhCsSe4rBhURws7xBunQhUM+/czbvTmk7VE3721Ba7svxKCyrNJ95d3bKxuKCF8eZ7BWbnGoxrY2atGFTR9L+IPU8nowA4DMcA0Ci0tp+OmuNOVDjThU3LYv7/ekrU9YhT3PG/ax4wa6UnGvrz9ACSDvK3To2mratxFw6eCLrHVK//R+JfTLxAUA4elkoHFvBAEMi6Dlogpm1c59xpZaLfs6ZO/aZ616dmpLtbu3G52dpyeTPjZqbkrf/ke/tdKroj9Yo+HLOItY5pGH7X3y0+uokBABd5Qc8QzYAJCyla+xCe7PcpTe7PyzKN+dkJ68gjrZR1qI79U3+3+7WM/mLXkpuV7v/mrDEqWZSqjc37GDrH9Jz+199tPrqpCgc+4L8gEMMNCSKV9Ztc8q4a0rep95Jzvm3Hi88PHmZM1kSeiNfb7knq0Lg5UMmmTyf3oM4mUqqas2VQyeztiEdHBAffU8oaYrEbhIWMdCQKLRPwO7KGqeMvOaiPzZ9lfm6vJ0mCu1rr+f+6ar33+YLgRIQ/W7hBpuxkMjx+H/TVphYwS6ntv71sqhmuPi1fTJkPDPl7f+65AUAWfFz5YcMYqAhkRcC1YG4Jq1Gp+mBiWJf9RGnUiP/JjWwscke5SRyPCrqGoxjO/9m8Z4D5rrhU1nXkC6ekwDgnOQFANk5HeSHfFvYz2BDorh++DSzYFepQchVldXW2V2LM5/j7R/SgvrkR0JJVyR2o7CEAYfE7QLEzffEeFY4VOUNoWPSS4rvvLcz7X0SINAssb456crO6Sw/aLjQwKBDotCc6bfydzhx+x2h47XtcJW5d8wC1jGkiwbrk9U3p0SR2ENCKQMPiaSPGNFtPml8g1BL7z8MXL0lqamhAKeh1PrklCkrfoX8wM0MPCQSbX07eM1Wp0q+omBLu/19bPg01i+kk83WJ6dM2TlnyA8dQVEgSDQff226U2VfUbD1q3nrKfoD6S7+M8L65JQqErtXaOIBQKJrvz8+Z61z1d9Q8LRozwHTfUAO6xbSSaP1xSlXds458oNLeACQaLS87NLig3gY5FtpvX8tWHQGb/+Q3tr/26wvTosisQgPARKNbql+ffwSc6i2Dk+DfCfdnXo9b7u5eOAE1iukm0gobYrEPiVU8BAg0Vw8aIJNC0TIb9p8qMJ8afR8zv4h3VRYH5w2haMXyweYxoOARKNbq/eNWUhaIPKVjjQ2mRdXbTHnvcDZP6SdnFA43iN9AUC/kWdKEPAYRYEgGWiXuciyAmt0EUq39FrqsuKDNlOF9QlpL/4Tjn0/1G/UmaG0KhK7VVjBA4Fk8E9v5NoOeeQEoHRL2x//ZOZq1iX4gWXCzaG0KxI7P9TcIZCUQEgKP5u1xlTV0ycApVfzdu03F740jjUJ6aZJ3v4HhMLR7iFfKBx7UD5UMQ8GksEFYnS11SpC6Tz7/2J8PusR/ECx9bm+UTh6mXyoXB4MJIt7xPgilC69+14R9f7BL+Ran+sb9RvZQT7Qn+WDVfNwIFkXAjUtkLsAKNXaVVFjbn0jl3UIfqDa+lr1ub5SJHaLsIUHBEkpESzc/tZM23wFoVSptqHR1vvn7R98whbra30n7UUcjsVoEATJQuuu/2lxvqkRo4xQKrRgV6np/foM1h/4o/GP+lj1tb5UONqHbABIJr1HzDALdpfimVDSdaCmzqb9ndl/NGsPfHL7P3pXyLeKxM4W8nhQkCw6Pzfa/HLOWvoEoKRKm1Hm7threg6i3j/4hrxQv5GdQ75WOPpDdgEgmfQYON5M377X0DEYJUt7q2rN3dF59u4Jaw588fYfiX0r5HtFYpezCwBJTwuMzTP7q4/gqVBSNHRtIesM/PX2r77V98qK6zHAr4VGHhokiy7PjTZvbqBbIEq8dlfWmOuGT2OdgV9otD5VfavvlZ3TIRSOfUY+cD4PDpLJx16bRlogSqjqGpvMUwvyTKf+tPoF35Bvfar6Vif07CjtDzCEBwfJRG9n/3FxPl4LJUxzi/abj746lfUFfmKI9anOqLky4H3ywbfy8CCZXPPKFGu0uQ+I2itN+3t48jIJLHn7B9+w1fpS31X+a1mXwFHcBYBk7wI8MmW5Ka3hQiBqu+qbmuydkksHT2RdgZ/O/kdZX+qkIrGHhVIeJCSTK4ZMMtGNRaahiX0A1DYVllWZe0cvYD2Bnyi1PtRZhaM95C+whAcJyeSMrLj5z7ELzbbDVXgy1Gppq9+Bq7eY7i/ksJ7ATyyxPtRpRWKPURgIks052WPNsLWF9hY3Qq3R1rJK02vYFNYR+K3wz2Mh5xWJdRY28UAh2ejt7R2kBaJWqOnoUfPL2Wup+Ad+Y5P1nRmhSOxRoY6HCslGjXkjNYJRC7Ws+KA563la/YKvqLM+M2MUifUUFvJgIdmc/+I4s3rvITwbOq20odT94xfbOySsHfARC63PzKAAQI8Bvi9U83AhmXQUY/7QpKWmqr4BD4dOKU37++DA8awb8BPVnq/sHMooRWLXCbN4wJBs1Ki/QZ8AdAoVHKww98Tn8/YPfmOW9ZUZp0jsDOHHQjkPGZKJXui6MzrXrN1fZmobGm1mAMAx9lUfMU/NzzNnc/YP/qLc85FnhDJSkdhVwnThKA8bklshMG5ueyPX/G7hBpO9YjOAJbxso20l3fm50awT8BNHPd94VSijFYn9VCjjgQMAAFjKrG/MeEVilwhLeeAAAACWpdY3BkKR2A+oDggAAGB94Q9CgVFzWmABDx4AAAJOQeal/Z2+UdAD8peu4uEDAEBAqbK+MHCKxC4UYkwAAAAIKDHrCwMYAHQU+ghFTAIAAAgYRZ4P7BgKpCKx80Lh2AD52sBkAACAgNDg+b7zQoFVdo7eBbhDBmEtEwIAAALCWuv71AcGXpHYb4VKJgUAAGQ4ldbnob8GAL1CzS0QKREMAACZylHP1/XC8f9tEPCI0MgEAQCADKXR+jr0d8qKdwuFo7OZIAAAkJGoj1Nfh06gZ6N3hsI0CgIAgExz/uLb1Mehk1YH7C4D9SJpgQAAkFFpf+rb1Mehk6YFdghlxW+XgVrJhAEAgAxhpfVt6uPQKe8CnCWD9ROhlEkDAACOU2p9mvo21KKMgJ6hcCwnRMtgAABwlybPl/XEsbfmKCAS+5xQyAQCAABH2RIKR/+Frf+2VwisYxIBAIBj1IWo+NcO9Rt5bigcW8xEAgAAx9L+FlsfhtqVGnifDOYBJhQAADjCAeu7ULsDgK4ymP2ZUAAA4Aj9re9C7b4HoBcCe4doFgQAAP7mWLOf3tZ3oYRkBXSSwXxUKGGCAQCATymxvkp9FkroUcAHZWBfFmqYZAAA4DNqrI9SX4WSUiXwRhngVRwFAACAz7b+V1kfhZJ2FNBRBrmPUM+EAwAAn1BvfZP6KJTUS4GdQuFotnxtZNIBAECaafR8Euf+KQoCeghTQ/QKAACA9NHk+aIeOObUVQjsKBHXXTLoBUxAAABIEwXWF6lPQindBegm/EooYxICAECKKfN8UDcccnqyAi4NhWPjOAoAAIAUX/qLWh+E0pYV0CEUid8iD+I9JiQAAKSIfHH+N9Pm1x/HAX2FciYlAAAkmXLrc5CvKgUOlYfSwOQEAIAk0WB9DfJbABC7RpjMBAUAgKSgPkZ9DfLdDoBWCbxT2MBEBQCABLPB+hj1NcinVQIjsUeEPUxWAABIEHs830K1P59nBnQOhWN/kAdVyaQFAIB2Uml9ivoW5MROwAXC29QHAACAdqA+5HXrU5BLdwLiH5WHtoIJDAAAbUR9yEdwqG7uBNwrlDCJAQCglZRYH4KczQw4S3hMHmIFkxkAAFpIhfUd6kOQ00GA3geICFVMagAAOA1V1meo70AZEQT0kgcaE+qY3AAAcBLqrK9Qn4EySFnxT8qDXSIcZZIDAMDfcdT6CPUVKOPqA3SUqO5zobDt4cxkBwCA92n2DbdbX4EyUP1GarngrwtHmPAAAOA5/8PCA7T3zfzUwLOFJ4RDTHwAgMBzyPMJZ+MgA3EpMH6RPOxwqLmvMwsAACCYlFtfoD4BBSoz4CO2rzPpgQAAwUz3Ux+gvgAF8jjgann4uWQGAAAE7MZ/s+2/GkcY3MyADqGs+OUyEVYQBAAABMb5L7e2n0t/KPRs9MZQOJYfonsgAEAm02RtfVacN3/016OATjIp7pavq1kgAAAZ6/xXera+E44PHR8EdBb6CttYKAAAGccWm+uvth6hEwQBXYXvhGghDACQSZR4tr0rjg6dKgjo4u0EUCMAACAzcv37WtuOUAsDgW8IpSweAABnKbW2HKFWKRw9W3iSIAAAwFHnrzZcbTlCbQgCegh/JggAAHDO+f/Z2nCE2hkEPCMT6jCLCgDA9xy2NhvnjxIUBHQV/iITq5bFBQDgW2qtrVabjVCCA4G/sBMAAODbN/+/4KhQMncCnuFOAACA7878n+HNH6XiTsBTMuF2s+gAALjwh4IVBJwnk+57QjGLDwAg7al+OH+UQjVXDHyQioEAAGmr8PcN8vxROgOBviF6BwAApJISa3sR8sFOwMNCfkjbTbIwAQCShdrYLaHmxj7U9kc+UFb8LJmM99le0wQBAADJcf5qY5tb+nLbH/lqJ6CzTMy7Bd0JOMpiBQBIGEetbVUbq7YWIR8GAZ1Cz0ZvDIWjKwgCAAAS5fyjy0NZ8autjUXI50cCl8uEnSaTtYrFCwDQZqrEluZam4qQMwpHLxMGygQ+wCIGAGhDml84OlS+Xh3KzumAU0GuBQGXyOT9HUEAAECrOCSExYZ+BEeCXL4XcL7wzVDYTmgWNgDAqQjbhmtPhMLxi3AgKBOCgDOFrwl7uBwIAHDSm/5lXpof1f1QBknPsCKx24XFIe1ZzWIHADhGnbDE2kjO+1GGBgEdZYLfKrxLhgAAgHfTPxKLhbLin7Q2EqEMvxzYSyZ8RKhg8QNAgKmwtlBtIkIBCgIuEB4L0UgIAIJJibWBagsRCmAQoD0E7hVW0EMAAAJT07/Z5t1rbSBCwQ4E4h+VxfC2UIlxAIAMRm3c6wL5/Qj9VZHYBaFw7A9eqiCGAgAyjT2ejWPLH6F/UHZOZ1kcjwgbMBYAkEFssLZNbRxC6KQ7AZ2EOyVSnixfGzAcAOAwDZ4tuzNEJz+EWnQ5sKMsmmu8RhjlGBEAcJDmZj7Ntoz8foTasCPQV3iPLAEAcIR6Id/aLoRQe4OA+C0SRY+TBVWGcQEAH6M2KhrKit+M4UYoMZcDO8iCulQW1q+EAnYDAMCHuf0F1kapraKeP0IJPw7oFgpH75KvU4VGjA4A+IBGa5OabVM3DDVCyVK/kdpQqIcstmzvrI32wgCQDo5aG9Rsi3pY24QQSslugKYL9hFWCTUYIwBIITWe7elDeh9C6bkb0DGUFb9RFuDLXlMhdgMAINlv/SXW5qjtoX0vQmlWOPpBWZCPCgsxUACQRBZaW6M2ByHkm90APRLoLfQXDmCoACCBHPBsS29raxBCvrsX0EEi867CfaFwbLH8ug7DBQDtoM7aEmtTxLaojUEI+Vz9Rp4ri/W3QiF1AwCgDXn9hdaGqC1BCDm5K/A5ieBz5GspRg0AWkCpZzM+hwFFyO27AR1kIfcUfiKspMMgAJy0c1+zjfiJtRlU80MoQ5QVP0u4XRb2ixLd01MAAN6n2Sa8aG2E2gqEUAbuBoSj3UPPRu+Ur7O9Ep7UDgAIbk5/o7UFzTahO2/9CAVjR6CbLP5HvLzeSowhQKCo9Nb+I9YWIIQCqEisl5ctsJb7AQCBOOdf6635XhhAhJBWE7wjFI4NEKNQhJEEyEiK7BrXtY4QQsfdD9DdgPO85h4xoQqDCZARVHlruo9d47rWEULoBEcC2m74QnlLeEC+FlBECMDpYj4F3lq+0K5thBBqYTDQWfiBsFQoI2MAwImb/WXemv2BXcMIIdSOQOAS4afCdKEcIwvgS8q9NfpTu2YRQiiBgcBVwo+FWUI1BhfAF1R7a/LHdo0ihFCSgoAzhOuE73t5xHQcBEhXp77mNfh9b02egYFCCKUiEOjs9Rh4VNjEZUGAlF7u2+StvZ6c8yOE0h0MPCYs8boONmKkARJKo7e2lnhrDaePEPKRwtEeYpgeFkYJWzHaAAlhq7emHrZrDCGEfLwjcL4Yqvvk6xAhnx0BgDa98efbNdS8ls7HsCCE3FC/kR1Cz46SQCD2GTFevxbyuCcA0KLz/Ty7ZnTt6BrStYQQQs5J24tmxc8Wg3a5vMn88LhAgKJCAO8X7znm+L9l14quGVrzIoQybGegswQCd8nbjdYm30I9AQh4/v4WuxZ0TejaQAihAOwMaObALWL4/ixfc4VijgggIFv8xXbON8/9W+xaQAihAO4IdBBDeJm8BT3otSNe5vUsx1lAJtFg57Ztx6tzXeY8Z/sIIeQpHO0uRvJmMZBa2SxHqMBxgONU2LncPKdvtnMcIYTQyXYFRp0ZCse1psCnhIhQwsVBcOxCX4k3dz9l57LOaYQQQq1Uds45YkjvFUYIm72KaBwTgJ+290u9uTnCzlWdswghhBIWCJwRyopfIQb2IWG4VxZ1Pw4I0sR+bw4Ot3NS56bOUYQQQkkNBjSL4Ebh28KLwkzhAMcEkOTt/QPeXHtOeMTOQW7xI4RQWgKBDmKEu4XC0etC4dg98v0z8nUFbYohoW13m+fUM3aO2bkWZYsfIYR8pXC0q02xitgSxE/J9wu8YICdAWjNm36dN3ceFz7ZnKoqcwshhJBDen5sdzHeXxa0OdFKYZdQjqMDj3JvTqy0c0Tnis4ZhBBCGSTbqTD+Wfn6C2GsFxDsEepxhIGh3nvmS4Uxdi40zwk67iGEUCAUjp4lRv82+dpXvj7t3eZeLOwlzTDj0vT2es92uH3Wzc+8dygr3oWFgBBCQVZ2TidxBheJY7hJHMPdwneFLPn1sT4FOFK3KPaeXZb3LO+2z1afsT5rhBBC6ISKxDp52QU95eu1trhLOPon+TpDqOVSoa8u7B31nskMe/EzK/55+8yan103+ywRQgihBAQHHWxd90jsYZsPHrbdDDcKO72KcFr/vRHnnNAz+zJvJ2aHsM67v/F7cfJf8epB0FgHIYRQGtRv5IXefYJvydcnvLNmdVLzPYe1w7ttzs7Bqd/mdYyKhDxv7MZIgDVYvv5YuEfe7vXcHmePEELIx8rO6RKKxHuJA/u0OK+veE5MLxsOFUbZnvCR2Fphe8A6H2o1va3CImGS8KZXzfFpb4zub76VL2OnY4gQQgg5r0isORUxEr9UAoPr5PtPCP8q9PF6HGjhmX7CO8I4YbWQ7znMeke267d6n3m193d4x/s7/VzoGwpHvyBfNe3uJvn+avl6cejZUd1C/UYyPxBCCAVQ/UaeIc5QUxO1mqFmJFws339YuFK+v0q+Xi/cINwRyoo/aonEnpT/NsjS7GyXn4QVLWyctN/7vSf7c8Yd9/OePO5z3OF9tuu9z3ql/ez6d9C/i/6d+o/uYks3I4R8of8PdcumCbTLXjsAAAAldEVYdGRhdGU6Y3JlYXRlADIwMjEtMDEtMjlUMDg6MzY6MDQrMDA6MDD/of1LAAAAJXRFWHRkYXRlOm1vZGlmeQAyMDIxLTAxLTI5VDA4OjM2OjA0KzAwOjAwjvxF9wAAAABJRU5ErkJggg==;" vertex="1" parent="WavSGEP2uycEWBqPC76q-32">
          <mxGeometry x="8" width="42" height="42" as="geometry" />
        </mxCell>
        <mxCell id="WavSGEP2uycEWBqPC76q-34" value="&lt;font color=&quot;#000000&quot;&gt;Keycloak&lt;br&gt;Instance&lt;br&gt;&lt;/font&gt;" style="text;html=1;strokeColor=none;fillColor=none;align=center;verticalAlign=middle;whiteSpace=wrap;rounded=0;" vertex="1" parent="WavSGEP2uycEWBqPC76q-32">
          <mxGeometry y="42" width="60" height="30" as="geometry" />
        </mxCell>
        <mxCell id="WavSGEP2uycEWBqPC76q-35" value="" style="group" vertex="1" connectable="0" parent="1">
          <mxGeometry x="520" y="470" width="60" height="72" as="geometry" />
        </mxCell>
        <mxCell id="WavSGEP2uycEWBqPC76q-36" value="" style="shape=image;verticalLabelPosition=bottom;labelBackgroundColor=default;verticalAlign=top;aspect=fixed;imageAspect=0;image=data:image/png,iVBORw0KGgoAAAANSUhEUgAAAgAAAAIACAYAAAD0eNT6AAAABGdBTUEAALGPC/xhBQAAACBjSFJNAAB6JgAAgIQAAPoAAACA6AAAdTAAAOpgAAA6mAAAF3CculE8AAAAB3RJTUUH5QEdCCQE7djyZAAAAAZiS0dEAAAAAAAA+UO7fwAATwlJREFUeNrtnQmcVcWV/x+CoAZwJQaXaBSNmigukziTxMxk1JhEnMmiGUyMmuSfmGWyzqhJjNkdfK/RRgUEFMUV3ntAs2/Nvu9b09IszdJAN9BA0zu9Uf9zqi+RJCy9vOXWu9/f5/O1G0X6UbfqnHOr6pwTCiGE/KF+I88IhaNnhbLiXYWLhIvl1x8ORWJXClcJ1ws3CHcIj1jC0Sfk9w2U74cKU4Tlp2CbYE7DttP8GVPsz9KfqT/72Odo/kw3eJ/xKvuZ9bPr36H576J/py6h7JwOPGiEEELBUySm9BBneJlwgzjJT8iv/1W+9pGvDwmPC/8nvCPkCKuEDcJWob4FDjzd1HufdYP32XO8v4v+nX4u9BW+IHxWuFW4RugZenZUNwmAmB8IIYQyQM+P7SLOrZfwKeHL4uR/JF9/J7wuxIQ5whrvrbvCAeeeKEqFQm9HYarwtvCi8LQ3Rvd7Owq97BgihBBCvlW/kRfaN9qs+LG3+FeFscJ8YZ2wXSgXmgLk6FtLkzdGRUKeN3ZjhEHCj4V7hJsEjhEQQgilQeqAIrGb5W31W/K1vzBD2Cjs9N5u9W2+EYee0GOFMqFY2CGslbHXwOD3EnB9Wb7eSFCAEEIoUU6+kziZbvZ8OhK7VhzNl4Q/yvfThVrhKI7ZFxz1qLXPRp+RPit9Zvrsmp9hJyY0QgihEys7p5M4Cr2trlvMdwvfFSLe2/0eHK1z7PGeXcR7lnd7z/Yi+6wRQggFWFnxs8Qh3ObdTH/aO7dfJOwVGnCiGUOD90wXec/4ae+Z32bnAEIIoQAoEjvf3jAPR3/hXdJb4b0t1uMoA3WnYI/37Md6c+EOOzcQQghlkJ4f213e9P5TDPwQz+jvEg7jCMHjsDcnVtg5onNF5wxCCCGHpBXnIrHLhE8Lv/FSyeq4tAetvFhY580dTen8pJ1TOrcQQgj5RFpaNhI71ytD+3nhL16BmSM4MkgQR7w59Rdvjt1g5xxljRFCKC2Ov3MoHP248KhXKGaul4PPmz4kc2eg1Jtrg+zc0zmocxEhhFBSnf4ZYnivEKOr1faGC0uE/TgmSBP7vTk43JuTV9g5ihBCKGGO/xwxsPcKWkN/s/cWRpoe+CnNsNTOTZ2jOld1ziKEEGqlnh11phjTi70mOmGvBGwT2/vgyDFBkzdnw94cvtjOaYQQQidROHq+cIvwmNclrgKHAo5TYeeyzulw9OZQVpz0QoQQsuo3soO8HV3mVWYb6OVis70PmXhMsEwYYOe6znmd+wghFDg13+K/WYzhn4VcrzIbrXIhCC2P93hz/s92DZBFgBAKhCKxs4U+QlTYIlTjFCCgVHtrICqBwF2hfiMJBBBCGfWm38E6/XD0cvn6AyGPC30AJ7w4mGfXSPNaOZtCQwghN6Xnm3qpLyuuJXl/Ld+vZ4sfoAVHBM1r5dd27ega4q4AQsihbf7zvW1+bb6zgUt9AG26NLjBW0N96FSIEPK3suI9xFB9SxgpbMWIAySErd6a+pZdYwgh5BuFo529POclXkW0Row2QEJptGtL11jzWuPCIEIorU6/p9cQpYDzfYCU3hMo8NZeT4IBhFCqHP8ZwnXC94SFXt90jDJA6qmza7B5LV5n1yZCCCXJ+V8l/FgMz0zy9wF8VU9gpl2bukYRQiiBjl+3GX8iRma6cBiDC+BLDts1qmtV1yxCCLXD8R+73LdUDEsZ5/wATpQaLrNrlsuCCKFWKRLrKFwohuMBYSM3+gEczhzQNaxrWde0rm2EEPoHZedoHv95XtGRmFCFAQXICKq8Nd3HrnFd6wgh9Fdlxe8QA5EtFGEwATKSIrvGda0jhFAoHO0lPCWGYQ0lewECUWJ4jV3zuvYRQoF84+8mhuARQXP5K+nOBxCo7oOV3tp/xNoChFDGn/N3kMXeXSL/O2Xhz/Yu+OH4AYIbCDRaW6A2QW0DLYgRysg3/rNkod8uvOCl9GEAAeAYZZ5tuN3aCoRQxrz195SFrYV8VnLODwCnuB+w0toKtRnsBiDkuMLRz8mCzvG69GHkAOB0lFqbobYDIeSg+o08Vxax3u4vpIIfALShomChtSFqSxBCPlck1kHoGsqK3ydfF9GpDwDa3XFQbUmzTelqbQxCyHdn/Z1C4WhvWaD9hQMYLgBIIAesbVEbo7YGIeSbc/4PCprTvwBDBQBJZIG1NWpzEEJpfevXxj03Ci8LJeT0A0AKageUeDbnRmuDEEIpP+/XLf8+gqbt1GCYACCF1FjbozZIbRFCKAXqN1Lf+nuEsuLauKeet34ASONuQL1ni3pY24QQStpbfzeJuO+Sr1O9Ep4YIQBIN43WJjXbJvoKIJTgs35N77tU+JVQQF4/APiwbkCBZ6MupYogQolSVvwWWVTjhEMYGgDwMYdC4ego+Xozhhuh9ioc7SuLKZ+3fgBwhHprs9R2IYRa7fT1ot81wlChHIMCAA5S7tmwa6xNQwid1vl3sr25I7HJdO4DgAzoMDjZ2jS1bQihk1726yyL5WEhD8MBABlEnrVtauMQQn+nSOwC4Q/CHowFAGQgezwbdwEGH6H3nf9HhbeFSowEAGQwauNeFz6C4UfBVlb8bOFLshiWc8sfAAJUM2C5Z/vOwhGgIF720y3/nwvFGAQACCDFYge/b20hQgF68+8lkz8iVGAEACDAVFhbqDYRoYyWts7Mit8qE/4doYrFDwBgbWFU+CTthVGmOv8O4vxvl0m+SKhl0QMA/JU6YUkoHP03ugqizFIkdqbwNZncu0O07wUAOBFHQ839Tu4XzsZxoExw/ucL3xQOssABAE5LmfCEcBEOBLl82e8SmcS/Ew6wqAEAWoy+MD0rXIkjQS6++V8mvITzBwBoE9pMaIi8SF1t71Ah5IT6j75cJu40bvoDALQ7Q2CGtakI+fytv5Pwz8IKLvsBACTscuAyuxOgNhYhHzp/7eR3t5CP8wcASHgQkO/ZWDoKIh8pHD1HJuWXvTd/avoDACSnh8Bqoa/QFceD/PDm30V4VCjA+QMAJJ1twnes7UUozQGARqMlLEoAgJRRYm0vQml883/QS1VhQQIApD5N8Bu2rTpCKVNW/DyZeN8L0coXACCdlFI1EKXyzf8i4SlhN4sPAMAXQcCfCQJQsp1/V+Ev3oRj4QEA+CcI+AvZASiZAYBOsMMsNgAA33HY2miEkvTmX8siAwDwLbXsBKBEn/nz5g8A4NJOAHcCULsUjp7nXfjjzB8AwK07AU+GwvHuODLUljf/Ll6qH7f9AQDcY6fwXSoGorYEAA+S5w8A4DTF1pYj1Io3/75U+AMAyJiKgX3ZCUCnO/PXrn6PhqjtDwCQSahNfziUFT8LR4dO9ObfOdTc0reAxQIAkHFsEPpYW4/Qcc6/k3C3sCJES18AgEykybPxd1ubj5AXAPyzkI/zBwDI+CAgPxSO3ojjQ6FQ/9GXe1HhURYHAEDGo7Z+ubX9KNBv/pcJ03D+AACBCwKmWR+AAnnj/xJ5+C8JVSwGAIDAUWV9gPoCFKg3//OF3wkHWAQAAIHlgOcLzscxBsP5nyl8E+cPAACeL/im9Q0og5Wd00Ee8teEg0x6AADwOGh9g/oIlJHOv2MoK357KByluQ8AAPwt6hvUR6ivQBmmrPit8pAXceMfAABOkhmwyPoKlFE3/nvJg31HqGWSAwDASai1vkJ9BsoI53+BPNAI6X4AANDC9MCI9R3I6W3/s+VB/lyoYFIDAEALqZAA4Pvyle6BDgcAX5IHWMxkBgCAVlJsfQhyces//tFQc41/JjIAALSF5cJHcKhuFfvRc/+3Q3T3AwCAtqM+5HXrU5AT+f6d5WH9Qahk8gIAQDuptD5FfQvy9Zt/J+FhYQ+TFgAAEsQez7d0wtH6M92vozycO4UNTFYAAEgwG6yPUV+DfPf2f40wmUkKAABJYrL1Nch3AcBQoYEJCgAASaLB+hrkK+ffVyhncgIAQJIptz4Hpf3Gf4dQVvwWeRj5TEoAAEgR+db30D44rW/+lwrjyPcHAIAU1wcYZ30QSovz7yb8SjjEZAQAgBRzyPNB3XDIqVS/kR1D4ehdMvAFTEIAAEgTBdYXqU9CKXv7v1iYw9Y/AACk+ShgqtADx5yqan/h6ACcPwAA+IBG8UnZIaoEJv3Wv27995GBrmfSAQCAT6i3vkl9FEqSsuI3ykCvFI4y4QAAwCcctb5JfRRKgsLRD8oAvyzUMNkAAMBn1Fgfpb4KJXTrX8/9H5HBLWGSAQCATymxvkp9FkrIpb8OQm9hIVv/AADg86OAhZ7PokpgAgKArkJ/JhYAADhCf+u7ULvP/u+TgTzAhAIAAEc4YH0XalfFv3NlIBczmQAAwDEWWx+G2rz9/5RQx0QCAADHqLM+DLX61r9e/PucUMgkAgAARym0voy2wa168+8p5IQo9wsAAO7S5Pmynjj2llX7O0sG6ydCKZMHAAAcp9T6NPVt6LRb/7eHmsv9MnEAACATWGl9G0cBp0z56y6D9KLQwIQBAIAMocH6NvVx6KQBwJ0ySGVMFgAAyDDKrI9DJzz77yaDM5tJAgAAGYn6OPV16B9u/j8iNDJJAAAgQ2m0vg79jfPvFaLZDwAAZDbHmgX1wvE33/zvHApH/yADUsnkAACADKdSfB4VAsX568W/z8qArOXtHwAAArILsFZ83x3WBwZ46/88IZu0PwAACFhaYLb1gQF1/h2FPkIRkwEAAAJGkecDOwYxALhQiDEJAAAgoMSsLwxg0Z8H5C9exQQAAICAUmV9YcDe/vXm/0YePgAABLw40EbrEwMUADxG0R8AAADrCx8LivO/RCKepTx0AAAAuwuw1PrGAJz9/zREwx8AAIBjlFnfmOFv/1cJ04UmHjgkmxtfn27+d84603/FJvP8is0A5tllBebzsfmm83OjWSPgJ5o833hVpjr/MyTC+bF8LedhQzLpINzx7myzrPigqWloNHWNTQCWI8KB2jrzp8X55uznx7BewE+Uez7yjEwMAK4TZvGQIdn0GDjevJa33SB0MhUcrDD3xOebM7LirBnwE7Osr8y4tL9I7HtCNQ8Ykoka9P8cu9AclLc8hE6lNzfsMB+UYJF1Az6i2vOVGZQWGI72DDW3QOQBQ1I574Ucs2BXKd4NnVaHJEi8f/xidgHAbyy0PjODdgAeFep4sJBsfjhjlWk8ehTvhlqkpcUHzVncBQB/UWd9ZgZV/SvgoUKyufzlSaawrAqvhlqsJgkWfzl7rb04yhoCH9UFKMiMY4Dmqn+k/UFS0be4IWsL7U1vhFqjLWWVptewKawj8Fta4GOun/33EJbwMCHZ6I1uNeQItVaaGvjiqi3mA9ljWUvgp12AJdaHOvz2/y2hlIcJyaTnoAnmjQ07TEMTZ/+ojbsAhyptgSDWE/iIUutDHXX+5wsjQzT9gSTSMStuvj5hidlXfQQvhtqs+qYmmxZ46eCJrCvwC42eDz3fLeffb2SHUDh6n3zwrTxESCZ6djunaL/h3R+1VwdqjpiHJy8zZ/YnLRB8w1brS9WnOqNnR+nb/xAeHiSTTmKon5y3Hs+FEqa5Ekx+9NWprC/wE0OsT3VC2Tkd5AN/WsjnwUEyuVYM9c7yarwWSpg0i+SJuetscMkaA5+Qb32q+lbfKyt+tnzYXwsNPDhIFl2eG20Grd6Cx0IJ1/bDVea64dNYZ+AXGqxPVd/qQOrf5cJ6HhokNe0vNs8UV9birVBSpDUlWGfgo5TA9da3OhAA/JDCP5BMtNtfzpY9lPxFSdPeqlpzd3QeFQLBT4WBfJ4SGInp9n8eDwuSRefnRpsf5642pTWk/aHkSWPL6dv3movpFgj+IS/Ub2RnP7/99+HtH5JJ7xEzzILddPtDyZfWlnhs+kpzZv/RrD3wxy5AOHqXX2//d5YPGBWO8qAgGXTNHmt+uyDP1DQ04p1QSjRn5z7zsde4EAi+4Kj1seprfbj9f4uwhYcEyUDPYj/x5kyz7TDd/lDqVF3faJ6Yu96ck03LYPAFW6yv9V3lv0jsz0I1DwiSwdnPjzFD126l4h9KuYoqqs2tb+SyDsEPVFtf66vKgOHoZfKhcnk4kCzuis7DE6G06Z33itgFAL+Qa32uj7b/HxSKeTCQDC54aZyZtXMfXgilTbWNTebO6FzWI/iBYutzfdT1bxC3/yFZ/GzWGlNV34AXQmnVjB17TbcBY1mT4IeaAANC4Wh3PwQAtworeCiQDG58fbpZVnyQs3+UdlXUNZgf5a5iXYIfWCbcnO7Lf2dKFPIYdf8hWRf/nl260dSS9od8IA1Cl0ow+vHXprM+If39AcKx74f6jToznZf/Lham8jAg0ZyRFTdfjM83mw5W4HmQb3Skscn0X15gPpDNUQCkuz9ALEfokc7t/08JFTwMSDQXD5pg3srfgcdBvtOmQxXm87F5pkMW6xTSSoX1wWkMACI8BEg0HeXt/4HxS8yh2jq8DfKdtAnVK+sKbVMq1iukmUi6Sv+eIz+8hAcAiUa3V5fsOYCnQb5V2ZF6c9+YhfaoijULaaTQ+uI0vP3fS+ofJLzkb1bM/M/stbT6Rb6XNqXqPiCHdQvppNH64hS//Z8hP3QEjX8g0egN6x3l1XgX5IQen7vOHlmxdiGNDYJGWJ+cMmXFr5AfupnBh0TS/YUcM3jNVlPX2IRnQU6o4GCF+dhwugVCWtlsfXIKt/8fEkoZeEgk945ZQLc/5JSONDaa51Zsok8ApJNS65NTtP3fWX7YcIr/QCK5dPBEm/ZX38TbP3JHelNl48EKc3d0HusY0lcUSH2y+uYUvP3fKCxh0CFRnNk/bh6ZvMyU1hzBoyDnpBdW38rfaXoOmsB6hnSxxPrmJL/9d5Af8m1hPwMOieL64dPMgl2leBLkrPZVHzEPTVomwexo1jSkA/XJjyT78t+5oebOfww4JOjtf7R5euEGPAhyXnOK9ptrX5nKuoZ08VwoHD0nmdv/NwmLGGhIFB97bbrZVVHjlKFfs6/M/Gb+evM/c9YmlN9LIKTNZlyqgaDP7vkVmxI+Fr+at97k7thrXCoH0dB01H72Tv1JC4S0MFMCgOuSGQB8QTjEQEOieGXdNqecv1aAuzs2LylGvvNzo83XJywxhY5kQpTLWKijTkYxHM2tv+aVKaakqtap+aEB0RVDJ7O2IV3ZAPckq/NfV/nDn6H4DySK+8YudOriX5O8jmrKV9cByesE10WCAA2KXMiGmLVzX9LT374/faUdd5ektSwoEQxpKgr0jPXVSQgALpM/fDmDDIlAb0yrA3HJtq/ae8jcPGJG0sfmqmFTTP6Bcl+PRVV9g7n9rZlJH4sPDhxvcnfscyoAOFhbZ3eJWOeQBpZbX52E7f9PC0cYYEjExb+fzlpjDtS40+1Pt/71fPfs51NT8OUXs9f6ejxeW789Je1w9ShAm+7sqXTnnkhj01GTs3m3+RBpgZB61Ed/MhkBwFMMLiSC3vIWvXC3O2l/ugU9dVuJvJmn7mz33BdyzGKfdkQsLKs0n0zB2/8xLnppvBmyZqtTlyP1aOuHM1bRJwDSwePJCADmM7DQXroNGGv+sCjf1DY0OmPM91cfMY9OWZ7Sc90Owv3jFpsjPuuLoHcTfj1vfUpL3+pOw53RuWZDabkzc0ZjFc1iuIE+AZB65ifW+T8/trv8oXUMLLSXf3oz1xRVVDtlyCduLU7Z1v/x9Bg43ryet9346b1X721o6mbKj42eG22eXbrR1DgUOGpTq/+ds86c9Tx9AiCl1FmfncALgF/m9j8k4u1fz0Zdkr79X5fGt7jPvjvHbDpU4Zux+PaU5WkbiyuHTjZL9hwwLuUEaGvrf357lt3RwQZAyrIB1GcnMAAYwqBCe7l39AJT61ir337y1pnOMdMWyfoZqtP85qtFbqIFRfY8Pp3j8Y2JS53aBVANW1do0zuxAZAy1Gcn6Oz/fGEFgwrt4ZLBE82i3W7V+1+9t8z0emVK2sfu1jdym9980/jqqwV57onPT/tYaA2G6dtKnJpHmjL5BR+MHQSKFdZ3t//tP/5Z+YN2MaDQ3rS26nq3zm9/nLvKVufzQ9rkz2etsZX30lncprNP3mLVmR5O41i09e4EdwEgheyyvjsBOwC/EMoZUGgrt8kbrBbRceXsVj/nuC17Upr2d/pUuHFmXpo6JqqzvWzwRN+MxXkv5JghawudKiJVUddgA8pU1E4A8Hz2L9p79n+W/CFjGUxoj7F+adUW36WznUrbDleZPmMW+m4s7xw1124np+Mmu98usd0yYoY9onFJ2kTq42nIoIDAMiaUFe/Snrf/24SVDCS0tYqbXvzbfKjSGSOtgcpQebu8UN64/TaeWofg7fydKR2PmTv2mUt99PZ/DE3LfHLuevtm7dJdgP9bstF0zR6LfYBUsFTo3Z4AoK+wh4GEtl78e+e9nU5VcNt4sML8y9uzfDumd7w72xSWpaZboKb9fXPSMnsHwY9j8dFXp9piOy41C9JiRlrUiGZBkAL2WB/eJmXndJL/+WmhnoGEtrz9PzhxaVovrrUl1e1Pi/J9c9ntRGgFvt/Mz0tJt0AN3noO9m89e3WiP5i+0qmeEjrHhq0ttE2OsBOQZNR3P9m2ACArfpH8z8MZRGjr2b9rZ7RbyirNhwb6v4GLnn8nO6Vy08EK88X4fN9fWtOAaHJhiVPFgbRboDY4YhcAUsCr4ssvbMsFwJvkf17MAEJb3sz0LdUlaXGZ+8cvdmaMH5M330O1yXnz1XsQA1dv8fVOyPFcP3xa0sYiWdIA7sNDJmEvINkstr68Def/dwt7GUBoLb1fn252O9S+VTVm025zwYvjnBlj7cant8qToeKqWnNn1K1+9i+s3Gxc01v5O0zfiUtsgSU/8++j5prLXp4ogT22zUH2Wl/eSuev5//fFRoYQGjtluywddtSckadKO2qqDH3jlngVOtW/bxby5KTXaFn6g9PXubUvLv21akm/0C5c0GAdsXcWVHta/RoTDNjNAjAxjlHg+fLO7UmAOgmZDF40Fq+Om6xU93+9FLWAHl7PN+ht/+LB02w9eXrklRbQbM2xmzebX+OK2OitfZ/NmtN0sYk6NIUxoenLDed+nNvwUGyrE9vxfl/T/kfchk4aA16Y3zkxiKn0rJW7S0zn3pntjPd2nSX4msSZO2tqk3quOiZ+g9nuFW57uphU8z4LXucuhDokrScd2eaGrlIrvXprdgBuJb8f2gNmiv+o9xVKa9U1x5pEZlfzVvv1DhrS9zc7XtTc1FtzwFzyxsznGplq8GRHukgAgD4m3oA17YmALiXQYPWcMPwaWaxOAxXpG+Jc4v2m56D3TnX1LdxNcKpKqus9zieXpBnPuBQ5Tqt4Pha3naOAggA4Hiy4p9vzRHAnxg0aM35qxbQ0fN0V6QOwqW0P+UKefvfUZ7a+xVadfCWN3KdGqd/HTlHxqkKj00AAO/zVGt2AGYwYNBStMHJvuojThmzSVuLnWvP2n/5prSlq7l0DKBO6v+WvOdUCWoCAEgyM1rq/DsItQwYtLToT6ob1CTi7N/P9f5PxGfemZ3yt/9j0iMHfat2abw+NGiCKTzMLgABAHjUWt/eggDgZuEoAwYt4cs5i0x5nTv1/vVc+3cLN5hzHHr7v+ilcfZ2ezqzK7RynUupksqjU5bbCo+IAACsT7+5JQHAwwwWtARtEztju1vd2JYVHzQ3vu5OT3bNu35EHNmeNFdW1CDvf+esdapYkl4InLB1D56bAACaebglAcBzDBS05OLfL8UgHHSoBnvZkXprxM526O1f69zP3LEv/VkTR3UX4IAt8+xS8PTVcYvMbtICCQDAWN/eggCAAkBwWjQ/fMHuUuPKy7/uUkwuLDZXDZvizBjrJUWtbueXbWz9HH9e/J5TaYHa30H7BLiUoUIAAEkrCHRK9Rt5ofymjQwUnIruL+SYZ5ZudCrXuriy1jw4YYlTLVive3WqKUxSvf+2auPBCnPHu7PdqZ0gaDObDaWH8eAEAEFno/Xxp3j7v03YyUDBqYrRNOdZu1PvX9PBRuRtdyrtTysrakEbP2rke0X2lr1L8/apBXmmsq4BL04AEGR2Wh9/igJA35LfUMpAwck4T97+x27e7ZTh0tKwN4+Y4dQ4//NbM22nOD+qoq7e9J2wxKnaAFpC2R5Z4ccJAIJLqfXxp9gBeEKoYKDgZHwlZ5FzZVZ/v3CDU2Os6Xaa9udnLdlzwAaDLo3rQ5OWOdWmmgAAEkyF9fGnCACGC40MFJzw7V8ck6bRuaS1+8pslziXxvl701bajAU/Sy/V/XzWGqfGtWv2WHsRFBEABJR6YdCJnX92Thf5j2MZJDjZZarH565zqrCKftaHJy9zqof5ta9MNXOK9juRXaEXAq8bPs2pefypt2c51bGSAAASzBjr6//x7T/eS/7jfAYITsTtb8007x0od8ZYadpfdGOR+fDLk5wZY61P8OfF+b49+/976VHQkLWFTtVV0BTG8LIC+gQQAASV+dbX/+MFwPhn5T/mMUBwoq1/NfQunZ9qlsJ/jF3oVE8FTVfLdyjIUm0tq7Tj7FJ6pdawWLOvDI9OABBE1oXCsU+f6Pz/fqGIAYK/d0xq4Lc71FjliPdm6lLtei1Y8/Karc4VrNGdFu0WeMngCU7ttPzPnLW+v2dBAABJYIfwlROlAP5I/kM5AwTHo4Zdu/25VO9/86FKc6tDPez1foUGWQdq6px0DAdqjpgHJy516q6FXgz1Q4llAgBIMeXW1/+NsuK6A/A7oYkBguPf/r86brFTF//0mOK3C/KcalqjRX9m7XTbGS0pPmhz7V2a2w9NWmr2VtXi2QkAgoT6+KeFvwkAesi/eJ3BgeO57OVJpuBghVNGKq/0sFOtftUR/XDGqoxwEFptTytFutRrIV6wy6ndLQIASABDhfOPP/+/XIgzMHA8f1yU75SB0lKvfScudWqMr31lilmXIRfSDtXWmV6vuFVz4ZYRM8y+6iN4dwKAIDEqFIlfevz5/8fkX85hYOAYt74xwxQ5VO9fNWpjkVPV6fQyWtayAqeOWE6noesKTef+bjmJ51dsxrsTAASJ3FA4dt3xOwCfENYyMKDoIn9l3TanbqTvlGDlnvh8p9LR7orOc+6I5XTaXVlj7onNd2q+azGjdftJCyQACAxrrc8/LgD4V2E7AwPKV3MWOdXtT8MUfYs716G3/4sGjjfDHAuyWiI9Tx+3ZY+5eOAEpwJevYdRm0E7MQQAcAq2W59/XADwZeEIAwNXDJlkJm51p1663t9asKvUqW5/HfvHbTc9V9P+Tn8XoN72CTjToaMAnfejN3EhkAAgEFSEwtE+zc6/38gz5F88xKCA3or+75mr7WUul5zNL8UwnelQDrqmy03fvjejncV8CcpufH26O0FZVtw8MH6xUztfBADQDh6yvl++OUt4nAEJNlqM5iYx2Esd6vanb2vTtpWYy16e6FTanxrSTG9Le6Sh0bZh1g58LlVjHLq20FaSRAQAGc7j1vfLP7oLzzMgAX/7l4X9p0X5tsGLK9IzWy1U5NI4XzxogtlVURMIh7HtcJUNKl16Pp96Z5YpLKvC2xMAZDr9hK6aAniRfDOSAQk2H3ttmilxrCramE27TBeHiv7oLsuLq7YExmHo/cY38rY7VZVRyxmHl23MuMuZBADwd7xjfb/842L5xTgGJLhoPvokhy7+qfZU1pjeDl38U/5t1NxAlp69z6GujMo52WPMhtJyPD4BQCYzzvp++ebDwmoGJLg8MH6JqaxvcMYQ6THFHxblO1XyV9P+xm7eHcg+9Lk79jmVFqh8Y9JSU8tdAAKAzGW19f3yjyuFfAYkmFz+8iQzY/tep9KfFu0+YG4YPs2pG+bfnrrcuSOWRKm8rl6cxxqnugVqK2kN2BABQIaSb31/KBy9Wr7ZxYAED02de3zuOnPYob7omqL4k5mrTReHDNH1EqxMt0FWMB2HBpeLdrtVq0GzNe4ds4BugQQAmcpW4SrdAbhBaGRAgkfv16eb+bv2G5f80pRtJbZoi0u1FdRwBj21rLq+0TaX0vN1V56d9pV4YdUWw3VAAoAMpF64/lgAwIAEDC2b+/yKTU4ZoO2Hq8yXRi9wapxvfSPXFB4mrez45+dSv4bb35pplpccJAggAMhEbtAA4A4GIlioAf58bL5TZ9J6eU4bFLlkgLTk77B1hXiO4/RW/k7TY+B4p47JfjM/z95jIAAgAMgw7giFsuKPMhDBouuAsWbMJrcuOGmworUKXBrnO96dbSrqGvD6x0nvm3xt3GJbE8Gli7JzivaboLcJIADIMNT3EwAEj/vHL3au89nTCzc4d8Qy0bHaCqnSyr2HTLcBY516nv81YUng73EQAGRiABCJPclgBIcPZI8xq/e51ft848EKpy7+Kd+ZutwcrK3D259AmhXwnSnL3SqV/fwYM2PHXgIAAoBM4klNAxzEQAQl7W+0eXrBBqfeZCrrGuyWsUvlZG96fYZZUXIIT38KFVXU2PRIl9aPpjEWV9YSAGBLMwP1/fLNMAYjGPzL27NMgbxNu/SmqLXkew5yp4qcdr/TKoWc/Z9aWs1x6LpC8wGHugXq7tn/LXnPqYZZBABwugBgKoOR+Whls4Grtzh19q9d2f5j7EJn0sbOyIqZfx05x6zffxgP38Lnq8V2XFlDenHxtjdybVogAQBkRD8A+cdyBiLz0fzrbQ7lo+sxhQYs3QfkODPG2k/+pVVbTH0TNeRbosamo+bt/J3m0sETnXnGZ3uFncpq6wkAwHWWEwAEgMtenmhGbSxyqt7/pkMV5hNvznTq7fCu2Dy2/lspLe2sN+xduuNx7atTzayd+wgAgAAA/H/x7/vTVzrV2UyPKbRHgWtpf8uLD+LR26CFu0vNta9Mdep568XUXRU1BABAAAD+5ephU8xax9L+tNvfeS+Oc2qcvydBFmq7frdwg1MlgrUZ1Yi87YFq70wAQAAAjvHHxe85ZWSq6hvMA+MXOzXGVw2dbNY4FmT5TXsqa81HX3VrF+DWETPM3upaAgAgAAD/cYsYqO2ONaKJFewyF77kztt/5/6jTXhZgalxrLKiHzV0baFza6zf0o0EAOB0ALCCgcg8tHLZq+u2mQaHmtDvLK82d0bnOrUV/O+j5pr8A+V47wSouLLGfGn0fLd2f4ZNNpscqq1BAADHsUIDgG0MRGahDvQbE5eaPZXuXFLS4iq/X7jBqcIw2tVOu9uhxEizVLR/glvdAkebR6YsN9X1jQQA4FohoH0hBiLz0LeSqdtKnDEseo9qwe5Se2Thyhh36h8335y0zJTWHMFzJ1A6nj+btcbuYJFmSwAASYZByLyt/5/OXGPKHGpEo0VV/keMizpVV8ZZW8RO274Xj50Ezd9Vam56fbpTO26aFrijvJoAAAgAIH1og5WlDuWj60vTnJ37zSWD3an3r0VrHp+zLvDtYZMl3U7XplVdHWoZrKW2X8vbbuqbjhIAAAEApGdb+luTlzlVira2sdHm0Ls0zpoDHrQiMKlWYVmlc2mBX4jPz+hdAAIAAgDwewAwaZlT3cqqGxpNnzELnQsAuPmfXG0XR+paAPCZd2ebrWVVBABAAADpq1OuZ6iuSCupxTe5lfuvZ77fmbqCuv9Jku5gPbuswHR/wZ1GUNoGuv+KTRldD4IAgAAAHLgE+KPc1eaAQ7fT91UfMf9v2gqnLgH2HDzRjN28G2+dBC0vOWT+6c1cp9bdXdF5ZmOG1wMgACAAAAe4cuhkkyPOyZW0JP2c07aVmOsc2vLVYOX+cYtt8SKUOJUdqTP/O3edU2mAHxo0wbmiWwQA0BwAhKMUAsrAQkAPTljiVCEg7QD4hBj+Lg4ZmIteGm+GrSvMeMOfSunx1YeHTHIqI+QrOYvMgZq6jH82BAAZVwhoG6WAM5gha91yTpsOVZhPvzPbdMhyZ4w//fYs222REKD92ltVa/qMXuDUGtN6ENq9MggiAMjMUsA0A8rgmgDbHGsGNGzdNtPNofxvbQakrWy1iyFqn7SaXhfHHMxv5ucF5vkQAGRmMyACgAzmKccMVGVdg82ndmmML5O3QJeKL/lRuoXuUvU/5ZpXpmR89T8CAAIAcBg9T13rWK/6OUX7nboEpvSdsAQv3g71X77Jnqe7VAvi5bWFpjFA9z8IAAgAwMHiQA9NWupU2VrNpf7hjFVOjbOWrZ0rgQtqvVbuPWRuGD7Nqed97+gFgXr7JwAgAABH0TSlERt2ONWtrOBghbnNsVzw29+aafZW0x2wNSo7Um++PWW5bavrUprtNIe6bRIAAAFAwNFz9UKHypRqieDnVmwy3Qe4Uw3u3BdyTHhZgVO9GNIpWwWyYJd1qC5t/Wu3zUO19QQA4DqLNQCYykBkPupIX1i12ebbuyKtq/4fYxfaugaujPMn3pxpVpQcwru3QNsPV9liSq6c/XcQbh4xwyzacyCQz4sAIOOIagAwjIEIBre9ketUExs9shiRt930HOROq2C9vPjUgjz6BJxG2rDqlXXbnKr3/4HsMeaZJe851WyLAABOUQhoUMj+g8EIBB37x81vxTm5dCFQ0wK/5tBb4rEz4gW7S/Hyp9Duyhpz6xtu3fHQt//iytrAPjMCgEwMACKxJxmM4KBvMXrr2iVpkxWXysMq/zVhiSmt4ULgyXZ2fjVvvVPPU3d2ZmzfG+jnRgCQcTwZCmXFH2UggoWmMLlWue63Cza45TDEUMYKivD2J5AeQ7lU7VH5ugR0RxqbCAAIADIH9f0EAMFDe5eP3OiWcyqpqjW3jJjh1Dj3ls8bhCYxrZFmd3xn6nKn+j1cNWyymVe03xwNeMMHAoBMDAAisTsYjGCht+q1f7lLrWw1ZeyNDTucenPUewuayojelwaeHxw43plneGb/uHl6wQYudRIAZCJ3aABwAwMRwLTAF3JMv6UbncpZ31VRY9PGXBpnrW/vUuZFMlVcVWv+07G0zjvenW3W0O2RACAzuUEDgOuFegYjePQW5+Ta1mbujn3mmlemOjPGajC/O3WFOXykPtDOQwNNLZJ0TrY7OzgXvTTeDF1biOcnAMhE6q3vD4WjV8k3WxmQ4KHbmz+btcYcrHXnnPqQfFb9zGc71CzoI0Mnm9GbdtljjCBK/9YrSw7ZIkkuHd/oboXePUEEABnIVuv75ZsrhXwGJJhc/vIkM7mw2CnntKz4oLn1jRm2MpsrzuTBiUtNUUV1IB1HZX2DzeLQxlSurIsLXhxnJm0txusTAGQq+db3yz8+LKxmQILLV8YtsgV3XJFWYvvL4vfMOdljnHIor63fHsgqcot2HzCXDp7o1JrQYxuXymYTAEArWW19fygcvVi+GceABBfdTnctZ31PZY1Ns3NpnD/z7uxAbin/Z84ip56TBpbvcXGTACCzGWd9v/zjIvnFOwxIsLliyCTnnNOYTbtMF4fuAuiRxVPz85xqy9xejd2825agduUZ6TFFeNlG09DEvX8CgIzmHev75ZuuQj8GJNhom9PfL9zg1BZ1bWOjeWDCErfSLweMDczbpe7S/Mvbs5x6Pp96Z5ZTbbMJAKCN9LO+P9R/dBf55ucMCFz76lSzcLc7rU71RXr2zn3mspfdOV8+I6v5fLk6w8+Xj3j3NFwq3KT3NDTtL+glfwkAAsHPre8PZed0kF/0ZUBAdwF+OGOVTbVzReVH6m1jmTMd2mbW9sY5m3dntLNYWnzQpv25lKlx//jFZkd5NZ6eACAI9LW+3yoc/YL8iwMMCuhdgIkOpT/pSe3C3aW2VatLOeZfHbfIVsbLRJXV1jvnLHTejy7YFaj7GQQAgeWA9fl/VST2WaGQgQHlS6MXOHUOqib7+RWbzbkv5DgzxufJZ31h1WanSjG3ROpAp2wrMZc71L65s7fzVUPaHwFAUIoAqc//q8LRW+VfLGdg4JhBHLK20CnnpI2N7onPd6rO/CffmmlW7T2UUXXmdVfjq46l/V03fJpZt78MD08AEBQWCTcdHwBcI/9iGgMDx/j4a9PNTscq12mnufMc2gXQlLOnF24wVfWZ02lOOzZ+wKF6/8qzywrw7gQAQWKS+Pyr3w8AsuI9qQUAf8+v5+c5ZaC0mmHfiUudGuNLX55ou81lxNn/kXpz/fCpTo3/LSNmmN2VNXh3AoAg8aZw8fsBwLOjusm/eJGBgb+5rT54gjinQ04ZqfWlh805DhUHUvT2eSbo/5ZuNB2y3Bn3s2wFTC7+EQAEjv6h58ac9X4A0G+kXgR8WjjK4MD7Oetx85WcRU5tUeu9hd8uyLM37V06CsjZ4nZaoDZounLoZKfm9kOTltLtjwAgaBy1vj47J/S3isR+LJQzQHA8Fw8cb15bv82pt6TNhyrNrW/kOleBrtjRrWitG/GdqSuccg5XD5tiZu7Yh1cnAAga5dbX/4MisfuFIgYI/v5N6d7RC8zWskpnDJVWchu0eqvpPsCdC4H6WZ9dutE0OlaDXgNDvXypbaVdGWttfvXLOWvtnQVEABAwiqyv/weF41oLII8BghM5pwErNzvVHlXrGNw7ZoEzY6wV8/75rZlmRYlbdy60ct794xY7lX550+vTzbKSg3h0AoAgkmd9/T/uAMR7yX+czwDBidCyrvkONbHRN9OovJl++GW3CtL8et56m83ggrRj3lv5bqX9aatfbXqVaQWYCACghcy3vv4flJ2jTYHGMEBwsjfU/85dbSoduhCold0enrzMXrJzZZw/PGSSmba9xIk7F5sOVdgiOk7dtXh7llNzmAAAEswY6+tPqHBssPyGegYJTli+9sVxZl7RfqeM1tp9ZfbCl0vj/LVxi5y4nf6b+XlOjaum/U0uLMaTEwAElXrr40+qSOwXwmEGCk7GV3IWOle5Trd8XRrjrtljzVsbdvh6TFfvPeRU1UXlgfFLTB2tfgkAgkvZiTMA3g8A7hVKGCg4Gdpw502fO6e/V1FFjXNb1be9kevbW+rqRL8xcakzrX6VSwZPNPN27TeU/CEACDDFwj0nDwCy4r3lN+xgoOCkdwGyYuaOd2fb5juuqPHoUTNsbaFT46z3Fvot3ejL8dTLlR8aNMGtstbz1puKOs7+CQACzQ7r408RAHSQ37SOgYJTobe+f7dwg1PbqVpkp++EJU6lq101dLJZ7rN0te2Hq8yd0blOXV79tASsmdJvgQAA2sE66+NPqUhsAgMFp6P3iBn2QqArBQL1Vv2ErcVOlatVY/u9aStNeZ0/jgI0qyK8rMAeAzlzcVU+6/MrNtmURUQAEHDGhk6rSKwfAwWno2P/uPnZrDXmYG2dMwbsQE2d+enMNbYSnCvjrAHL6E3pb1ijP35p8UF7N8GZOZoVN18avcDuWiACAIj9/vQBQDj6lRBNgaAFXDp4opmxfa9TfQIW7C41Nzh0IVCPLPTC3e6K9PYJ0F2IJ+auc8oBXPDiODNm8248NwEAqE9X396CHYAbCQCgpdwTn28OO1RTXfsEPL1gg1Mtg7sNGGveeW9nWrex9e3/ksFuXfzTtL8ah8pXEwBAUgMA9e0tCAD0ImAtAwYtfUN9M9+ttMC9VbXmE2+61S3w+uHTbJfDdAVN2hDKrf4VY82WQ5V4bQIAaKbW+vYWKRKbwYBBS9FKe8WVbvVVf1feqM9yaBdAeWpBXlrGSrv9uZTzr2f/f1qU71xnRQIASCIzQi1WOPonBgxac1v9qfl5Tt20Lq9rMP8xdqFT43z+i+NS3pCpqLza1s93aZz+6c1cpxpXEQBACniq5QFAc0VABg1ajF6sW7zngDPGTO8t5u7Ya3oOnuhUTvujU5anrP6Cdsz7o7xJd3Wo29+FL40zw9YV2mMLRAAAHlnxz7cmALjWKxvIwEGLOLN/c856Wa07FwK11K6mMro0zj0HTTCxgl0pGZ8VJYfsXQmXtv/vG7vQbCPtjwAA/r4E8LWtOQLoKeQycNBa56Rn640OpQXq7fZ/csjJ6ee8KzrP7Eiyk9Pg6Ee5q92qnDhsshm3ZQ/1/gkA4HjUl6tPb8UOQDchi8GD1tJnjFuFV/TeQtayAtN9gFvV7fqv2GRqG5OT4qYB3HhxpJe9PMmZMekijukH01eaSur9J0W1DY3mkSnLbY8K7JxzZFmf3ooAoJPwXaGBwYPWcE72GDNo9Ran+gRoet3nRs116m1X6/FvPFiRlPE4VFtnvjt1hVPzrtcrU3zXN+G091AEbVBUVFHta7aWVZrX1m8zVwyZhI1zjwbPl3cKtUqR2N3CXgYQ2nIhcEuZWznYozYW2Vv2rozxbW/mmlV7k9PgpqSq1hZ4cmnO/X7hBufq/b+Vv9PcP36xHWs/8+8SHF/+8kQJkLFtDrLX+vJWKxy9Sf7HxQwgtKU40K/mrXfKGGvFuC86UuxGt2F/MnN10vow6A36l1Zvcea8V4skaXEnl1RwsMKpxlTgLIutL2+1suIXyf88nAGEtqAd4xbuLnXKKG8So/wBn6e86SXAW9/INYuSPLY6Fl+Ut78OPn/r02JO0Y1FTvWjqK5vNF/JWeTUkRM4y3Dry1ut7By9B/C0UM8gQluqsfWduNSeJ7t0IVB3Ljr62DB3HTDW/GlxvqlrSv4dC+0/0NPH9f/VgT4oc8ylt38NVF5dt818cOB47AQkm3rrw9WXt0nhaF/5A/YwkNAWPjRoghmRt92ptMC80sOm9+szfDumd7w72xSWpSbLYn/1EfPNSctsjQc/jsWVQyaZyYXFTr39692YL42ez9s/pII91oe3WZHYbcJKBhLaugugTWQ2O9SURe8CPL9ikznbh30C1GmM3rQrpeMxf1epuexl/1VL1PsJ/5272qkdplpvbrmUcgpOs1To3fYAIBw9S/6AsQwktBU9U1ej51JpVn1L++Jo/92C19S/2hS3t21oajL/O3ed7wolffy16Um/B5GM3aVPvDkTuwCpYkwoK94l1C5FYr8QyhlMaCsfE2OtOdqubNTq59QOeH568+0xcLxZufdQWsZDqwJe7qOx0KDymSUbndr6r6xvME9IIMXWP6SIcuu7261w/LPyB+1iQKE9/HTmGlNV706VNq0o98hkf5x/62fQbovprHKndzn8cizy6Xdm26DEJc3euc+pOhPgPLus7263IrHzuQcA7UW7tLmWFris+KC8+aa/+tkn35pp1uwrS+tY7K2uNX3GpL99sp79j9+6x6l5pIHvf4xZiB2AVLLS+u6EKBwdwoBCe9ELgS7dBTiWFpjOMev+Qo6JLC9IWt3/1oyFXkBMd/vk+8SRVjc0OhUARAt2me4DxmIDIHWoz06YwtEvyx96lIGFduWwZ481775X5JTxLq6qNR9OYw10LcPql+ZKpTVHzA9mrExbQ5jzXhxn5hTtd6rb387yavPZd+f4vqASZBRHrc9OmJ4f213+0DoGFtqLtt7VBiNOFW5Zv812m0v1WF0ib9vjfdbeVo9xbhkxI+VZARp0PL1wg1Pd/uqbmszTCzb4vrokZBx11mcnVOHoAgYWEnGD+zfz81KeztbeXYAHxi9O6Q1udbDfnLTUd0cmWoHwj4vybUXCVAeOy0sOOTNnNEFhbtF+c9Pr01n3kOrt/wWhhCsSe4rBhURws7xBunQhUM+/czbvTmk7VE3721Ba7svxKCyrNJ95d3bKxuKCF8eZ7BWbnGoxrY2atGFTR9L+IPU8nowA4DMcA0Ci0tp+OmuNOVDjThU3LYv7/ekrU9YhT3PG/ax4wa6UnGvrz9ACSDvK3To2mratxFw6eCLrHVK//R+JfTLxAUA4elkoHFvBAEMi6Dlogpm1c59xpZaLfs6ZO/aZ616dmpLtbu3G52dpyeTPjZqbkrf/ke/tdKroj9Yo+HLOItY5pGH7X3y0+uokBABd5Qc8QzYAJCyla+xCe7PcpTe7PyzKN+dkJ68gjrZR1qI79U3+3+7WM/mLXkpuV7v/mrDEqWZSqjc37GDrH9Jz+199tPrqpCgc+4L8gEMMNCSKV9Ztc8q4a0rep95Jzvm3Hi88PHmZM1kSeiNfb7knq0Lg5UMmmTyf3oM4mUqqas2VQyeztiEdHBAffU8oaYrEbhIWMdCQKLRPwO7KGqeMvOaiPzZ9lfm6vJ0mCu1rr+f+6ar33+YLgRIQ/W7hBpuxkMjx+H/TVphYwS6ntv71sqhmuPi1fTJkPDPl7f+65AUAWfFz5YcMYqAhkRcC1YG4Jq1Gp+mBiWJf9RGnUiP/JjWwscke5SRyPCrqGoxjO/9m8Z4D5rrhU1nXkC6ekwDgnOQFANk5HeSHfFvYz2BDorh++DSzYFepQchVldXW2V2LM5/j7R/SgvrkR0JJVyR2o7CEAYfE7QLEzffEeFY4VOUNoWPSS4rvvLcz7X0SINAssb456crO6Sw/aLjQwKBDotCc6bfydzhx+x2h47XtcJW5d8wC1jGkiwbrk9U3p0SR2ENCKQMPiaSPGNFtPml8g1BL7z8MXL0lqamhAKeh1PrklCkrfoX8wM0MPCQSbX07eM1Wp0q+omBLu/19bPg01i+kk83WJ6dM2TlnyA8dQVEgSDQff226U2VfUbD1q3nrKfoD6S7+M8L65JQqErtXaOIBQKJrvz8+Z61z1d9Q8LRozwHTfUAO6xbSSaP1xSlXds458oNLeACQaLS87NLig3gY5FtpvX8tWHQGb/+Q3tr/26wvTosisQgPARKNbql+ffwSc6i2Dk+DfCfdnXo9b7u5eOAE1iukm0gobYrEPiVU8BAg0Vw8aIJNC0TIb9p8qMJ8afR8zv4h3VRYH5w2haMXyweYxoOARKNbq/eNWUhaIPKVjjQ2mRdXbTHnvcDZP6SdnFA43iN9AUC/kWdKEPAYRYEgGWiXuciyAmt0EUq39FrqsuKDNlOF9QlpL/4Tjn0/1G/UmaG0KhK7VVjBA4Fk8E9v5NoOeeQEoHRL2x//ZOZq1iX4gWXCzaG0KxI7P9TcIZCUQEgKP5u1xlTV0ycApVfzdu03F740jjUJ6aZJ3v4HhMLR7iFfKBx7UD5UMQ8GksEFYnS11SpC6Tz7/2J8PusR/ECx9bm+UTh6mXyoXB4MJIt7xPgilC69+14R9f7BL+Ran+sb9RvZQT7Qn+WDVfNwIFkXAjUtkLsAKNXaVVFjbn0jl3UIfqDa+lr1ub5SJHaLsIUHBEkpESzc/tZM23wFoVSptqHR1vvn7R98whbra30n7UUcjsVoEATJQuuu/2lxvqkRo4xQKrRgV6np/foM1h/4o/GP+lj1tb5UONqHbABIJr1HzDALdpfimVDSdaCmzqb9ndl/NGsPfHL7P3pXyLeKxM4W8nhQkCw6Pzfa/HLOWvoEoKRKm1Hm7threg6i3j/4hrxQv5GdQ75WOPpDdgEgmfQYON5M377X0DEYJUt7q2rN3dF59u4Jaw588fYfiX0r5HtFYpezCwBJTwuMzTP7q4/gqVBSNHRtIesM/PX2r77V98qK6zHAr4VGHhokiy7PjTZvbqBbIEq8dlfWmOuGT2OdgV9otD5VfavvlZ3TIRSOfUY+cD4PDpLJx16bRlogSqjqGpvMUwvyTKf+tPoF35Bvfar6Vif07CjtDzCEBwfJRG9n/3FxPl4LJUxzi/abj746lfUFfmKI9anOqLky4H3ywbfy8CCZXPPKFGu0uQ+I2itN+3t48jIJLHn7B9+w1fpS31X+a1mXwFHcBYBk7wI8MmW5Ka3hQiBqu+qbmuydkksHT2RdgZ/O/kdZX+qkIrGHhVIeJCSTK4ZMMtGNRaahiX0A1DYVllWZe0cvYD2Bnyi1PtRZhaM95C+whAcJyeSMrLj5z7ELzbbDVXgy1Gppq9+Bq7eY7i/ksJ7ATyyxPtRpRWKPURgIks052WPNsLWF9hY3Qq3R1rJK02vYFNYR+K3wz2Mh5xWJdRY28UAh2ejt7R2kBaJWqOnoUfPL2Wup+Ad+Y5P1nRmhSOxRoY6HCslGjXkjNYJRC7Ws+KA563la/YKvqLM+M2MUifUUFvJgIdmc/+I4s3rvITwbOq20odT94xfbOySsHfARC63PzKAAQI8Bvi9U83AhmXQUY/7QpKWmqr4BD4dOKU37++DA8awb8BPVnq/sHMooRWLXCbN4wJBs1Ki/QZ8AdAoVHKww98Tn8/YPfmOW9ZUZp0jsDOHHQjkPGZKJXui6MzrXrN1fZmobGm1mAMAx9lUfMU/NzzNnc/YP/qLc85FnhDJSkdhVwnThKA8bklshMG5ueyPX/G7hBpO9YjOAJbxso20l3fm50awT8BNHPd94VSijFYn9VCjjgQMAAFjKrG/MeEVilwhLeeAAAACWpdY3BkKR2A+oDggAAGB94Q9CgVFzWmABDx4AAAJOQeal/Z2+UdAD8peu4uEDAEBAqbK+MHCKxC4UYkwAAAAIKDHrCwMYAHQU+ghFTAIAAAgYRZ4P7BgKpCKx80Lh2AD52sBkAACAgNDg+b7zQoFVdo7eBbhDBmEtEwIAAALCWuv71AcGXpHYb4VKJgUAAGQ4ldbnob8GAL1CzS0QKREMAACZylHP1/XC8f9tEPCI0MgEAQCADKXR+jr0d8qKdwuFo7OZIAAAkJGoj1Nfh06gZ6N3hsI0CgIAgExz/uLb1Mehk1YH7C4D9SJpgQAAkFFpf+rb1Mehk6YFdghlxW+XgVrJhAEAgAxhpfVt6uPQKe8CnCWD9ROhlEkDAACOU2p9mvo21KKMgJ6hcCwnRMtgAABwlybPl/XEsbfmKCAS+5xQyAQCAABH2RIKR/+Frf+2VwisYxIBAIBj1IWo+NcO9Rt5bigcW8xEAgAAx9L+FlsfhtqVGnifDOYBJhQAADjCAeu7ULsDgK4ymP2ZUAAA4Aj9re9C7b4HoBcCe4doFgQAAP7mWLOf3tZ3oYRkBXSSwXxUKGGCAQCATymxvkp9FkroUcAHZWBfFmqYZAAA4DNqrI9SX4WSUiXwRhngVRwFAACAz7b+V1kfhZJ2FNBRBrmPUM+EAwAAn1BvfZP6KJTUS4GdQuFotnxtZNIBAECaafR8Euf+KQoCeghTQ/QKAACA9NHk+aIeOObUVQjsKBHXXTLoBUxAAABIEwXWF6lPQindBegm/EooYxICAECKKfN8UDcccnqyAi4NhWPjOAoAAIAUX/qLWh+E0pYV0CEUid8iD+I9JiQAAKSIfHH+N9Pm1x/HAX2FciYlAAAkmXLrc5CvKgUOlYfSwOQEAIAk0WB9DfJbABC7RpjMBAUAgKSgPkZ9DfLdDoBWCbxT2MBEBQCABLPB+hj1NcinVQIjsUeEPUxWAABIEHs830K1P59nBnQOhWN/kAdVyaQFAIB2Uml9ivoW5MROwAXC29QHAACAdqA+5HXrU5BLdwLiH5WHtoIJDAAAbUR9yEdwqG7uBNwrlDCJAQCglZRYH4KczQw4S3hMHmIFkxkAAFpIhfUd6kOQ00GA3geICFVMagAAOA1V1meo70AZEQT0kgcaE+qY3AAAcBLqrK9Qn4EySFnxT8qDXSIcZZIDAMDfcdT6CPUVKOPqA3SUqO5zobDt4cxkBwCA92n2DbdbX4EyUP1GarngrwtHmPAAAOA5/8PCA7T3zfzUwLOFJ4RDTHwAgMBzyPMJZ+MgA3EpMH6RPOxwqLmvMwsAACCYlFtfoD4BBSoz4CO2rzPpgQAAwUz3Ux+gvgAF8jjgann4uWQGAAAE7MZ/s+2/GkcY3MyADqGs+OUyEVYQBAAABMb5L7e2n0t/KPRs9MZQOJYfonsgAEAm02RtfVacN3/016OATjIp7pavq1kgAAAZ6/xXera+E44PHR8EdBb6CttYKAAAGccWm+uvth6hEwQBXYXvhGghDACQSZR4tr0rjg6dKgjo4u0EUCMAACAzcv37WtuOUAsDgW8IpSweAABnKbW2HKFWKRw9W3iSIAAAwFHnrzZcbTlCbQgCegh/JggAAHDO+f/Z2nCE2hkEPCMT6jCLCgDA9xy2NhvnjxIUBHQV/iITq5bFBQDgW2qtrVabjVCCA4G/sBMAAODbN/+/4KhQMncCnuFOAACA7878n+HNH6XiTsBTMuF2s+gAALjwh4IVBJwnk+57QjGLDwAg7al+OH+UQjVXDHyQioEAAGmr8PcN8vxROgOBviF6BwAApJISa3sR8sFOwMNCfkjbTbIwAQCShdrYLaHmxj7U9kc+UFb8LJmM99le0wQBAADJcf5qY5tb+nLbH/lqJ6CzTMy7Bd0JOMpiBQBIGEetbVUbq7YWIR8GAZ1Cz0ZvDIWjKwgCAAAS5fyjy0NZ8autjUXI50cCl8uEnSaTtYrFCwDQZqrEluZam4qQMwpHLxMGygQ+wCIGAGhDml84OlS+Xh3KzumAU0GuBQGXyOT9HUEAAECrOCSExYZ+BEeCXL4XcL7wzVDYTmgWNgDAqQjbhmtPhMLxi3AgKBOCgDOFrwl7uBwIAHDSm/5lXpof1f1QBknPsCKx24XFIe1ZzWIHADhGnbDE2kjO+1GGBgEdZYLfKrxLhgAAgHfTPxKLhbLin7Q2EqEMvxzYSyZ8RKhg8QNAgKmwtlBtIkIBCgIuEB4L0UgIAIJJibWBagsRCmAQoD0E7hVW0EMAAAJT07/Z5t1rbSBCwQ4E4h+VxfC2UIlxAIAMRm3c6wL5/Qj9VZHYBaFw7A9eqiCGAgAyjT2ejWPLH6F/UHZOZ1kcjwgbMBYAkEFssLZNbRxC6KQ7AZ2EOyVSnixfGzAcAOAwDZ4tuzNEJz+EWnQ5sKMsmmu8RhjlGBEAcJDmZj7Ntoz8foTasCPQV3iPLAEAcIR6Id/aLoRQe4OA+C0SRY+TBVWGcQEAH6M2KhrKit+M4UYoMZcDO8iCulQW1q+EAnYDAMCHuf0F1kapraKeP0IJPw7oFgpH75KvU4VGjA4A+IBGa5OabVM3DDVCyVK/kdpQqIcstmzvrI32wgCQDo5aG9Rsi3pY24QQSslugKYL9hFWCTUYIwBIITWe7elDeh9C6bkb0DGUFb9RFuDLXlMhdgMAINlv/SXW5qjtoX0vQmlWOPpBWZCPCgsxUACQRBZaW6M2ByHkm90APRLoLfQXDmCoACCBHPBsS29raxBCvrsX0EEi867CfaFwbLH8ug7DBQDtoM7aEmtTxLaojUEI+Vz9Rp4ri/W3QiF1AwCgDXn9hdaGqC1BCDm5K/A5ieBz5GspRg0AWkCpZzM+hwFFyO27AR1kIfcUfiKspMMgAJy0c1+zjfiJtRlU80MoQ5QVP0u4XRb2ixLd01MAAN6n2Sa8aG2E2gqEUAbuBoSj3UPPRu+Ur7O9Ep7UDgAIbk5/o7UFzTahO2/9CAVjR6CbLP5HvLzeSowhQKCo9Nb+I9YWIIQCqEisl5ctsJb7AQCBOOdf6635XhhAhJBWE7wjFI4NEKNQhJEEyEiK7BrXtY4QQsfdD9DdgPO85h4xoQqDCZARVHlruo9d47rWEULoBEcC2m74QnlLeEC+FlBECMDpYj4F3lq+0K5thBBqYTDQWfiBsFQoI2MAwImb/WXemv2BXcMIIdSOQOAS4afCdKEcIwvgS8q9NfpTu2YRQiiBgcBVwo+FWUI1BhfAF1R7a/LHdo0ihFCSgoAzhOuE73t5xHQcBEhXp77mNfh9b02egYFCCKUiEOjs9Rh4VNjEZUGAlF7u2+StvZ6c8yOE0h0MPCYs8boONmKkARJKo7e2lnhrDaePEPKRwtEeYpgeFkYJWzHaAAlhq7emHrZrDCGEfLwjcL4Yqvvk6xAhnx0BgDa98efbNdS8ls7HsCCE3FC/kR1Cz46SQCD2GTFevxbyuCcA0KLz/Ty7ZnTt6BrStYQQQs5J24tmxc8Wg3a5vMn88LhAgKJCAO8X7znm+L9l14quGVrzIoQybGegswQCd8nbjdYm30I9AQh4/v4WuxZ0TejaQAihAOwMaObALWL4/ixfc4VijgggIFv8xXbON8/9W+xaQAihAO4IdBBDeJm8BT3otSNe5vUsx1lAJtFg57Ztx6tzXeY8Z/sIIeQpHO0uRvJmMZBa2SxHqMBxgONU2LncPKdvtnMcIYTQyXYFRp0ZCse1psCnhIhQwsVBcOxCX4k3dz9l57LOaYQQQq1Uds45YkjvFUYIm72KaBwTgJ+290u9uTnCzlWdswghhBIWCJwRyopfIQb2IWG4VxZ1Pw4I0sR+bw4Ot3NS56bOUYQQQkkNBjSL4Ebh28KLwkzhAMcEkOTt/QPeXHtOeMTOQW7xI4RQWgKBDmKEu4XC0etC4dg98v0z8nUFbYohoW13m+fUM3aO2bkWZYsfIYR8pXC0q02xitgSxE/J9wu8YICdAWjNm36dN3ceFz7ZnKoqcwshhJBDen5sdzHeXxa0OdFKYZdQjqMDj3JvTqy0c0Tnis4ZhBBCGSTbqTD+Wfn6C2GsFxDsEepxhIGh3nvmS4Uxdi40zwk67iGEUCAUjp4lRv82+dpXvj7t3eZeLOwlzTDj0vT2es92uH3Wzc+8dygr3oWFgBBCQVZ2TidxBheJY7hJHMPdwneFLPn1sT4FOFK3KPaeXZb3LO+2z1afsT5rhBBC6ISKxDp52QU95eu1trhLOPon+TpDqOVSoa8u7B31nskMe/EzK/55+8yan103+ywRQgihBAQHHWxd90jsYZsPHrbdDDcKO72KcFr/vRHnnNAz+zJvJ2aHsM67v/F7cfJf8epB0FgHIYRQGtRv5IXefYJvydcnvLNmdVLzPYe1w7ttzs7Bqd/mdYyKhDxv7MZIgDVYvv5YuEfe7vXcHmePEELIx8rO6RKKxHuJA/u0OK+veE5MLxsOFUbZnvCR2Fphe8A6H2o1va3CImGS8KZXzfFpb4zub76VL2OnY4gQQgg5r0isORUxEr9UAoPr5PtPCP8q9PF6HGjhmX7CO8I4YbWQ7znMeke267d6n3m193d4x/s7/VzoGwpHvyBfNe3uJvn+avl6cejZUd1C/UYyPxBCCAVQ/UaeIc5QUxO1mqFmJFws339YuFK+v0q+Xi/cINwRyoo/aonEnpT/NsjS7GyXn4QVLWyctN/7vSf7c8Yd9/OePO5z3OF9tuu9z3ql/ez6d9C/i/6d+o/uYks3I4R8of8PdcumCbTLXjsAAAAldEVYdGRhdGU6Y3JlYXRlADIwMjEtMDEtMjlUMDg6MzY6MDQrMDA6MDD/of1LAAAAJXRFWHRkYXRlOm1vZGlmeQAyMDIxLTAxLTI5VDA4OjM2OjA0KzAwOjAwjvxF9wAAAABJRU5ErkJggg==;" vertex="1" parent="WavSGEP2uycEWBqPC76q-35">
          <mxGeometry x="8" width="42" height="42" as="geometry" />
        </mxCell>
        <mxCell id="WavSGEP2uycEWBqPC76q-37" value="&lt;font color=&quot;#000000&quot;&gt;Keycloak&lt;br&gt;Instance&lt;br&gt;&lt;/font&gt;" style="text;html=1;strokeColor=none;fillColor=none;align=center;verticalAlign=middle;whiteSpace=wrap;rounded=0;" vertex="1" parent="WavSGEP2uycEWBqPC76q-35">
          <mxGeometry y="42" width="60" height="30" as="geometry" />
        </mxCell>
        <mxCell id="WavSGEP2uycEWBqPC76q-38" value="" style="endArrow=classic;html=1;rounded=0;exitX=0.5;exitY=0;exitDx=0;exitDy=0;strokeColor=#000000;strokeWidth=3;" edge="1" parent="1" source="WavSGEP2uycEWBqPC76q-33">
          <mxGeometry width="50" height="50" relative="1" as="geometry">
            <mxPoint x="660" y="450" as="sourcePoint" />
            <mxPoint x="480" y="430" as="targetPoint" />
          </mxGeometry>
        </mxCell>
        <mxCell id="WavSGEP2uycEWBqPC76q-39" value="" style="endArrow=classic;html=1;rounded=0;exitX=0.5;exitY=0;exitDx=0;exitDy=0;strokeColor=#000000;strokeWidth=3;" edge="1" parent="1" source="WavSGEP2uycEWBqPC76q-36">
          <mxGeometry width="50" height="50" relative="1" as="geometry">
            <mxPoint x="459" y="480" as="sourcePoint" />
            <mxPoint x="520" y="430" as="targetPoint" />
          </mxGeometry>
        </mxCell>
        <mxCell id="WavSGEP2uycEWBqPC76q-40" value="" style="endArrow=classic;html=1;rounded=0;exitX=0.25;exitY=0;exitDx=0;exitDy=0;strokeColor=#000000;strokeWidth=3;exitPerimeter=0;entryX=0.5;entryY=1;entryDx=0;entryDy=0;" edge="1" parent="1" target="WavSGEP2uycEWBqPC76q-34">
          <mxGeometry width="50" height="50" relative="1" as="geometry">
            <mxPoint x="488" y="620" as="sourcePoint" />
            <mxPoint x="490" y="440" as="targetPoint" />
          </mxGeometry>
        </mxCell>
        <mxCell id="WavSGEP2uycEWBqPC76q-41" value="" style="endArrow=classic;html=1;rounded=0;exitX=0.75;exitY=0;exitDx=0;exitDy=0;strokeColor=#000000;strokeWidth=3;exitPerimeter=0;entryX=0.5;entryY=1;entryDx=0;entryDy=0;" edge="1" parent="1" target="WavSGEP2uycEWBqPC76q-37">
          <mxGeometry width="50" height="50" relative="1" as="geometry">
            <mxPoint x="513" y="620" as="sourcePoint" />
            <mxPoint x="460" y="552" as="targetPoint" />
          </mxGeometry>
        </mxCell>
        <mxCell id="WavSGEP2uycEWBqPC76q-43" value="" style="sketch=0;points=[[0,0,0],[0.25,0,0],[0.5,0,0],[0.75,0,0],[1,0,0],[0,1,0],[0.25,1,0],[0.5,1,0],[0.75,1,0],[1,1,0],[0,0.25,0],[0,0.5,0],[0,0.75,0],[1,0.25,0],[1,0.5,0],[1,0.75,0]];outlineConnect=0;fontColor=#232F3E;gradientColor=#945DF2;gradientDirection=north;fillColor=#5A30B5;strokeColor=#ffffff;dashed=0;verticalLabelPosition=bottom;verticalAlign=top;align=center;html=1;fontSize=12;fontStyle=0;aspect=fixed;shape=mxgraph.aws4.resourceIcon;resIcon=mxgraph.aws4.api_gateway;" vertex="1" parent="1">
          <mxGeometry x="475" y="620" width="50" height="50" as="geometry" />
        </mxCell>
        <mxCell id="WavSGEP2uycEWBqPC76q-44" value="&lt;font color=&quot;#000000&quot;&gt;API-&lt;br&gt;Gateway&lt;br&gt;&lt;/font&gt;" style="text;html=1;strokeColor=none;fillColor=none;align=center;verticalAlign=middle;whiteSpace=wrap;rounded=0;" vertex="1" parent="1">
          <mxGeometry x="470" y="680" width="60" height="30" as="geometry" />
        </mxCell>
        <mxCell id="WavSGEP2uycEWBqPC76q-45" value="" style="endArrow=classic;html=1;rounded=0;exitX=0.88;exitY=0.25;exitDx=0;exitDy=0;strokeColor=#000000;strokeWidth=3;exitPerimeter=0;entryX=0.5;entryY=1;entryDx=0;entryDy=0;" edge="1" parent="1" source="WavSGEP2uycEWBqPC76q-22" target="WavSGEP2uycEWBqPC76q-44">
          <mxGeometry width="50" height="50" relative="1" as="geometry">
            <mxPoint x="350" y="780" as="sourcePoint" />
            <mxPoint x="230" y="720" as="targetPoint" />
          </mxGeometry>
        </mxCell>
        <mxCell id="WavSGEP2uycEWBqPC76q-46" value="" style="endArrow=classic;html=1;rounded=0;exitX=1;exitY=0.5;exitDx=0;exitDy=0;strokeColor=#000000;strokeWidth=3;entryX=0;entryY=0.5;entryDx=0;entryDy=0;startArrow=classic;startFill=1;dashed=1;" edge="1" parent="1" source="WavSGEP2uycEWBqPC76q-7" target="WavSGEP2uycEWBqPC76q-30">
          <mxGeometry width="50" height="50" relative="1" as="geometry">
            <mxPoint x="243" y="630" as="sourcePoint" />
            <mxPoint x="280" y="552" as="targetPoint" />
          </mxGeometry>
        </mxCell>
      </root>
    </mxGraphModel>
  </diagram>
</mxfile>
